<?xml version="1.0" encoding="utf-8"?>
<!-- Generator: Adobe Illustrator 23.0.1, SVG Export Plug-In . SVG Version: 6.00 Build 0)  -->
<svg version="1.1" id="Camada_1" xmlns="http://www.w3.org/2000/svg" xmlns:xlink="http://www.w3.org/1999/xlink" x="0px" y="0px"
	 viewBox="0 0 305.15 480" style="enable-background:new 0 0 305.15 480;" xml:space="preserve">
<style type="text/css">
	.st0{fill:#FFFFFF;}
</style>
<path class="st0" d="M257.24,11.73H47.91c-21.33,0-38.63,17.29-38.63,38.63v381.29c0,21.33,17.29,38.63,38.63,38.63h209.33
	c21.33,0,38.63-17.29,38.63-38.63V50.36C295.87,29.02,278.57,11.73,257.24,11.73z M163.36,454.18c-20.59,9.63-40.53-10.31-30.9-30.9
	c1.91-4.09,5.22-7.4,9.32-9.32c20.59-9.63,40.53,10.31,30.9,30.9C170.77,448.96,167.46,452.27,163.36,454.18z M265.7,54.59v328.88
	c0,8.78-6.7,15.89-14.96,15.89H54.41c-8.26,0-14.96-7.12-14.96-15.89V54.59c0-8.78,6.7-15.89,14.96-15.89h196.34
	C259,38.7,265.7,45.81,265.7,54.59z"/>
</svg>
