<?xml version="1.0" encoding="utf-8"?>
<!-- Generator: Adobe Illustrator 23.0.1, SVG Export Plug-In . SVG Version: 6.00 Build 0)  -->
<svg version="1.1" xmlns="http://www.w3.org/2000/svg" xmlns:xlink="http://www.w3.org/1999/xlink" x="0px" y="0px"
	 viewBox="0 0 640 480" style="enable-background:new 0 0 640 480;" xml:space="preserve">
<style type="text/css">
	.st0{fill:#9695AE;}
	.st1{fill:none;stroke:#5A5959;stroke-width:20;stroke-miterlimit:10;stroke-dasharray:1.996,9.9799;}
	.st2{fill:none;stroke:#3B5F16;stroke-width:0.5;stroke-miterlimit:10;}
	.st3{fill:#4F4BFA;}
	.st4{fill:#5600A4;}
	.st5{fill:none;stroke:#345B4C;stroke-width:0.5;stroke-miterlimit:10;}
	.st6{fill:#5B3694;}
	.st7{fill:#FFFFFF;}
	.st8{opacity:0.39;fill:none;stroke:#575255;stroke-width:0.75;stroke-miterlimit:10;}
	.st9{fill:none;stroke:#3B5F16;stroke-width:0.25;stroke-miterlimit:10;}
	.st10{fill:#5600A4;stroke:#3E008F;stroke-width:0.25;stroke-miterlimit:10;}
	.st11{fill:#FFFFFF;stroke:#FFFFFF;stroke-width:0.25;stroke-miterlimit:10;}
	.st12{fill:#455C29;}
	.st13{fill:#639B9C;}
	.st14{opacity:0.4;fill:#172F78;}
	.st15{fill:#03A7D3;}
	.st16{fill:url(#SVGID_1_);}
	.st17{fill:url(#SVGID_2_);}
	.st18{fill:url(#SVGID_3_);}
	.st19{opacity:0.5;}
	.st20{fill:#380031;}
	.st21{opacity:0.5;fill:#380031;}
	.st22{opacity:0.2;fill:#06033E;}
	.st23{opacity:0.4;fill:#06033E;}
	.st24{fill:url(#SVGID_4_);}
	.st25{fill:url(#SVGID_5_);}
	.st26{fill:url(#SVGID_6_);}
	.st27{fill:url(#SVGID_7_);}
	.st28{fill:#8B1E64;}
	.st29{fill:#FB8488;}
	.st30{opacity:0.5;fill:#FFFFFF;}
</style>
<g id="Camada_2">
	<g>
		<g>
			<g>
				<g>
					<path class="st0" d="M535.57,430.44c-0.63-0.2-1.1-0.56-1.41-1.07c-0.31-0.51-0.46-1.12-0.47-1.83
						c-0.01-0.71,0.12-1.47,0.37-2.26c0.25-0.8,0.59-1.49,1.01-2.07c0.42-0.57,0.9-0.98,1.44-1.22c0.54-0.24,1.13-0.26,1.76-0.06
						c0.65,0.21,1.12,0.56,1.42,1.07c0.3,0.51,0.46,1.12,0.47,1.83c0.01,0.71-0.12,1.47-0.37,2.27c-0.25,0.8-0.59,1.48-1.01,2.06
						c-0.42,0.58-0.9,0.99-1.44,1.23C536.8,430.63,536.21,430.64,535.57,430.44z M535.8,429.71c0.46,0.15,0.9,0.13,1.3-0.07
						c0.4-0.19,0.77-0.53,1.1-1.01c0.33-0.48,0.6-1.07,0.82-1.77c0.23-0.71,0.34-1.35,0.35-1.93c0.01-0.58-0.09-1.06-0.31-1.45
						c-0.22-0.39-0.56-0.66-1.02-0.81c-0.46-0.15-0.89-0.12-1.29,0.07c-0.4,0.19-0.77,0.53-1.1,1c-0.33,0.48-0.61,1.07-0.83,1.78
						c-0.22,0.7-0.34,1.34-0.35,1.93c-0.01,0.58,0.1,1.07,0.32,1.46C535,429.29,535.34,429.56,535.8,429.71z"/>
					<path class="st0" d="M542.6,432.68c-0.63-0.2-1.1-0.56-1.41-1.07c-0.31-0.51-0.46-1.12-0.47-1.83s0.12-1.47,0.37-2.26
						c0.25-0.8,0.59-1.49,1.01-2.07c0.42-0.57,0.9-0.98,1.44-1.22c0.54-0.24,1.13-0.26,1.76-0.06c0.65,0.21,1.12,0.56,1.42,1.07
						c0.3,0.51,0.46,1.12,0.47,1.83c0.01,0.71-0.12,1.47-0.37,2.27c-0.25,0.8-0.59,1.48-1.01,2.06c-0.42,0.58-0.9,0.99-1.44,1.23
						C543.84,432.86,543.24,432.88,542.6,432.68z M542.83,431.94c0.46,0.15,0.9,0.13,1.3-0.07c0.4-0.19,0.77-0.53,1.1-1.01
						c0.33-0.48,0.6-1.07,0.82-1.77c0.23-0.71,0.34-1.35,0.35-1.93c0.01-0.58-0.09-1.06-0.31-1.45c-0.22-0.39-0.56-0.66-1.02-0.81
						c-0.46-0.15-0.89-0.12-1.29,0.07c-0.4,0.19-0.77,0.53-1.1,1c-0.33,0.48-0.61,1.07-0.83,1.78c-0.22,0.7-0.34,1.34-0.35,1.93
						c-0.01,0.58,0.1,1.07,0.32,1.46C542.04,431.53,542.37,431.8,542.83,431.94z"/>
					<path class="st0" d="M548.6,434.46c-0.1-0.03-0.18-0.1-0.23-0.19c-0.05-0.09-0.06-0.19-0.03-0.28l2.26-7.11l0.09,0.16
						l-1.9,0.46c-0.05,0.01-0.11,0-0.18-0.02c-0.11-0.04-0.19-0.11-0.23-0.21c-0.04-0.11-0.05-0.2-0.03-0.28
						c0.04-0.13,0.14-0.21,0.29-0.25l2.38-0.56c0.09-0.02,0.19-0.01,0.3,0.03c0.08,0.04,0.14,0.1,0.18,0.18
						c0.04,0.09,0.04,0.18,0.01,0.27l-2.41,7.56c-0.03,0.09-0.09,0.17-0.19,0.21C548.82,434.49,548.71,434.49,548.6,434.46z"/>
					<path class="st0" d="M553.56,436.17c-0.63-0.2-1.1-0.56-1.41-1.07c-0.31-0.51-0.46-1.12-0.47-1.83
						c-0.01-0.71,0.12-1.47,0.37-2.26c0.26-0.8,0.59-1.49,1.01-2.07c0.42-0.57,0.9-0.98,1.44-1.22c0.54-0.24,1.13-0.26,1.76-0.06
						c0.65,0.21,1.12,0.56,1.42,1.07s0.46,1.12,0.47,1.83c0.01,0.71-0.12,1.47-0.37,2.27c-0.25,0.8-0.59,1.48-1.01,2.06
						c-0.42,0.58-0.9,0.99-1.44,1.23C554.8,436.35,554.21,436.37,553.56,436.17z M553.8,435.43c0.46,0.15,0.9,0.13,1.3-0.07
						c0.4-0.19,0.77-0.53,1.1-1.01c0.33-0.48,0.6-1.07,0.82-1.77c0.23-0.71,0.34-1.35,0.35-1.93c0.01-0.58-0.09-1.06-0.31-1.45
						c-0.22-0.39-0.56-0.66-1.02-0.81c-0.46-0.15-0.89-0.12-1.29,0.07c-0.4,0.19-0.77,0.53-1.1,1c-0.33,0.48-0.61,1.07-0.83,1.78
						c-0.22,0.7-0.34,1.34-0.35,1.93c-0.01,0.58,0.1,1.07,0.32,1.46C553,435.02,553.34,435.29,553.8,435.43z"/>
					<path class="st0" d="M559.57,437.95c-0.1-0.03-0.18-0.1-0.23-0.19c-0.05-0.1-0.06-0.19-0.03-0.28l2.26-7.11l0.09,0.16
						l-1.9,0.46c-0.05,0.01-0.11,0-0.18-0.02c-0.11-0.04-0.19-0.11-0.23-0.21c-0.04-0.1-0.05-0.2-0.03-0.28
						c0.04-0.13,0.14-0.21,0.29-0.25l2.38-0.56c0.09-0.02,0.19-0.01,0.3,0.03c0.08,0.04,0.14,0.1,0.18,0.18
						c0.04,0.09,0.04,0.18,0.01,0.27l-2.41,7.56c-0.03,0.09-0.09,0.16-0.19,0.21S559.68,437.98,559.57,437.95z"/>
					<path class="st0" d="M524.63,439.03c-0.63-0.2-1.1-0.56-1.41-1.07c-0.31-0.51-0.46-1.12-0.47-1.83s0.12-1.47,0.37-2.26
						c0.26-0.8,0.59-1.49,1.01-2.07c0.42-0.57,0.9-0.98,1.44-1.22c0.54-0.24,1.13-0.26,1.76-0.06c0.65,0.21,1.12,0.56,1.42,1.07
						c0.3,0.51,0.46,1.12,0.47,1.83c0.01,0.71-0.12,1.47-0.37,2.27c-0.25,0.79-0.59,1.48-1.01,2.06c-0.42,0.58-0.9,0.99-1.44,1.23
						C525.87,439.22,525.27,439.24,524.63,439.03z M524.86,438.3c0.46,0.15,0.9,0.13,1.3-0.07c0.41-0.19,0.77-0.53,1.1-1.01
						c0.33-0.48,0.6-1.07,0.83-1.77c0.23-0.71,0.34-1.35,0.35-1.93c0.01-0.58-0.09-1.06-0.31-1.45c-0.22-0.39-0.56-0.66-1.02-0.81
						c-0.46-0.15-0.89-0.12-1.29,0.07s-0.77,0.53-1.1,1s-0.61,1.07-0.83,1.78c-0.22,0.7-0.34,1.34-0.35,1.93
						c-0.01,0.58,0.1,1.07,0.32,1.46S524.4,438.15,524.86,438.3z"/>
					<path class="st0" d="M531.66,441.27c-0.63-0.2-1.1-0.56-1.41-1.07c-0.31-0.51-0.46-1.12-0.47-1.83s0.12-1.47,0.37-2.26
						c0.26-0.8,0.59-1.49,1.01-2.07c0.42-0.57,0.9-0.98,1.44-1.22c0.54-0.24,1.13-0.26,1.76-0.06c0.65,0.21,1.12,0.56,1.42,1.07
						c0.3,0.51,0.46,1.12,0.47,1.83c0.01,0.71-0.12,1.47-0.37,2.27c-0.25,0.8-0.59,1.48-1.01,2.06c-0.42,0.58-0.9,0.99-1.44,1.23
						C532.9,441.46,532.3,441.47,531.66,441.27z M531.89,440.54c0.46,0.15,0.9,0.13,1.3-0.07c0.41-0.19,0.77-0.53,1.1-1.01
						c0.33-0.48,0.6-1.07,0.83-1.77c0.23-0.71,0.34-1.35,0.35-1.93c0.01-0.58-0.09-1.06-0.31-1.45c-0.22-0.39-0.56-0.66-1.02-0.81
						c-0.46-0.15-0.89-0.12-1.29,0.07c-0.4,0.19-0.77,0.53-1.1,1s-0.61,1.07-0.83,1.78c-0.22,0.7-0.34,1.34-0.35,1.93
						c-0.01,0.58,0.1,1.07,0.32,1.46S531.43,440.39,531.89,440.54z"/>
					<path class="st0" d="M537.66,443.05c-0.1-0.03-0.18-0.1-0.23-0.19c-0.05-0.09-0.06-0.19-0.03-0.28l2.26-7.11l0.09,0.16
						l-1.9,0.46c-0.05,0.01-0.11,0-0.18-0.02c-0.11-0.04-0.19-0.11-0.23-0.21c-0.04-0.11-0.06-0.2-0.03-0.28
						c0.04-0.13,0.14-0.21,0.29-0.25l2.38-0.56c0.09-0.02,0.2-0.01,0.3,0.03c0.08,0.04,0.14,0.1,0.18,0.18
						c0.04,0.09,0.04,0.18,0.01,0.27l-2.41,7.56c-0.03,0.09-0.09,0.17-0.19,0.21C537.88,443.08,537.77,443.08,537.66,443.05z"/>
					<path class="st0" d="M542.62,444.76c-0.63-0.2-1.1-0.56-1.41-1.07c-0.31-0.51-0.46-1.12-0.47-1.83s0.12-1.47,0.37-2.26
						c0.25-0.8,0.59-1.49,1.01-2.07c0.42-0.57,0.9-0.98,1.44-1.22c0.54-0.24,1.13-0.26,1.76-0.06c0.65,0.21,1.12,0.56,1.42,1.07
						c0.3,0.51,0.46,1.12,0.47,1.83c0.01,0.71-0.12,1.47-0.37,2.27c-0.25,0.8-0.59,1.48-1.01,2.06s-0.9,0.99-1.44,1.23
						C543.86,444.95,543.27,444.97,542.62,444.76z M542.86,444.03c0.46,0.15,0.9,0.13,1.3-0.07c0.4-0.19,0.77-0.53,1.1-1.01
						c0.33-0.48,0.6-1.07,0.82-1.77c0.23-0.71,0.34-1.35,0.35-1.93c0.01-0.58-0.09-1.06-0.31-1.45c-0.22-0.39-0.56-0.66-1.02-0.81
						c-0.46-0.15-0.89-0.12-1.29,0.07c-0.4,0.19-0.77,0.53-1.1,1c-0.33,0.48-0.61,1.07-0.83,1.78c-0.22,0.7-0.34,1.34-0.35,1.93
						c-0.01,0.58,0.1,1.07,0.32,1.46C542.06,443.61,542.4,443.88,542.86,444.03z"/>
					<path class="st0" d="M548.63,446.54c-0.1-0.03-0.18-0.1-0.23-0.19c-0.05-0.09-0.06-0.19-0.03-0.28l2.26-7.11l0.09,0.16
						l-1.9,0.46c-0.05,0.01-0.11,0-0.18-0.02c-0.11-0.04-0.19-0.1-0.23-0.21c-0.04-0.11-0.06-0.2-0.03-0.28
						c0.04-0.13,0.14-0.21,0.29-0.25l2.38-0.56c0.09-0.02,0.19-0.01,0.3,0.03c0.08,0.04,0.14,0.1,0.18,0.18
						c0.04,0.09,0.04,0.18,0.01,0.27l-2.41,7.56c-0.03,0.09-0.09,0.17-0.19,0.21C548.84,446.57,548.74,446.58,548.63,446.54z"/>
					<path class="st0" d="M552.56,447.79c-0.1-0.03-0.18-0.1-0.23-0.19s-0.06-0.19-0.03-0.28l2.26-7.11l0.09,0.16l-1.9,0.46
						c-0.05,0.01-0.11,0-0.18-0.02c-0.11-0.04-0.19-0.1-0.23-0.21c-0.04-0.11-0.05-0.2-0.03-0.28c0.04-0.13,0.14-0.21,0.29-0.25
						l2.38-0.56c0.09-0.02,0.19-0.01,0.3,0.03c0.08,0.04,0.14,0.1,0.18,0.18c0.04,0.09,0.04,0.18,0.01,0.27l-2.41,7.56
						c-0.03,0.09-0.09,0.17-0.19,0.21C552.78,447.82,552.67,447.83,552.56,447.79z"/>
					<path class="st0" d="M557.52,449.5c-0.63-0.2-1.1-0.56-1.41-1.06c-0.31-0.51-0.46-1.12-0.47-1.84
						c-0.01-0.71,0.12-1.47,0.37-2.26c0.26-0.8,0.59-1.49,1.01-2.07c0.42-0.57,0.9-0.98,1.44-1.22c0.54-0.24,1.13-0.26,1.76-0.06
						c0.65,0.21,1.12,0.56,1.42,1.07c0.3,0.51,0.46,1.12,0.47,1.83c0.01,0.71-0.12,1.47-0.37,2.27c-0.25,0.79-0.59,1.48-1.01,2.06
						c-0.42,0.58-0.9,0.99-1.44,1.23C558.76,449.69,558.17,449.71,557.52,449.5z M557.76,448.77c0.46,0.15,0.9,0.13,1.3-0.07
						c0.4-0.19,0.77-0.53,1.1-1.01c0.33-0.48,0.6-1.07,0.82-1.77c0.23-0.71,0.34-1.35,0.35-1.93c0.01-0.58-0.09-1.06-0.31-1.45
						c-0.22-0.39-0.56-0.66-1.02-0.81c-0.46-0.15-0.89-0.12-1.29,0.07c-0.4,0.19-0.77,0.53-1.1,1c-0.33,0.48-0.61,1.07-0.83,1.78
						c-0.22,0.7-0.34,1.34-0.35,1.93s0.1,1.07,0.32,1.46C556.96,448.36,557.3,448.62,557.76,448.77z"/>
					<path class="st0" d="M563.53,451.28c-0.1-0.03-0.18-0.1-0.23-0.19c-0.05-0.09-0.06-0.19-0.03-0.28l2.26-7.11l0.09,0.16
						l-1.9,0.46c-0.05,0.01-0.11,0-0.18-0.02c-0.11-0.04-0.19-0.1-0.23-0.21c-0.04-0.11-0.05-0.2-0.03-0.28
						c0.04-0.13,0.14-0.21,0.29-0.25l2.38-0.56c0.09-0.02,0.19-0.01,0.3,0.03c0.08,0.04,0.14,0.1,0.18,0.18
						c0.04,0.09,0.04,0.18,0.01,0.27l-2.41,7.56c-0.03,0.09-0.09,0.17-0.19,0.21C563.74,451.31,563.64,451.32,563.53,451.28z"/>
					<path class="st0" d="M528.17,452.23c-0.63-0.2-1.1-0.55-1.4-1.06c-0.31-0.51-0.46-1.12-0.47-1.83
						c-0.01-0.71,0.12-1.47,0.37-2.26c0.25-0.8,0.59-1.49,1.01-2.07c0.42-0.57,0.9-0.98,1.44-1.22c0.54-0.24,1.13-0.26,1.76-0.06
						c0.65,0.21,1.12,0.56,1.42,1.07c0.3,0.51,0.46,1.12,0.47,1.83c0.01,0.71-0.12,1.47-0.37,2.27c-0.25,0.8-0.59,1.48-1.01,2.06
						c-0.42,0.58-0.9,0.99-1.44,1.23C529.41,452.42,528.81,452.44,528.17,452.23z M528.4,451.5c0.46,0.15,0.9,0.13,1.3-0.07
						c0.41-0.19,0.77-0.53,1.1-1.01c0.33-0.48,0.6-1.07,0.82-1.77c0.23-0.71,0.34-1.35,0.35-1.93c0.01-0.58-0.09-1.06-0.31-1.45
						c-0.22-0.39-0.56-0.66-1.02-0.81c-0.46-0.15-0.89-0.12-1.29,0.07c-0.4,0.19-0.77,0.53-1.1,1c-0.33,0.48-0.61,1.07-0.83,1.78
						c-0.22,0.7-0.34,1.34-0.35,1.93c-0.01,0.58,0.1,1.07,0.32,1.46S527.94,451.36,528.4,451.5z"/>
					<path class="st0" d="M534.17,454.02c-0.1-0.03-0.18-0.1-0.23-0.19c-0.05-0.09-0.06-0.19-0.03-0.28l2.26-7.11l0.09,0.16
						l-1.9,0.46c-0.05,0.01-0.11,0-0.18-0.02c-0.11-0.04-0.19-0.11-0.23-0.21c-0.04-0.11-0.06-0.2-0.03-0.28
						c0.04-0.13,0.14-0.21,0.29-0.25l2.38-0.56c0.09-0.02,0.2-0.01,0.3,0.03c0.08,0.04,0.14,0.1,0.18,0.18
						c0.04,0.09,0.04,0.18,0.01,0.27l-2.41,7.56c-0.03,0.09-0.09,0.17-0.19,0.21S534.28,454.05,534.17,454.02z"/>
					<path class="st0" d="M538.11,455.27c-0.1-0.03-0.18-0.1-0.23-0.19c-0.05-0.1-0.06-0.19-0.03-0.28l2.26-7.11l0.09,0.16
						l-1.9,0.46c-0.05,0.01-0.11,0-0.18-0.02c-0.11-0.04-0.19-0.11-0.23-0.21c-0.04-0.11-0.05-0.2-0.03-0.28
						c0.04-0.13,0.14-0.21,0.29-0.25l2.38-0.56c0.09-0.02,0.19-0.01,0.3,0.03c0.08,0.04,0.14,0.1,0.18,0.18
						c0.04,0.09,0.04,0.18,0.01,0.27l-2.41,7.56c-0.03,0.09-0.09,0.17-0.19,0.21C538.32,455.3,538.21,455.3,538.11,455.27z"/>
					<path class="st0" d="M542.04,456.52c-0.1-0.03-0.18-0.1-0.23-0.19c-0.05-0.09-0.06-0.19-0.03-0.28l2.26-7.11l0.09,0.16
						l-1.9,0.46c-0.05,0.01-0.11,0-0.18-0.02c-0.11-0.04-0.19-0.11-0.23-0.21c-0.04-0.11-0.05-0.2-0.03-0.28
						c0.04-0.13,0.14-0.21,0.29-0.25l2.38-0.56c0.09-0.02,0.19-0.01,0.3,0.03c0.08,0.04,0.14,0.1,0.18,0.18
						c0.04,0.09,0.04,0.18,0.01,0.27l-2.41,7.56c-0.03,0.09-0.09,0.17-0.19,0.21C542.26,456.55,542.15,456.56,542.04,456.52z"/>
					<path class="st0" d="M547,458.23c-0.63-0.2-1.1-0.56-1.41-1.07c-0.31-0.51-0.46-1.12-0.47-1.83c-0.01-0.71,0.12-1.47,0.37-2.26
						c0.25-0.8,0.59-1.49,1.01-2.07c0.42-0.57,0.9-0.98,1.44-1.22c0.54-0.24,1.13-0.26,1.76-0.06c0.65,0.21,1.12,0.56,1.42,1.07
						c0.3,0.51,0.46,1.12,0.47,1.83c0.01,0.71-0.12,1.47-0.37,2.27c-0.25,0.79-0.59,1.48-1.01,2.06c-0.42,0.58-0.9,0.99-1.44,1.23
						C548.24,458.42,547.65,458.43,547,458.23z M547.24,457.5c0.46,0.15,0.9,0.13,1.3-0.07c0.4-0.19,0.77-0.53,1.1-1.01
						c0.33-0.48,0.6-1.07,0.83-1.77c0.23-0.71,0.34-1.35,0.35-1.93c0.01-0.58-0.09-1.06-0.31-1.45c-0.22-0.39-0.56-0.66-1.02-0.81
						c-0.46-0.15-0.89-0.12-1.29,0.07c-0.4,0.19-0.77,0.53-1.1,1c-0.33,0.48-0.61,1.07-0.83,1.78c-0.22,0.7-0.34,1.34-0.35,1.93
						c-0.01,0.58,0.1,1.07,0.32,1.46C546.44,457.08,546.78,457.35,547.24,457.5z"/>
					<path class="st0" d="M553.01,460.01c-0.1-0.03-0.18-0.1-0.23-0.19c-0.05-0.09-0.06-0.19-0.03-0.28l2.26-7.11l0.09,0.16
						l-1.9,0.46c-0.05,0.01-0.11,0-0.18-0.02c-0.11-0.04-0.19-0.11-0.23-0.21c-0.04-0.11-0.05-0.2-0.03-0.28
						c0.04-0.13,0.14-0.21,0.29-0.25l2.38-0.56c0.09-0.02,0.19-0.01,0.3,0.03c0.08,0.04,0.14,0.1,0.18,0.18
						c0.04,0.08,0.04,0.18,0.01,0.27l-2.41,7.56c-0.03,0.09-0.09,0.17-0.19,0.21C553.22,460.04,553.12,460.05,553.01,460.01z"/>
				</g>
			</g>
			<g>
				<g>
					<path class="st0" d="M434.15,352.73c0.09,0.1,0.12,0.21,0.11,0.32c-0.01,0.12-0.07,0.21-0.18,0.3
						c-0.09,0.07-0.18,0.1-0.27,0.08c-0.09-0.02-0.18-0.07-0.27-0.14c-0.27-0.31-0.58-0.58-0.94-0.81c-0.36-0.23-0.75-0.4-1.18-0.52
						c-0.54-0.15-1.07-0.18-1.59-0.11c-0.52,0.07-1,0.23-1.44,0.5c-0.44,0.26-0.82,0.61-1.14,1.04c-0.32,0.44-0.56,0.95-0.72,1.53
						c-0.16,0.6-0.21,1.17-0.15,1.72s0.22,1.04,0.47,1.49c0.25,0.45,0.59,0.83,1,1.14c0.41,0.31,0.88,0.54,1.41,0.68
						c0.43,0.12,0.86,0.17,1.28,0.15c0.42-0.02,0.82-0.09,1.22-0.21c0.1-0.03,0.2-0.02,0.3,0.02c0.09,0.04,0.16,0.11,0.21,0.22
						c0.04,0.12,0.04,0.23-0.01,0.34c-0.05,0.11-0.13,0.18-0.24,0.21c-0.26,0.08-0.56,0.15-0.89,0.19
						c-0.33,0.05-0.68,0.06-1.04,0.04c-0.36-0.02-0.7-0.08-1.04-0.17c-0.64-0.17-1.21-0.45-1.71-0.83c-0.5-0.38-0.91-0.84-1.22-1.38
						c-0.32-0.54-0.52-1.13-0.61-1.78c-0.09-0.65-0.04-1.34,0.16-2.05c0.19-0.69,0.48-1.29,0.88-1.8s0.87-0.92,1.41-1.24
						c0.54-0.31,1.13-0.51,1.76-0.6c0.63-0.09,1.27-0.04,1.92,0.13c0.5,0.14,0.97,0.34,1.4,0.61
						C433.47,352.05,433.84,352.37,434.15,352.73z"/>
					<path class="st0" d="M436.24,362.67c-0.68-0.17-1.23-0.43-1.67-0.79s-0.82-0.81-1.15-1.37c-0.03-0.06-0.06-0.12-0.07-0.18
						c-0.02-0.06-0.01-0.13,0-0.2c0.03-0.11,0.1-0.19,0.21-0.26c0.11-0.07,0.21-0.08,0.32-0.06s0.19,0.1,0.26,0.21
						c0.25,0.46,0.56,0.85,0.95,1.17c0.39,0.31,0.83,0.54,1.33,0.67c0.43,0.12,0.82,0.15,1.19,0.11s0.68-0.16,0.94-0.36
						c0.26-0.19,0.44-0.46,0.53-0.78c0.1-0.41,0.08-0.77-0.07-1.07c-0.15-0.31-0.38-0.59-0.7-0.86c-0.32-0.27-0.68-0.52-1.09-0.76
						c-0.33-0.21-0.65-0.43-0.94-0.66c-0.29-0.23-0.54-0.47-0.74-0.74c-0.2-0.27-0.33-0.57-0.39-0.9c-0.06-0.33-0.04-0.7,0.07-1.11
						c0.13-0.47,0.36-0.85,0.71-1.15c0.35-0.3,0.78-0.49,1.29-0.58c0.51-0.08,1.07-0.05,1.67,0.12c0.52,0.14,1,0.37,1.44,0.67
						c0.44,0.31,0.75,0.67,0.94,1.09c0.09,0.18,0.13,0.32,0.09,0.44c-0.03,0.1-0.09,0.18-0.21,0.24c-0.11,0.06-0.22,0.08-0.33,0.05
						c-0.09-0.02-0.16-0.08-0.2-0.15c-0.1-0.23-0.25-0.44-0.44-0.65c-0.19-0.21-0.41-0.39-0.67-0.54s-0.54-0.27-0.84-0.35
						c-0.42-0.11-0.81-0.15-1.17-0.11c-0.37,0.04-0.68,0.15-0.93,0.34c-0.25,0.19-0.43,0.45-0.52,0.8c-0.1,0.37-0.08,0.7,0.07,1
						c0.15,0.29,0.38,0.56,0.68,0.81c0.3,0.25,0.63,0.49,0.99,0.73c0.35,0.21,0.69,0.43,1,0.66c0.31,0.23,0.58,0.49,0.79,0.76
						s0.36,0.59,0.43,0.94c0.07,0.35,0.04,0.76-0.08,1.23c-0.12,0.45-0.36,0.82-0.71,1.12c-0.35,0.29-0.78,0.49-1.29,0.58
						C437.4,362.85,436.85,362.82,436.24,362.67z"/>
					<path class="st0" d="M443.7,364.68c-0.67-0.17-1.23-0.43-1.67-0.79c-0.44-0.35-0.82-0.81-1.15-1.37
						c-0.03-0.06-0.06-0.12-0.07-0.18s-0.02-0.13,0-0.2c0.03-0.11,0.1-0.19,0.21-0.26c0.11-0.07,0.21-0.08,0.32-0.06
						c0.11,0.03,0.19,0.1,0.26,0.21c0.25,0.46,0.56,0.85,0.95,1.17s0.83,0.54,1.33,0.67c0.43,0.12,0.82,0.15,1.19,0.11
						c0.37-0.04,0.68-0.16,0.94-0.36c0.26-0.19,0.44-0.46,0.53-0.78c0.1-0.41,0.08-0.77-0.07-1.07c-0.15-0.31-0.38-0.59-0.7-0.86
						c-0.32-0.27-0.68-0.52-1.09-0.76c-0.33-0.21-0.65-0.43-0.94-0.66c-0.29-0.23-0.54-0.47-0.74-0.74c-0.2-0.27-0.33-0.57-0.39-0.9
						c-0.06-0.33-0.04-0.7,0.07-1.11c0.13-0.47,0.36-0.85,0.71-1.15c0.35-0.3,0.78-0.49,1.29-0.58c0.51-0.08,1.07-0.05,1.67,0.12
						c0.52,0.14,1,0.36,1.44,0.67c0.44,0.31,0.75,0.67,0.94,1.09c0.09,0.18,0.13,0.32,0.09,0.44c-0.03,0.1-0.09,0.18-0.21,0.24
						c-0.11,0.06-0.22,0.08-0.33,0.05c-0.09-0.02-0.16-0.08-0.2-0.15c-0.1-0.23-0.25-0.44-0.44-0.65c-0.19-0.21-0.42-0.39-0.67-0.54
						c-0.26-0.16-0.54-0.27-0.84-0.35c-0.42-0.11-0.81-0.15-1.17-0.11c-0.37,0.04-0.68,0.15-0.93,0.34
						c-0.25,0.19-0.43,0.46-0.52,0.8c-0.1,0.37-0.08,0.7,0.07,1c0.15,0.29,0.38,0.56,0.68,0.81c0.3,0.25,0.63,0.49,0.99,0.73
						c0.35,0.21,0.69,0.43,1,0.66c0.31,0.23,0.58,0.49,0.79,0.76s0.36,0.59,0.43,0.94c0.07,0.35,0.04,0.76-0.08,1.23
						c-0.12,0.45-0.36,0.82-0.71,1.12c-0.36,0.29-0.78,0.49-1.29,0.58C444.86,364.86,444.31,364.83,443.7,364.68z"/>
				</g>
			</g>
			<g>
				<g>
					<path class="st0" d="M203.11,35.22c0.1,0.03,0.18,0.09,0.25,0.2c0.06,0.1,0.07,0.21,0.04,0.32l-2.35,8.23
						c-0.04,0.11-0.11,0.19-0.22,0.25c-0.1,0.05-0.21,0.07-0.31,0.04c-0.13-0.04-0.22-0.1-0.26-0.2c-0.05-0.1-0.05-0.2-0.02-0.31
						l2.35-8.23c0.03-0.11,0.1-0.2,0.2-0.25C202.88,35.2,202.99,35.18,203.11,35.22z M201.9,39.24l6.13,1.75l-0.23,0.76l-6.17-1.76
						L201.9,39.24z M209.16,36.94c0.12,0.03,0.21,0.1,0.26,0.2c0.05,0.1,0.06,0.2,0.03,0.32l-2.35,8.23
						c-0.04,0.11-0.11,0.19-0.2,0.25s-0.2,0.07-0.32,0.03c-0.11-0.03-0.2-0.1-0.25-0.2c-0.06-0.1-0.07-0.21-0.04-0.32l2.35-8.23
						c0.03-0.11,0.1-0.19,0.2-0.25C208.94,36.92,209.05,36.91,209.16,36.94z"/>
					<path class="st0" d="M211.39,38.38c-0.1-0.03-0.18-0.09-0.24-0.18c-0.06-0.09-0.07-0.19-0.04-0.29
						c0.03-0.11,0.1-0.19,0.19-0.24c0.1-0.05,0.2-0.06,0.3-0.03l6.13,1.75c0.11,0.03,0.2,0.09,0.25,0.18
						c0.06,0.09,0.07,0.19,0.04,0.3c-0.03,0.11-0.1,0.19-0.19,0.23c-0.1,0.04-0.2,0.05-0.31,0.02L211.39,38.38z M212.1,47.55
						c-0.12-0.03-0.21-0.1-0.26-0.2c-0.06-0.1-0.07-0.2-0.04-0.3l2.34-8.22l0.81,0.23l-2.34,8.22c-0.03,0.1-0.09,0.18-0.19,0.24
						C212.32,47.57,212.21,47.58,212.1,47.55z"/>
					<path class="st0" d="M220.17,40.08c0.06,0.02,0.12,0.05,0.17,0.1c0.06,0.05,0.1,0.1,0.13,0.17l2.04,6.36l-0.35-0.11l5.09-4.31
						c0.13-0.1,0.26-0.12,0.4-0.07c0.1,0.03,0.18,0.09,0.23,0.19c0.05,0.09,0.06,0.2,0.03,0.31l-2.35,8.26
						c-0.03,0.1-0.1,0.18-0.2,0.24c-0.1,0.05-0.21,0.07-0.32,0.03c-0.11-0.03-0.2-0.1-0.25-0.2c-0.06-0.1-0.07-0.2-0.04-0.3
						l2.13-7.47l0.23,0.09l-4.67,4.01c-0.04,0.04-0.09,0.07-0.16,0.09c-0.06,0.01-0.13,0.01-0.19,0c-0.06-0.02-0.11-0.05-0.16-0.09
						s-0.08-0.1-0.1-0.16l-1.85-5.93l0.29-0.1l-2.19,7.66c-0.03,0.1-0.09,0.18-0.19,0.24c-0.1,0.06-0.2,0.07-0.31,0.04
						c-0.11-0.03-0.19-0.1-0.24-0.19c-0.05-0.1-0.06-0.2-0.03-0.3l2.35-8.26c0.03-0.09,0.09-0.17,0.19-0.23
						C219.95,40.06,220.06,40.05,220.17,40.08z"/>
					<path class="st0" d="M233.06,52.7c0.11,0.03,0.2,0.1,0.25,0.19c0.06,0.1,0.07,0.2,0.04,0.3c-0.03,0.11-0.1,0.19-0.2,0.24
						c-0.1,0.05-0.2,0.06-0.31,0.03l-4.59-1.31c-0.11-0.03-0.19-0.1-0.24-0.2c-0.05-0.1-0.06-0.2-0.03-0.3l2.35-8.26
						c0.03-0.1,0.1-0.18,0.19-0.24c0.1-0.05,0.21-0.07,0.33-0.03c0.1,0.03,0.18,0.09,0.25,0.2c0.06,0.1,0.07,0.2,0.04,0.31
						l-2.31,8.1l-0.18-0.29L233.06,52.7z"/>
				</g>
			</g>
			<g>
				<g>
					<path class="st0" d="M49.5,400.71c-0.53-0.19-0.96-0.5-1.27-0.95c-0.32-0.44-0.5-0.94-0.56-1.49
						c-0.02-0.09-0.01-0.17,0.01-0.24c0.04-0.11,0.11-0.18,0.22-0.21c0.11-0.03,0.2-0.04,0.29-0.01c0.08,0.03,0.15,0.08,0.19,0.14
						c0.04,0.06,0.07,0.13,0.09,0.2c0.04,0.41,0.16,0.78,0.39,1.1s0.53,0.56,0.92,0.69c0.39,0.14,0.76,0.17,1.11,0.11
						c0.35-0.06,0.66-0.21,0.93-0.45c0.27-0.24,0.48-0.54,0.61-0.92l2.08-5.9c0.04-0.1,0.1-0.18,0.21-0.23
						c0.1-0.05,0.21-0.05,0.33-0.01c0.12,0.04,0.2,0.11,0.24,0.21c0.05,0.1,0.05,0.2,0.01,0.3l-2.08,5.9
						c-0.18,0.52-0.47,0.95-0.85,1.27c-0.38,0.33-0.82,0.53-1.31,0.62C50.56,400.95,50.04,400.9,49.5,400.71z"/>
					<path class="st0" d="M62.01,397.7c0.11,0.04,0.19,0.11,0.23,0.21c0.05,0.1,0.05,0.21,0.01,0.32l-2.01,5.69
						c-0.04,0.1-0.11,0.18-0.21,0.23c-0.1,0.05-0.21,0.06-0.31,0.02c-0.12-0.04-0.2-0.11-0.24-0.21c-0.05-0.1-0.05-0.2-0.01-0.3
						l0.53-1.51l0.26-0.01c-0.08,0.23-0.23,0.44-0.45,0.65c-0.22,0.2-0.48,0.37-0.78,0.49c-0.3,0.13-0.63,0.2-0.98,0.22
						c-0.35,0.02-0.71-0.03-1.08-0.16c-0.57-0.2-1.02-0.53-1.37-0.98c-0.35-0.45-0.56-0.98-0.64-1.59c-0.08-0.61,0-1.23,0.23-1.87
						c0.23-0.66,0.57-1.19,1.01-1.6c0.44-0.41,0.93-0.68,1.48-0.81c0.55-0.13,1.1-0.1,1.66,0.1c0.36,0.13,0.68,0.31,0.95,0.55
						c0.27,0.24,0.49,0.51,0.65,0.81c0.16,0.3,0.25,0.62,0.29,0.95c0.03,0.33-0.01,0.64-0.11,0.95l-0.2-0.28l0.57-1.61
						c0.04-0.11,0.11-0.19,0.21-0.24C61.78,397.66,61.89,397.66,62.01,397.7z M57.3,402.66c0.45,0.16,0.88,0.18,1.31,0.07
						c0.43-0.11,0.81-0.33,1.16-0.67c0.34-0.34,0.6-0.76,0.78-1.27c0.17-0.49,0.23-0.97,0.17-1.44c-0.06-0.47-0.22-0.88-0.48-1.24
						c-0.26-0.35-0.62-0.61-1.07-0.77c-0.44-0.15-0.87-0.18-1.3-0.08c-0.43,0.1-0.81,0.31-1.15,0.64c-0.34,0.33-0.6,0.75-0.78,1.26
						c-0.18,0.51-0.24,1-0.19,1.48c0.05,0.48,0.21,0.89,0.48,1.25C56.5,402.24,56.86,402.5,57.3,402.66z"/>
					<path class="st0" d="M64.27,398.34c0.07,0.02,0.13,0.07,0.18,0.13c0.05,0.07,0.08,0.15,0.09,0.24l0.36,6.05l-0.2,0.04
						l4.16-4.57c0.13-0.15,0.28-0.18,0.45-0.11c0.08,0.03,0.15,0.09,0.21,0.17c0.06,0.09,0.07,0.18,0.03,0.27
						c-0.02,0.05-0.04,0.09-0.06,0.12c-0.02,0.03-0.05,0.06-0.06,0.08l-4.53,4.95c-0.12,0.13-0.26,0.17-0.43,0.12
						c-0.08-0.02-0.15-0.06-0.21-0.14c-0.06-0.07-0.09-0.15-0.09-0.24l-0.45-6.69c0-0.03,0-0.06,0.01-0.1
						c0-0.04,0.01-0.07,0.02-0.11c0.03-0.09,0.1-0.17,0.19-0.22C64.04,398.3,64.15,398.3,64.27,398.34z"/>
					<path class="st0" d="M76.32,402.74c0.11,0.04,0.19,0.11,0.23,0.21c0.05,0.1,0.05,0.21,0.01,0.32l-2.01,5.7
						c-0.04,0.1-0.1,0.18-0.21,0.22c-0.1,0.05-0.2,0.06-0.31,0.02c-0.12-0.04-0.2-0.11-0.25-0.21c-0.04-0.1-0.05-0.2-0.01-0.3
						l0.53-1.51l0.26-0.01c-0.08,0.23-0.23,0.44-0.45,0.65c-0.22,0.2-0.48,0.37-0.78,0.49c-0.3,0.13-0.63,0.2-0.98,0.22
						c-0.35,0.02-0.71-0.03-1.08-0.16c-0.57-0.2-1.02-0.53-1.37-0.98c-0.35-0.46-0.56-0.98-0.64-1.59c-0.08-0.6,0-1.23,0.23-1.87
						c0.23-0.66,0.57-1.19,1-1.6c0.44-0.41,0.93-0.68,1.48-0.81c0.55-0.13,1.1-0.1,1.66,0.1c0.36,0.13,0.68,0.31,0.95,0.55
						s0.49,0.51,0.65,0.81c0.16,0.3,0.25,0.62,0.29,0.95s-0.01,0.64-0.11,0.95l-0.2-0.28l0.57-1.61c0.04-0.11,0.11-0.19,0.2-0.24
						C76.1,402.71,76.2,402.7,76.32,402.74z M71.62,407.7c0.45,0.16,0.88,0.18,1.31,0.07s0.81-0.33,1.16-0.67
						c0.34-0.34,0.6-0.76,0.78-1.27c0.17-0.49,0.23-0.97,0.17-1.44c-0.06-0.47-0.22-0.88-0.48-1.24c-0.26-0.35-0.62-0.61-1.07-0.77
						c-0.44-0.15-0.87-0.18-1.3-0.08c-0.43,0.1-0.81,0.31-1.15,0.64c-0.34,0.33-0.6,0.75-0.78,1.26c-0.18,0.51-0.24,1-0.19,1.48
						c0.05,0.48,0.21,0.89,0.48,1.25C70.81,407.29,71.17,407.54,71.62,407.7z"/>
					<path class="st0" d="M79,411.1c-0.64-0.22-1.17-0.51-1.56-0.89c-0.4-0.37-0.74-0.85-1.02-1.42c-0.03-0.06-0.05-0.12-0.06-0.18
						c-0.01-0.06-0.01-0.13,0.02-0.19c0.04-0.1,0.11-0.18,0.22-0.24c0.11-0.06,0.22-0.07,0.32-0.03c0.1,0.04,0.18,0.11,0.23,0.22
						c0.2,0.47,0.48,0.87,0.83,1.2c0.35,0.33,0.77,0.58,1.25,0.75c0.41,0.14,0.79,0.21,1.15,0.19c0.36-0.01,0.68-0.11,0.94-0.28
						c0.27-0.17,0.46-0.41,0.57-0.72c0.13-0.39,0.13-0.74,0.01-1.05c-0.12-0.31-0.33-0.6-0.62-0.89c-0.29-0.28-0.62-0.56-1-0.82
						c-0.31-0.23-0.6-0.47-0.87-0.71s-0.49-0.5-0.67-0.78c-0.17-0.27-0.28-0.57-0.32-0.9c-0.04-0.33,0.01-0.68,0.15-1.07
						c0.16-0.45,0.42-0.8,0.78-1.07c0.36-0.27,0.79-0.42,1.3-0.47c0.5-0.04,1.04,0.03,1.62,0.24c0.5,0.18,0.95,0.43,1.35,0.76
						c0.4,0.33,0.68,0.71,0.83,1.13c0.08,0.18,0.1,0.32,0.06,0.43c-0.03,0.09-0.11,0.16-0.22,0.21c-0.11,0.05-0.22,0.06-0.32,0.02
						c-0.08-0.03-0.15-0.08-0.18-0.16c-0.08-0.23-0.21-0.45-0.38-0.67c-0.17-0.22-0.37-0.41-0.61-0.58c-0.24-0.17-0.5-0.3-0.79-0.41
						c-0.4-0.14-0.77-0.2-1.13-0.19c-0.36,0.01-0.67,0.1-0.93,0.26c-0.26,0.16-0.45,0.41-0.57,0.74c-0.13,0.35-0.13,0.68,0,0.97
						c0.12,0.29,0.32,0.57,0.6,0.84c0.28,0.26,0.58,0.52,0.9,0.78c0.33,0.23,0.64,0.47,0.92,0.72c0.29,0.25,0.52,0.51,0.71,0.8
						c0.19,0.29,0.31,0.6,0.35,0.95c0.04,0.35-0.01,0.74-0.17,1.19c-0.15,0.43-0.41,0.78-0.78,1.04c-0.37,0.26-0.8,0.42-1.3,0.47
						C80.11,411.36,79.57,411.29,79,411.1z"/>
					<path class="st0" d="M88.64,406.91c0.41,0.15,0.77,0.32,1.08,0.53c0.31,0.21,0.54,0.42,0.69,0.65c0.15,0.23,0.2,0.43,0.14,0.6
						c-0.03,0.08-0.09,0.16-0.18,0.21c-0.09,0.06-0.19,0.07-0.29,0.03c-0.1-0.04-0.17-0.09-0.22-0.16
						c-0.05-0.07-0.09-0.15-0.12-0.24c-0.03-0.09-0.1-0.18-0.2-0.28c-0.09-0.1-0.23-0.2-0.42-0.31c-0.19-0.11-0.42-0.21-0.67-0.3
						c-0.47-0.17-0.94-0.2-1.4-0.1c-0.46,0.1-0.87,0.31-1.23,0.63c-0.36,0.32-0.63,0.73-0.8,1.23c-0.18,0.51-0.24,1-0.17,1.48
						c0.06,0.48,0.24,0.9,0.54,1.26c0.29,0.36,0.69,0.63,1.18,0.81c0.34,0.12,0.61,0.18,0.82,0.19c0.21,0.01,0.39-0.01,0.55-0.03
						c0.19-0.04,0.34-0.09,0.45-0.15c0.11-0.06,0.22-0.07,0.34-0.03c0.1,0.04,0.17,0.09,0.21,0.18c0.04,0.08,0.04,0.18,0,0.28
						c-0.05,0.13-0.2,0.25-0.46,0.34c-0.26,0.09-0.58,0.14-0.97,0.14c-0.39,0-0.81-0.08-1.27-0.24c-0.62-0.22-1.12-0.56-1.5-1.03
						c-0.37-0.46-0.6-1-0.69-1.6c-0.09-0.6-0.02-1.23,0.21-1.87c0.22-0.62,0.55-1.13,1-1.54c0.45-0.41,0.97-0.69,1.56-0.82
						C87.38,406.64,88,406.69,88.64,406.91z"/>
					<path class="st0" d="M90.41,414.98c-0.12-0.04-0.2-0.11-0.25-0.21s-0.05-0.2-0.01-0.3l2-5.67c0.04-0.1,0.1-0.18,0.21-0.23
						c0.1-0.05,0.21-0.05,0.32-0.02c0.11,0.04,0.19,0.11,0.23,0.21c0.05,0.1,0.05,0.2,0.01,0.3l-0.67,1.9l-0.2-0.03
						c0.13-0.29,0.31-0.55,0.53-0.8c0.22-0.25,0.49-0.46,0.78-0.63c0.3-0.17,0.62-0.28,0.96-0.33c0.35-0.05,0.7-0.01,1.06,0.12
						c0.15,0.05,0.29,0.14,0.41,0.25c0.12,0.12,0.16,0.24,0.11,0.39c-0.04,0.13-0.11,0.21-0.2,0.26c-0.09,0.04-0.18,0.05-0.28,0.02
						c-0.08-0.03-0.15-0.08-0.22-0.15c-0.07-0.07-0.18-0.14-0.33-0.19c-0.24-0.08-0.5-0.1-0.78-0.04c-0.29,0.05-0.57,0.17-0.84,0.33
						c-0.28,0.17-0.52,0.38-0.74,0.63c-0.22,0.25-0.38,0.52-0.48,0.82l-1.1,3.13c-0.04,0.1-0.1,0.18-0.21,0.22
						C90.61,415.01,90.51,415.01,90.41,414.98z"/>
					<path class="st0" d="M95.77,416.44c-0.04,0.1-0.1,0.18-0.21,0.23c-0.1,0.05-0.21,0.06-0.31,0.02c-0.12-0.04-0.2-0.11-0.24-0.21
						c-0.04-0.1-0.04-0.2-0.01-0.3l2.05-5.82c0.04-0.1,0.1-0.18,0.2-0.23c0.1-0.05,0.2-0.06,0.31-0.02
						c0.11,0.04,0.19,0.11,0.23,0.21c0.04,0.1,0.05,0.2,0.01,0.3L95.77,416.44z M97.87,409.26c-0.18-0.06-0.3-0.15-0.36-0.26
						s-0.06-0.24-0.01-0.39l0.04-0.13c0.05-0.15,0.14-0.25,0.27-0.3c0.13-0.05,0.27-0.04,0.44,0.02c0.16,0.06,0.27,0.14,0.33,0.25
						c0.06,0.11,0.06,0.24,0.01,0.4l-0.04,0.13c-0.05,0.15-0.14,0.25-0.26,0.3C98.18,409.32,98.04,409.32,97.87,409.26z"/>
					<path class="st0" d="M102.98,412.08c0.57,0.2,1.03,0.52,1.38,0.96c0.34,0.44,0.56,0.95,0.65,1.54c0.09,0.58,0.02,1.2-0.21,1.84
						c-0.23,0.64-0.56,1.16-0.99,1.57c-0.44,0.41-0.93,0.67-1.48,0.8c-0.55,0.13-1.1,0.1-1.66-0.1c-0.3-0.1-0.56-0.25-0.79-0.43
						c-0.23-0.18-0.43-0.39-0.6-0.62c-0.17-0.23-0.3-0.48-0.39-0.74c-0.1-0.27-0.15-0.54-0.17-0.81L99,416l-1.39,3.94
						c-0.04,0.1-0.1,0.18-0.2,0.23c-0.1,0.05-0.2,0.06-0.31,0.02s-0.19-0.11-0.24-0.21c-0.05-0.1-0.06-0.21-0.02-0.31l2.91-8.25
						c0.04-0.11,0.11-0.19,0.2-0.24c0.1-0.05,0.21-0.05,0.33-0.01c0.11,0.04,0.19,0.11,0.23,0.21c0.04,0.1,0.05,0.21,0.01,0.32
						l-0.48,1.37l-0.14-0.16c0.18-0.23,0.38-0.42,0.62-0.57c0.24-0.15,0.49-0.26,0.76-0.33c0.27-0.07,0.55-0.1,0.84-0.08
						C102.41,411.92,102.69,411.98,102.98,412.08z M102.67,412.77c-0.46-0.16-0.9-0.19-1.32-0.09c-0.42,0.1-0.8,0.31-1.14,0.62
						c-0.33,0.31-0.59,0.72-0.77,1.23c-0.18,0.5-0.23,0.98-0.18,1.45c0.06,0.47,0.22,0.87,0.49,1.22c0.27,0.35,0.63,0.6,1.09,0.76
						c0.45,0.16,0.88,0.18,1.3,0.08c0.42-0.1,0.8-0.32,1.14-0.64c0.34-0.33,0.59-0.74,0.77-1.24c0.18-0.5,0.23-0.98,0.17-1.43
						c-0.06-0.46-0.22-0.86-0.49-1.2C103.47,413.17,103.11,412.92,102.67,412.77z"/>
					<path class="st0" d="M109.01,412.28c0.11,0.04,0.19,0.11,0.23,0.21c0.04,0.1,0.05,0.2,0.01,0.3l-2.24,6.35
						c-0.08,0.24-0.11,0.42-0.09,0.57c0.02,0.14,0.08,0.25,0.16,0.32c0.09,0.07,0.18,0.13,0.28,0.17c0.07,0.02,0.13,0.03,0.19,0.03
						c0.06,0,0.13,0.01,0.2,0.03c0.08,0.03,0.13,0.08,0.16,0.16c0.03,0.08,0.03,0.16,0,0.26c-0.04,0.12-0.15,0.19-0.31,0.23
						c-0.16,0.03-0.34,0.02-0.52-0.05c-0.08-0.03-0.19-0.07-0.33-0.14c-0.15-0.07-0.29-0.17-0.42-0.3
						c-0.13-0.14-0.22-0.33-0.26-0.57s0.01-0.55,0.14-0.93l2.25-6.39c0.04-0.1,0.11-0.18,0.21-0.23
						C108.79,412.25,108.9,412.25,109.01,412.28z M107.08,413.61l2.95,1.04c0.1,0.04,0.17,0.1,0.22,0.2c0.04,0.1,0.05,0.19,0.01,0.3
						c-0.04,0.1-0.1,0.17-0.19,0.22c-0.09,0.04-0.19,0.05-0.29,0.01l-2.95-1.04c-0.1-0.04-0.17-0.1-0.22-0.2
						c-0.05-0.1-0.05-0.2-0.02-0.3c0.04-0.1,0.1-0.17,0.2-0.22C106.88,413.58,106.98,413.57,107.08,413.61z"/>
				</g>
			</g>
			<g>
				<g>
					<path class="st0" d="M79.09,176.14c-0.97-0.31-1.69-0.85-2.16-1.64c-0.47-0.78-0.71-1.72-0.72-2.82
						c-0.01-1.1,0.18-2.26,0.57-3.48c0.39-1.24,0.91-2.3,1.55-3.18c0.64-0.88,1.38-1.51,2.22-1.88c0.84-0.37,1.74-0.4,2.71-0.09
						c0.99,0.32,1.72,0.87,2.19,1.65c0.46,0.78,0.7,1.72,0.72,2.81c0.01,1.09-0.18,2.26-0.57,3.49c-0.39,1.22-0.91,2.28-1.55,3.17
						c-0.64,0.89-1.38,1.52-2.21,1.89C80.99,176.43,80.08,176.46,79.09,176.14z M79.44,175.02c0.71,0.23,1.38,0.19,2-0.1
						s1.18-0.81,1.69-1.56c0.5-0.74,0.93-1.65,1.27-2.73c0.35-1.09,0.53-2.08,0.54-2.97c0.02-0.89-0.14-1.63-0.48-2.23
						c-0.34-0.6-0.86-1.02-1.58-1.24c-0.7-0.22-1.37-0.19-1.99,0.11c-0.62,0.3-1.19,0.81-1.69,1.54c-0.51,0.73-0.93,1.65-1.28,2.73
						c-0.34,1.08-0.52,2.07-0.53,2.96c-0.01,0.9,0.15,1.65,0.49,2.25C78.22,174.38,78.74,174.79,79.44,175.02z"/>
					<path class="st0" d="M89.9,179.59c-0.97-0.31-1.69-0.86-2.16-1.64c-0.47-0.78-0.71-1.72-0.72-2.82
						c-0.01-1.1,0.18-2.26,0.57-3.48c0.39-1.24,0.91-2.29,1.55-3.18s1.38-1.51,2.22-1.88c0.84-0.37,1.74-0.4,2.71-0.09
						c0.99,0.32,1.72,0.87,2.19,1.65c0.46,0.78,0.7,1.72,0.72,2.81c0.01,1.09-0.18,2.26-0.57,3.49c-0.39,1.22-0.91,2.28-1.55,3.17
						c-0.64,0.89-1.38,1.52-2.21,1.89C91.81,179.88,90.89,179.9,89.9,179.59z M90.26,178.46c0.71,0.23,1.38,0.19,2-0.1
						c0.62-0.3,1.18-0.81,1.69-1.56c0.5-0.74,0.93-1.65,1.27-2.73c0.35-1.09,0.53-2.08,0.54-2.97c0.02-0.89-0.14-1.63-0.48-2.23
						c-0.34-0.6-0.86-1.02-1.58-1.24c-0.7-0.22-1.37-0.19-1.99,0.11c-0.62,0.3-1.19,0.81-1.69,1.54c-0.51,0.73-0.93,1.64-1.28,2.73
						c-0.34,1.08-0.52,2.07-0.53,2.96c-0.01,0.9,0.15,1.65,0.49,2.25C89.04,177.82,89.56,178.23,90.26,178.46z"/>
					<path class="st0" d="M99.14,182.33c-0.16-0.05-0.28-0.15-0.36-0.29c-0.08-0.15-0.1-0.29-0.05-0.44l3.48-10.94l0.14,0.25
						l-2.93,0.71c-0.08,0.01-0.17,0-0.27-0.03c-0.17-0.05-0.29-0.16-0.36-0.32c-0.07-0.16-0.08-0.3-0.04-0.42
						c0.06-0.19,0.21-0.32,0.44-0.38l3.66-0.86c0.14-0.03,0.3-0.02,0.47,0.05c0.13,0.05,0.22,0.15,0.28,0.28
						c0.06,0.13,0.06,0.27,0.02,0.42l-3.7,11.63c-0.05,0.15-0.14,0.25-0.29,0.33C99.47,182.37,99.31,182.38,99.14,182.33z"/>
					<path class="st0" d="M106.77,184.96c-0.97-0.31-1.69-0.86-2.16-1.64c-0.47-0.78-0.71-1.72-0.72-2.82
						c-0.01-1.1,0.18-2.26,0.57-3.48c0.39-1.24,0.91-2.29,1.55-3.18s1.38-1.51,2.22-1.88c0.84-0.37,1.74-0.4,2.71-0.09
						c0.99,0.32,1.72,0.87,2.19,1.65c0.46,0.78,0.7,1.72,0.72,2.81c0.01,1.09-0.18,2.26-0.57,3.49c-0.39,1.22-0.91,2.28-1.55,3.17
						c-0.64,0.89-1.38,1.52-2.21,1.89C108.68,185.24,107.76,185.27,106.77,184.96z M107.13,183.83c0.71,0.23,1.38,0.19,2-0.1
						c0.62-0.3,1.18-0.81,1.69-1.56c0.5-0.74,0.93-1.65,1.27-2.73c0.35-1.09,0.53-2.08,0.54-2.97c0.02-0.89-0.14-1.63-0.48-2.23
						c-0.34-0.6-0.86-1.01-1.58-1.24c-0.7-0.22-1.37-0.19-1.99,0.11c-0.62,0.3-1.19,0.81-1.69,1.54c-0.51,0.73-0.93,1.64-1.28,2.73
						c-0.34,1.08-0.52,2.07-0.53,2.96c-0.01,0.9,0.15,1.65,0.49,2.25C105.9,183.19,106.42,183.6,107.13,183.83z"/>
					<path class="st0" d="M116,187.69c-0.16-0.05-0.28-0.15-0.36-0.29c-0.08-0.15-0.1-0.29-0.05-0.44l3.48-10.94l0.14,0.25
						l-2.93,0.71c-0.08,0.01-0.17,0-0.27-0.03c-0.17-0.05-0.29-0.16-0.36-0.32c-0.07-0.16-0.08-0.3-0.04-0.42
						c0.06-0.19,0.21-0.32,0.44-0.38l3.66-0.86c0.14-0.03,0.3-0.02,0.47,0.05c0.13,0.05,0.22,0.15,0.28,0.28
						c0.06,0.13,0.06,0.27,0.02,0.42l-3.7,11.63c-0.05,0.15-0.14,0.25-0.29,0.33C116.33,187.74,116.17,187.75,116,187.69z"/>
					<path class="st0" d="M62.26,189.36c-0.97-0.31-1.69-0.85-2.16-1.64c-0.47-0.78-0.71-1.72-0.72-2.82
						c-0.01-1.1,0.18-2.26,0.57-3.48c0.39-1.24,0.91-2.3,1.55-3.18c0.64-0.88,1.38-1.51,2.22-1.88c0.84-0.37,1.74-0.4,2.71-0.09
						c0.99,0.32,1.72,0.87,2.19,1.65c0.47,0.78,0.71,1.72,0.72,2.81c0.01,1.09-0.18,2.26-0.57,3.49c-0.39,1.22-0.91,2.28-1.55,3.17
						c-0.64,0.89-1.38,1.52-2.21,1.89C64.16,189.65,63.25,189.68,62.26,189.36z M62.61,188.23c0.71,0.23,1.38,0.19,2-0.1
						c0.62-0.3,1.18-0.81,1.69-1.55c0.5-0.74,0.93-1.65,1.27-2.73c0.35-1.09,0.53-2.08,0.54-2.97c0.02-0.89-0.14-1.63-0.48-2.24
						c-0.34-0.6-0.86-1.02-1.58-1.24c-0.7-0.22-1.37-0.19-1.99,0.11c-0.62,0.3-1.19,0.81-1.69,1.54c-0.51,0.73-0.93,1.64-1.28,2.74
						c-0.34,1.08-0.52,2.07-0.53,2.96c-0.01,0.9,0.15,1.65,0.49,2.25C61.39,187.6,61.91,188.01,62.61,188.23z"/>
					<path class="st0" d="M73.07,192.8c-0.97-0.31-1.69-0.86-2.16-1.64c-0.47-0.78-0.71-1.72-0.72-2.82
						c-0.01-1.1,0.18-2.26,0.57-3.48c0.39-1.24,0.91-2.3,1.55-3.18s1.38-1.51,2.22-1.88c0.84-0.37,1.74-0.4,2.71-0.09
						c0.99,0.32,1.72,0.87,2.19,1.65c0.47,0.78,0.7,1.72,0.72,2.81c0.01,1.09-0.18,2.26-0.57,3.49c-0.39,1.22-0.91,2.28-1.55,3.17
						c-0.64,0.89-1.38,1.52-2.21,1.89C74.98,193.09,74.06,193.12,73.07,192.8z M73.43,191.68c0.71,0.23,1.38,0.19,2-0.1
						c0.62-0.29,1.18-0.81,1.69-1.55c0.5-0.74,0.93-1.65,1.27-2.73c0.35-1.09,0.53-2.08,0.54-2.97c0.02-0.89-0.14-1.63-0.48-2.24
						c-0.34-0.6-0.86-1.01-1.58-1.24c-0.7-0.22-1.37-0.19-1.99,0.11s-1.19,0.81-1.69,1.54c-0.51,0.73-0.93,1.64-1.28,2.73
						c-0.34,1.08-0.52,2.07-0.53,2.96c-0.01,0.9,0.15,1.65,0.48,2.25S72.73,191.45,73.43,191.68z"/>
					<path class="st0" d="M82.31,195.54c-0.16-0.05-0.28-0.15-0.36-0.29c-0.08-0.15-0.1-0.29-0.05-0.44l3.48-10.94l0.14,0.25
						l-2.93,0.71c-0.08,0.01-0.17,0-0.27-0.03c-0.17-0.05-0.29-0.16-0.36-0.32c-0.07-0.16-0.08-0.3-0.04-0.42
						c0.06-0.19,0.21-0.32,0.44-0.38l3.66-0.86c0.14-0.03,0.3-0.02,0.46,0.05c0.13,0.05,0.22,0.15,0.28,0.28
						c0.06,0.13,0.06,0.27,0.02,0.42l-3.7,11.63c-0.05,0.15-0.15,0.25-0.29,0.33C82.64,195.59,82.48,195.6,82.31,195.54z"/>
					<path class="st0" d="M89.94,198.17c-0.97-0.31-1.69-0.86-2.16-1.64c-0.47-0.78-0.71-1.72-0.72-2.82
						c-0.01-1.1,0.18-2.26,0.57-3.48c0.39-1.24,0.91-2.3,1.55-3.18c0.64-0.88,1.38-1.51,2.22-1.88c0.84-0.37,1.74-0.4,2.71-0.09
						c0.99,0.32,1.72,0.87,2.19,1.65c0.47,0.78,0.7,1.72,0.72,2.81c0.01,1.09-0.18,2.26-0.57,3.49c-0.39,1.22-0.91,2.28-1.55,3.17
						c-0.64,0.89-1.38,1.52-2.21,1.89C91.85,198.46,90.93,198.49,89.94,198.17z M90.3,197.05c0.71,0.23,1.38,0.19,2-0.1
						c0.62-0.3,1.18-0.81,1.69-1.56c0.5-0.74,0.93-1.65,1.27-2.73c0.35-1.09,0.53-2.08,0.54-2.97c0.02-0.89-0.14-1.63-0.48-2.23
						c-0.34-0.6-0.86-1.02-1.58-1.24c-0.7-0.22-1.37-0.19-1.99,0.11c-0.62,0.3-1.19,0.81-1.69,1.54c-0.51,0.73-0.93,1.64-1.28,2.73
						c-0.34,1.08-0.52,2.07-0.53,2.96c-0.01,0.9,0.15,1.65,0.48,2.25C89.07,196.41,89.59,196.82,90.3,197.05z"/>
					<path class="st0" d="M99.18,200.91c-0.16-0.05-0.28-0.15-0.36-0.29c-0.08-0.15-0.1-0.29-0.05-0.44l3.48-10.94l0.14,0.25
						l-2.93,0.71c-0.08,0.01-0.18,0-0.27-0.03c-0.17-0.05-0.29-0.16-0.36-0.32c-0.07-0.16-0.08-0.3-0.04-0.42
						c0.06-0.19,0.21-0.32,0.44-0.38l3.66-0.86c0.14-0.03,0.3-0.02,0.47,0.05c0.13,0.05,0.22,0.15,0.28,0.28
						c0.06,0.13,0.06,0.27,0.02,0.42l-3.7,11.63c-0.05,0.15-0.15,0.25-0.29,0.33C99.5,200.96,99.35,200.97,99.18,200.91z"/>
					<path class="st0" d="M105.23,202.84c-0.16-0.05-0.28-0.15-0.36-0.29c-0.08-0.15-0.1-0.29-0.05-0.44l3.48-10.94l0.14,0.25
						l-2.93,0.71c-0.08,0.01-0.17,0-0.27-0.03c-0.17-0.05-0.29-0.16-0.36-0.32c-0.07-0.16-0.08-0.3-0.04-0.42
						c0.06-0.19,0.21-0.32,0.44-0.38l3.66-0.86c0.14-0.03,0.3-0.02,0.47,0.05c0.13,0.05,0.22,0.15,0.28,0.28
						c0.06,0.13,0.06,0.27,0.02,0.42l-3.7,11.63c-0.05,0.15-0.14,0.25-0.29,0.33C105.56,202.89,105.4,202.89,105.23,202.84z"/>
					<path class="st0" d="M112.86,205.47c-0.97-0.31-1.69-0.86-2.16-1.64c-0.47-0.78-0.71-1.72-0.72-2.82
						c-0.01-1.1,0.18-2.26,0.57-3.48c0.39-1.24,0.91-2.29,1.55-3.18s1.38-1.51,2.22-1.88c0.84-0.37,1.74-0.4,2.71-0.09
						c0.99,0.32,1.72,0.87,2.19,1.65c0.47,0.78,0.7,1.72,0.72,2.81c0.01,1.09-0.18,2.26-0.57,3.49c-0.39,1.22-0.91,2.28-1.55,3.17
						c-0.64,0.89-1.38,1.52-2.21,1.89C114.77,205.76,113.85,205.79,112.86,205.47z M113.22,204.34c0.71,0.23,1.38,0.19,2-0.1
						c0.62-0.3,1.18-0.81,1.69-1.56c0.5-0.74,0.93-1.65,1.27-2.73c0.35-1.09,0.53-2.08,0.54-2.97c0.02-0.89-0.14-1.63-0.48-2.23
						c-0.34-0.6-0.86-1.02-1.58-1.24c-0.7-0.22-1.37-0.19-1.99,0.11c-0.62,0.3-1.19,0.81-1.69,1.54c-0.51,0.73-0.93,1.64-1.28,2.74
						c-0.34,1.08-0.52,2.07-0.53,2.96c-0.01,0.9,0.15,1.65,0.49,2.25C112,203.71,112.52,204.12,113.22,204.34z"/>
					<path class="st0" d="M122.1,208.21c-0.16-0.05-0.28-0.15-0.36-0.29c-0.08-0.15-0.1-0.29-0.05-0.44l3.48-10.94l0.14,0.25
						l-2.93,0.71c-0.08,0.01-0.17,0-0.27-0.03c-0.17-0.05-0.29-0.16-0.36-0.32c-0.07-0.16-0.08-0.3-0.04-0.42
						c0.06-0.19,0.21-0.32,0.44-0.38l3.66-0.86c0.14-0.03,0.3-0.02,0.47,0.05c0.13,0.05,0.22,0.15,0.28,0.28
						c0.06,0.13,0.06,0.27,0.02,0.42l-3.7,11.63c-0.05,0.15-0.14,0.25-0.29,0.33C122.43,208.25,122.27,208.26,122.1,208.21z"/>
					<path class="st0" d="M67.7,209.67c-0.97-0.31-1.69-0.86-2.16-1.64c-0.47-0.78-0.71-1.73-0.72-2.82
						c-0.01-1.1,0.18-2.26,0.57-3.48c0.39-1.24,0.91-2.29,1.55-3.18s1.38-1.51,2.22-1.88s1.74-0.4,2.71-0.09
						c0.99,0.32,1.72,0.87,2.19,1.65c0.47,0.78,0.7,1.72,0.72,2.81c0.01,1.09-0.18,2.25-0.57,3.49c-0.39,1.22-0.91,2.28-1.55,3.17
						c-0.64,0.89-1.38,1.52-2.21,1.89C69.61,209.96,68.7,209.99,67.7,209.67z M68.06,208.54c0.71,0.23,1.38,0.19,2-0.1
						c0.62-0.3,1.18-0.81,1.69-1.56c0.5-0.74,0.93-1.65,1.27-2.73c0.35-1.09,0.53-2.08,0.54-2.97c0.02-0.89-0.14-1.63-0.48-2.23
						c-0.34-0.6-0.86-1.02-1.58-1.24c-0.7-0.22-1.37-0.19-1.99,0.11c-0.62,0.3-1.19,0.81-1.69,1.54c-0.51,0.73-0.93,1.64-1.28,2.73
						c-0.34,1.08-0.52,2.07-0.53,2.96c-0.01,0.9,0.15,1.65,0.48,2.25C66.84,207.91,67.36,208.32,68.06,208.54z"/>
					<path class="st0" d="M76.94,212.41c-0.16-0.05-0.28-0.15-0.36-0.29c-0.08-0.15-0.1-0.29-0.05-0.44l3.48-10.94l0.14,0.25
						l-2.93,0.71c-0.08,0.01-0.17,0-0.27-0.03c-0.17-0.05-0.29-0.16-0.36-0.32s-0.08-0.3-0.04-0.42c0.06-0.19,0.21-0.32,0.44-0.38
						l3.66-0.86c0.14-0.03,0.3-0.02,0.46,0.05c0.13,0.05,0.22,0.15,0.28,0.28c0.06,0.13,0.06,0.27,0.02,0.42l-3.7,11.63
						c-0.05,0.15-0.15,0.25-0.29,0.33C77.27,212.46,77.11,212.46,76.94,212.41z"/>
					<path class="st0" d="M82.99,214.34c-0.16-0.05-0.28-0.15-0.36-0.29c-0.08-0.15-0.1-0.29-0.05-0.44l3.48-10.94l0.14,0.25
						l-2.93,0.71c-0.08,0.01-0.17,0-0.27-0.03c-0.17-0.05-0.29-0.16-0.36-0.32c-0.07-0.16-0.08-0.3-0.04-0.42
						c0.06-0.19,0.21-0.32,0.44-0.38l3.66-0.86c0.14-0.03,0.3-0.02,0.47,0.05c0.13,0.05,0.22,0.15,0.28,0.28
						c0.06,0.13,0.06,0.27,0.02,0.42l-3.7,11.63c-0.05,0.15-0.14,0.25-0.29,0.33C83.32,214.38,83.16,214.39,82.99,214.34z"/>
					<path class="st0" d="M89.04,216.26c-0.16-0.05-0.28-0.15-0.36-0.29s-0.1-0.29-0.05-0.44l3.48-10.94l0.14,0.25l-2.93,0.71
						c-0.08,0.01-0.17,0-0.27-0.03c-0.17-0.05-0.29-0.16-0.36-0.32s-0.08-0.3-0.04-0.42c0.06-0.19,0.21-0.32,0.44-0.38l3.66-0.86
						c0.14-0.03,0.3-0.02,0.47,0.05c0.13,0.05,0.22,0.15,0.28,0.28c0.06,0.13,0.06,0.27,0.02,0.42l-3.7,11.63
						c-0.05,0.15-0.14,0.25-0.29,0.33C89.37,216.31,89.21,216.32,89.04,216.26z"/>
					<path class="st0" d="M96.68,218.89c-0.97-0.31-1.69-0.85-2.16-1.64s-0.71-1.72-0.72-2.82c-0.01-1.1,0.18-2.26,0.57-3.48
						c0.39-1.24,0.91-2.29,1.55-3.18c0.64-0.88,1.38-1.51,2.22-1.88c0.84-0.37,1.74-0.4,2.71-0.09c0.99,0.32,1.72,0.87,2.19,1.65
						c0.47,0.78,0.7,1.72,0.72,2.81c0.01,1.09-0.18,2.25-0.57,3.49c-0.39,1.22-0.91,2.28-1.55,3.17c-0.64,0.89-1.38,1.52-2.21,1.89
						C98.58,219.18,97.67,219.21,96.68,218.89z M97.04,217.77c0.71,0.23,1.38,0.19,2-0.1c0.62-0.3,1.18-0.81,1.69-1.56
						c0.5-0.74,0.93-1.65,1.27-2.73c0.35-1.09,0.53-2.08,0.54-2.97c0.02-0.89-0.14-1.63-0.48-2.23c-0.34-0.6-0.86-1.02-1.58-1.24
						c-0.7-0.22-1.37-0.19-1.99,0.11c-0.62,0.3-1.19,0.81-1.69,1.54c-0.51,0.73-0.93,1.64-1.28,2.73c-0.34,1.08-0.52,2.07-0.53,2.96
						c-0.01,0.9,0.15,1.65,0.48,2.25C95.81,217.13,96.33,217.54,97.04,217.77z"/>
					<path class="st0" d="M105.91,221.63c-0.16-0.05-0.28-0.15-0.36-0.29c-0.08-0.15-0.1-0.29-0.05-0.44l3.48-10.94l0.14,0.25
						l-2.93,0.71c-0.08,0.01-0.17,0-0.27-0.03c-0.17-0.05-0.29-0.16-0.36-0.32c-0.07-0.16-0.08-0.3-0.04-0.42
						c0.06-0.19,0.21-0.32,0.44-0.38l3.66-0.86c0.14-0.03,0.3-0.02,0.47,0.05c0.13,0.05,0.22,0.15,0.28,0.28
						c0.06,0.13,0.06,0.27,0.02,0.42l-3.7,11.63c-0.05,0.15-0.14,0.25-0.29,0.33S106.08,221.69,105.91,221.63z"/>
				</g>
			</g>
			<g>
				<g>
					<path class="st0" d="M441.64,33.17c-1.28-0.41-2.23-1.13-2.85-2.16c-0.62-1.03-0.94-2.27-0.95-3.72
						c-0.01-1.45,0.24-2.98,0.75-4.59c0.52-1.63,1.2-3.03,2.05-4.19s1.82-1.99,2.93-2.48c1.11-0.48,2.3-0.52,3.58-0.12
						c1.31,0.42,2.27,1.14,2.89,2.17c0.61,1.03,0.93,2.27,0.95,3.71s-0.23,2.98-0.75,4.61c-0.51,1.62-1.2,3.01-2.04,4.18
						c-0.85,1.17-1.82,2-2.92,2.49C444.16,33.56,442.95,33.59,441.64,33.17z M442.11,31.69c0.94,0.3,1.82,0.25,2.64-0.14
						c0.82-0.39,1.56-1.07,2.23-2.05c0.66-0.98,1.22-2.18,1.67-3.6c0.46-1.44,0.7-2.74,0.72-3.92c0.02-1.17-0.19-2.16-0.63-2.95
						c-0.44-0.79-1.14-1.34-2.08-1.64c-0.93-0.29-1.8-0.25-2.62,0.14c-0.82,0.39-1.56,1.07-2.23,2.04
						c-0.67,0.97-1.23,2.17-1.69,3.61c-0.45,1.42-0.69,2.73-0.7,3.91c-0.02,1.18,0.2,2.17,0.64,2.96
						C440.5,30.85,441.19,31.39,442.11,31.69z"/>
					<path class="st0" d="M455.91,37.71c-1.28-0.41-2.23-1.13-2.85-2.16c-0.62-1.03-0.94-2.28-0.95-3.72
						c-0.02-1.45,0.23-2.98,0.75-4.59c0.52-1.63,1.2-3.03,2.05-4.19c0.85-1.17,1.82-1.99,2.93-2.48c1.1-0.48,2.3-0.52,3.58-0.12
						c1.31,0.42,2.27,1.14,2.89,2.17c0.61,1.03,0.93,2.27,0.94,3.71c0.02,1.44-0.23,2.98-0.75,4.61c-0.51,1.62-1.2,3.01-2.04,4.18
						c-0.85,1.17-1.82,2-2.92,2.49C458.42,38.1,457.22,38.13,455.91,37.71z M456.38,36.23c0.94,0.3,1.82,0.26,2.64-0.14
						c0.82-0.39,1.56-1.07,2.23-2.05c0.66-0.98,1.22-2.18,1.67-3.6c0.46-1.44,0.7-2.74,0.72-3.92c0.02-1.17-0.19-2.16-0.63-2.95
						c-0.44-0.79-1.14-1.34-2.08-1.64c-0.93-0.29-1.8-0.25-2.62,0.14c-0.82,0.39-1.56,1.07-2.23,2.04
						c-0.67,0.97-1.23,2.17-1.69,3.61c-0.45,1.42-0.69,2.73-0.7,3.91c-0.02,1.18,0.2,2.17,0.64,2.96
						C454.77,35.39,455.45,35.93,456.38,36.23z"/>
					<path class="st0" d="M468.09,41.33c-0.21-0.07-0.36-0.2-0.47-0.39c-0.11-0.19-0.13-0.38-0.07-0.58l4.59-14.44l0.19,0.32
						l-3.86,0.94c-0.11,0.02-0.23,0.01-0.36-0.04c-0.22-0.07-0.38-0.21-0.47-0.43c-0.09-0.21-0.11-0.4-0.06-0.56
						c0.08-0.25,0.27-0.42,0.58-0.5l4.82-1.13c0.19-0.05,0.39-0.02,0.61,0.06c0.17,0.07,0.29,0.2,0.37,0.37
						c0.08,0.17,0.08,0.36,0.02,0.55l-4.88,15.35c-0.06,0.19-0.19,0.34-0.39,0.43C468.53,41.39,468.32,41.4,468.09,41.33z"/>
					<path class="st0" d="M478.16,44.8c-1.28-0.41-2.23-1.13-2.85-2.16c-0.62-1.03-0.94-2.28-0.95-3.72
						c-0.01-1.45,0.24-2.98,0.75-4.59c0.52-1.63,1.2-3.03,2.05-4.19c0.85-1.17,1.82-1.99,2.93-2.48c1.1-0.48,2.3-0.52,3.58-0.12
						c1.31,0.42,2.27,1.14,2.89,2.17c0.61,1.03,0.93,2.27,0.95,3.71c0.02,1.44-0.23,2.98-0.75,4.61c-0.51,1.62-1.2,3.01-2.04,4.18
						c-0.85,1.17-1.82,2-2.92,2.49C480.67,45.18,479.47,45.21,478.16,44.8z M478.63,43.31c0.94,0.3,1.82,0.26,2.64-0.14
						c0.82-0.39,1.56-1.07,2.23-2.05c0.66-0.98,1.22-2.18,1.67-3.6c0.46-1.44,0.7-2.74,0.72-3.92c0.02-1.17-0.19-2.16-0.63-2.95
						c-0.44-0.79-1.14-1.34-2.08-1.64c-0.93-0.29-1.8-0.25-2.62,0.14c-0.82,0.39-1.56,1.07-2.23,2.04s-1.23,2.17-1.69,3.61
						c-0.45,1.42-0.69,2.73-0.7,3.91c-0.02,1.18,0.2,2.17,0.64,2.96C477.02,42.47,477.71,43.02,478.63,43.31z"/>
					<path class="st0" d="M490.34,48.41c-0.21-0.07-0.36-0.2-0.47-0.39c-0.11-0.19-0.13-0.38-0.07-0.58l4.59-14.44l0.19,0.32
						l-3.86,0.94c-0.11,0.02-0.23,0.01-0.36-0.04c-0.22-0.07-0.38-0.21-0.47-0.43c-0.09-0.21-0.11-0.4-0.06-0.56
						c0.08-0.26,0.28-0.42,0.58-0.5l4.82-1.13c0.19-0.04,0.4-0.02,0.61,0.06c0.17,0.07,0.29,0.2,0.37,0.37
						c0.08,0.17,0.08,0.36,0.02,0.55l-4.88,15.35c-0.06,0.19-0.19,0.34-0.39,0.43C490.78,48.47,490.57,48.48,490.34,48.41z"/>
					<path class="st0" d="M419.44,50.61c-1.28-0.41-2.23-1.13-2.85-2.16c-0.62-1.03-0.94-2.28-0.95-3.72
						c-0.01-1.45,0.24-2.98,0.75-4.59c0.52-1.63,1.2-3.03,2.05-4.19s1.82-1.99,2.93-2.48c1.11-0.48,2.3-0.52,3.58-0.12
						c1.31,0.42,2.27,1.14,2.89,2.17s0.93,2.27,0.95,3.71c0.02,1.44-0.23,2.98-0.75,4.61c-0.51,1.61-1.2,3.01-2.04,4.18
						c-0.85,1.17-1.82,2-2.92,2.49C421.96,50.99,420.75,51.03,419.44,50.61z M419.91,49.12c0.94,0.3,1.83,0.26,2.65-0.14
						c0.82-0.39,1.56-1.07,2.22-2.05c0.66-0.98,1.22-2.18,1.67-3.6c0.46-1.44,0.7-2.74,0.72-3.92c0.02-1.17-0.19-2.16-0.63-2.95
						c-0.44-0.79-1.14-1.34-2.08-1.64c-0.93-0.29-1.8-0.25-2.62,0.14c-0.82,0.39-1.56,1.07-2.23,2.04s-1.23,2.17-1.69,3.61
						c-0.45,1.42-0.69,2.73-0.7,3.91c-0.01,1.18,0.2,2.17,0.64,2.96C418.3,48.28,418.99,48.83,419.91,49.12z"/>
					<path class="st0" d="M433.71,55.15c-1.28-0.41-2.23-1.13-2.85-2.16c-0.62-1.03-0.94-2.28-0.95-3.72
						c-0.01-1.45,0.24-2.98,0.75-4.59c0.52-1.63,1.2-3.03,2.05-4.19c0.85-1.17,1.82-1.99,2.93-2.47c1.11-0.48,2.3-0.52,3.58-0.12
						c1.31,0.42,2.27,1.14,2.89,2.17c0.61,1.03,0.93,2.27,0.95,3.71c0.02,1.44-0.23,2.98-0.75,4.61c-0.51,1.62-1.2,3.01-2.04,4.18
						c-0.85,1.17-1.82,2-2.92,2.49C436.22,55.53,435.02,55.57,433.71,55.15z M434.18,53.67c0.94,0.3,1.82,0.25,2.64-0.14
						c0.82-0.39,1.56-1.07,2.22-2.05c0.66-0.98,1.22-2.18,1.67-3.6c0.46-1.44,0.7-2.74,0.72-3.92c0.02-1.17-0.19-2.16-0.63-2.95
						c-0.44-0.79-1.14-1.34-2.08-1.64c-0.93-0.29-1.8-0.25-2.62,0.14c-0.82,0.39-1.56,1.07-2.23,2.04
						c-0.67,0.97-1.23,2.17-1.69,3.61c-0.45,1.42-0.69,2.73-0.7,3.91c-0.01,1.18,0.2,2.17,0.64,2.96
						C432.57,52.83,433.25,53.37,434.18,53.67z"/>
					<path class="st0" d="M445.89,58.77c-0.21-0.07-0.36-0.2-0.47-0.39c-0.11-0.19-0.13-0.38-0.07-0.58l4.59-14.44l0.19,0.32
						l-3.86,0.94c-0.11,0.02-0.23,0.01-0.36-0.04c-0.22-0.07-0.38-0.21-0.47-0.43c-0.09-0.21-0.11-0.4-0.06-0.56
						c0.08-0.26,0.28-0.42,0.58-0.5l4.82-1.13c0.19-0.04,0.39-0.02,0.61,0.06c0.17,0.07,0.29,0.2,0.37,0.37s0.08,0.36,0.02,0.55
						l-4.88,15.35c-0.06,0.19-0.19,0.33-0.39,0.43C446.33,58.82,446.12,58.84,445.89,58.77z"/>
					<path class="st0" d="M455.96,62.23c-1.28-0.41-2.23-1.13-2.85-2.16c-0.62-1.03-0.94-2.27-0.95-3.72
						c-0.01-1.45,0.24-2.98,0.75-4.59c0.52-1.63,1.2-3.03,2.05-4.19c0.85-1.17,1.82-1.99,2.93-2.47c1.1-0.48,2.3-0.52,3.58-0.12
						c1.31,0.42,2.27,1.14,2.89,2.17c0.61,1.03,0.93,2.27,0.95,3.71s-0.23,2.98-0.75,4.61c-0.51,1.61-1.2,3.01-2.04,4.18
						c-0.85,1.17-1.82,2-2.92,2.49C458.47,62.62,457.27,62.65,455.96,62.23z M456.43,60.75c0.94,0.3,1.82,0.25,2.64-0.14
						c0.82-0.39,1.56-1.07,2.22-2.05c0.66-0.98,1.22-2.18,1.67-3.6c0.46-1.44,0.7-2.74,0.72-3.92c0.02-1.17-0.19-2.16-0.63-2.95
						c-0.44-0.79-1.14-1.34-2.08-1.64c-0.93-0.29-1.8-0.25-2.62,0.14c-0.82,0.39-1.56,1.07-2.23,2.04
						c-0.67,0.97-1.23,2.17-1.69,3.61c-0.45,1.42-0.69,2.73-0.7,3.91c-0.02,1.18,0.2,2.17,0.64,2.96
						C454.82,59.91,455.5,60.45,456.43,60.75z"/>
					<path class="st0" d="M468.14,65.85c-0.21-0.07-0.36-0.2-0.47-0.39c-0.11-0.19-0.13-0.38-0.07-0.58l4.59-14.44l0.19,0.32
						l-3.86,0.94c-0.11,0.02-0.23,0.01-0.36-0.03c-0.22-0.07-0.38-0.21-0.47-0.43c-0.09-0.21-0.11-0.4-0.06-0.56
						c0.08-0.26,0.27-0.42,0.58-0.5l4.82-1.13c0.19-0.05,0.39-0.02,0.61,0.06c0.17,0.07,0.29,0.2,0.37,0.37
						c0.08,0.17,0.08,0.36,0.02,0.55l-4.88,15.35c-0.06,0.19-0.19,0.34-0.39,0.43C468.58,65.91,468.37,65.92,468.14,65.85z"/>
					<path class="st0" d="M476.13,68.39c-0.21-0.07-0.36-0.2-0.47-0.39c-0.11-0.19-0.13-0.38-0.07-0.58l4.59-14.44l0.19,0.32
						l-3.86,0.94c-0.11,0.02-0.23,0.01-0.36-0.03c-0.22-0.07-0.38-0.21-0.47-0.43c-0.09-0.21-0.11-0.4-0.06-0.56
						c0.08-0.26,0.28-0.42,0.58-0.5l4.82-1.13c0.19-0.04,0.39-0.02,0.61,0.06c0.17,0.07,0.29,0.2,0.37,0.37
						c0.08,0.17,0.08,0.36,0.02,0.55l-4.88,15.35c-0.06,0.19-0.19,0.33-0.39,0.43C476.56,68.45,476.35,68.46,476.13,68.39z"/>
					<path class="st0" d="M486.2,71.86c-1.28-0.41-2.23-1.13-2.85-2.16c-0.62-1.03-0.94-2.28-0.95-3.72
						c-0.02-1.45,0.23-2.98,0.75-4.59c0.52-1.63,1.2-3.03,2.05-4.19c0.85-1.17,1.82-1.99,2.93-2.47c1.11-0.48,2.3-0.52,3.58-0.12
						c1.31,0.42,2.27,1.14,2.89,2.17c0.61,1.03,0.93,2.27,0.95,3.71c0.02,1.44-0.23,2.98-0.75,4.61c-0.51,1.61-1.2,3.01-2.05,4.18
						c-0.85,1.17-1.82,2-2.92,2.49C488.71,72.24,487.51,72.28,486.2,71.86z M486.67,70.37c0.94,0.3,1.82,0.26,2.64-0.14
						c0.82-0.39,1.56-1.07,2.22-2.05s1.22-2.18,1.67-3.6c0.46-1.44,0.7-2.75,0.72-3.92c0.02-1.17-0.19-2.16-0.63-2.95
						c-0.44-0.79-1.14-1.34-2.08-1.64c-0.93-0.29-1.8-0.25-2.62,0.14c-0.82,0.39-1.56,1.07-2.23,2.04
						c-0.67,0.97-1.23,2.17-1.69,3.61c-0.45,1.42-0.69,2.73-0.7,3.91c-0.02,1.18,0.2,2.17,0.64,2.96
						C485.06,69.53,485.74,70.08,486.67,70.37z"/>
					<path class="st0" d="M498.38,75.47c-0.21-0.07-0.37-0.2-0.47-0.39c-0.11-0.19-0.13-0.38-0.07-0.58l4.59-14.44l0.19,0.32
						l-3.86,0.94c-0.11,0.02-0.23,0.01-0.36-0.04c-0.22-0.07-0.38-0.21-0.47-0.43c-0.09-0.21-0.11-0.4-0.06-0.56
						c0.08-0.26,0.27-0.42,0.58-0.5l4.82-1.13c0.19-0.04,0.39-0.02,0.61,0.06c0.17,0.07,0.29,0.2,0.37,0.37s0.08,0.36,0.02,0.55
						l-4.89,15.35c-0.06,0.19-0.19,0.33-0.39,0.43C498.81,75.53,498.6,75.55,498.38,75.47z"/>
					<path class="st0" d="M426.63,77.4c-1.28-0.41-2.23-1.13-2.85-2.16c-0.62-1.03-0.94-2.27-0.95-3.72
						c-0.01-1.45,0.24-2.98,0.75-4.59c0.52-1.63,1.2-3.03,2.05-4.19c0.85-1.17,1.82-1.99,2.93-2.48c1.1-0.48,2.3-0.52,3.58-0.12
						c1.31,0.42,2.27,1.14,2.89,2.17s0.93,2.27,0.95,3.71c0.02,1.44-0.23,2.98-0.75,4.61c-0.51,1.61-1.2,3.01-2.04,4.18
						c-0.85,1.17-1.82,2-2.92,2.49C429.14,77.78,427.94,77.82,426.63,77.4z M427.1,75.91c0.94,0.3,1.82,0.26,2.64-0.14
						c0.82-0.39,1.56-1.07,2.23-2.05c0.66-0.98,1.22-2.18,1.67-3.6c0.46-1.44,0.7-2.74,0.72-3.92c0.02-1.17-0.19-2.16-0.63-2.95
						c-0.44-0.79-1.14-1.34-2.08-1.64c-0.93-0.29-1.8-0.25-2.62,0.14c-0.82,0.39-1.56,1.07-2.23,2.04s-1.23,2.17-1.69,3.61
						c-0.45,1.42-0.69,2.73-0.7,3.91c-0.02,1.18,0.2,2.17,0.64,2.96C425.48,75.08,426.17,75.62,427.1,75.91z"/>
					<path class="st0" d="M438.81,81.02c-0.21-0.07-0.37-0.2-0.47-0.39c-0.11-0.19-0.13-0.38-0.07-0.58l4.59-14.44l0.19,0.32
						l-3.86,0.94c-0.11,0.02-0.23,0.01-0.36-0.03c-0.22-0.07-0.38-0.21-0.47-0.43c-0.09-0.21-0.11-0.4-0.06-0.56
						c0.08-0.26,0.28-0.42,0.58-0.5l4.82-1.13c0.19-0.04,0.4-0.02,0.61,0.06c0.17,0.07,0.29,0.2,0.37,0.37
						c0.08,0.17,0.08,0.36,0.02,0.55l-4.88,15.35c-0.06,0.19-0.19,0.33-0.39,0.43C439.24,81.07,439.03,81.09,438.81,81.02z"/>
					<path class="st0" d="M446.79,83.56c-0.21-0.07-0.37-0.2-0.47-0.39c-0.11-0.19-0.13-0.38-0.07-0.58l4.59-14.44l0.19,0.32
						l-3.86,0.94c-0.11,0.02-0.23,0.01-0.36-0.03c-0.22-0.07-0.38-0.21-0.47-0.43c-0.09-0.21-0.11-0.4-0.06-0.56
						c0.08-0.26,0.27-0.42,0.58-0.5l4.82-1.13c0.19-0.05,0.39-0.02,0.61,0.06c0.17,0.07,0.29,0.2,0.37,0.37
						c0.08,0.17,0.08,0.36,0.02,0.55l-4.88,15.35c-0.06,0.19-0.19,0.34-0.39,0.43C447.23,83.62,447.02,83.63,446.79,83.56z"/>
					<path class="st0" d="M454.78,86.1c-0.21-0.07-0.37-0.2-0.47-0.39c-0.11-0.19-0.13-0.38-0.07-0.58l4.59-14.44l0.19,0.32
						l-3.86,0.94c-0.11,0.02-0.23,0.01-0.36-0.04c-0.22-0.07-0.38-0.21-0.47-0.43c-0.09-0.21-0.11-0.4-0.06-0.56
						c0.08-0.26,0.27-0.42,0.58-0.5l4.82-1.13c0.19-0.04,0.39-0.02,0.61,0.06c0.17,0.07,0.29,0.2,0.37,0.37
						c0.08,0.17,0.08,0.36,0.02,0.55l-4.88,15.35c-0.06,0.19-0.19,0.33-0.39,0.43C455.21,86.16,455,86.17,454.78,86.1z"/>
					<path class="st0" d="M464.85,89.57c-1.28-0.41-2.23-1.13-2.85-2.16c-0.62-1.03-0.94-2.27-0.95-3.72
						c-0.01-1.45,0.24-2.98,0.75-4.59c0.52-1.63,1.2-3.03,2.05-4.19c0.85-1.17,1.82-1.99,2.93-2.48c1.1-0.48,2.3-0.52,3.58-0.12
						c1.31,0.42,2.27,1.14,2.89,2.17c0.61,1.03,0.93,2.27,0.95,3.71c0.02,1.44-0.23,2.98-0.75,4.61c-0.51,1.62-1.2,3.01-2.04,4.18
						c-0.85,1.17-1.82,2-2.92,2.49C467.36,89.95,466.16,89.99,464.85,89.57z M465.32,88.08c0.94,0.3,1.82,0.25,2.64-0.14
						c0.82-0.39,1.56-1.07,2.23-2.05c0.66-0.98,1.22-2.18,1.67-3.6c0.46-1.44,0.7-2.74,0.72-3.92c0.02-1.17-0.19-2.16-0.63-2.95
						c-0.44-0.79-1.13-1.34-2.08-1.64c-0.93-0.29-1.8-0.25-2.62,0.14c-0.82,0.39-1.56,1.07-2.23,2.04
						c-0.67,0.97-1.23,2.17-1.69,3.61c-0.45,1.42-0.69,2.73-0.7,3.91c-0.02,1.18,0.2,2.17,0.64,2.96
						C463.71,87.24,464.39,87.79,465.32,88.08z"/>
					<path class="st0" d="M477.03,93.18c-0.21-0.07-0.37-0.2-0.47-0.39c-0.11-0.19-0.13-0.38-0.07-0.58l4.59-14.44l0.19,0.32
						l-3.86,0.94c-0.11,0.02-0.23,0.01-0.36-0.04c-0.22-0.07-0.38-0.21-0.47-0.43c-0.09-0.21-0.11-0.4-0.06-0.56
						c0.08-0.26,0.28-0.42,0.58-0.5l4.82-1.13c0.19-0.04,0.39-0.02,0.61,0.06c0.17,0.07,0.29,0.2,0.37,0.37
						c0.08,0.17,0.08,0.36,0.02,0.55l-4.88,15.35c-0.06,0.19-0.19,0.33-0.39,0.43C477.46,93.24,477.25,93.25,477.03,93.18z"/>
				</g>
			</g>
			<g>
				<g>
					<circle class="st1" cx="324.94" cy="259.15" r="205.84"/>
				</g>
				<g>
					<g>
						
							<rect x="282.81" y="371.72" transform="matrix(0.8953 -0.4454 0.4454 0.8953 -144.2033 178.7012)" class="st2" width="50.57" height="48.86"/>
						<circle class="st3" cx="308.25" cy="396.14" r="3.87"/>
					</g>
					<g>
						<circle class="st4" cx="449.9" cy="278.25" r="3.72"/>
						<circle class="st5" cx="482.17" cy="262.15" r="8.35"/>
					</g>
					<g>
						<g>
							
								<rect x="257.37" y="252.32" transform="matrix(0.8879 -0.4599 0.4599 0.8879 -84.44 179.9357)" class="st6" width="139.42" height="21.91"/>
							
								<rect x="257.37" y="252.32" transform="matrix(0.4454 0.8953 -0.8953 0.4454 417.1011 -146.8348)" class="st6" width="139.42" height="21.91"/>
						</g>
						<g>
							
								<rect x="300.06" y="260.84" transform="matrix(0.8953 -0.4454 0.4454 0.8953 -83.0288 173.2473)" class="st7" width="54.03" height="4.87"/>
							
								<rect x="300.06" y="260.84" transform="matrix(0.4454 0.8953 -0.8953 0.4454 417.1011 -146.8348)" class="st7" width="54.03" height="4.87"/>
						</g>
						<circle class="st8" cx="326.78" cy="263.5" r="107.33"/>
					</g>
					<g>
						<g>
							<line class="st9" x1="242.79" y1="378.58" x2="253.06" y2="372.94"/>
							<line class="st9" x1="250.53" y1="381" x2="245.32" y2="370.52"/>
						</g>
						<g>
							<line class="st10" x1="215.52" y1="370.33" x2="225.79" y2="364.69"/>
							<line class="st10" x1="223.26" y1="372.75" x2="218.05" y2="362.27"/>
						</g>
						<g>
							<line class="st10" x1="188.35" y1="361.67" x2="198.61" y2="356.04"/>
							<line class="st10" x1="196.09" y1="364.1" x2="190.87" y2="353.61"/>
						</g>
						<g>
							<line class="st11" x1="162.15" y1="352.87" x2="172.41" y2="347.23"/>
							<line class="st11" x1="169.89" y1="355.29" x2="164.67" y2="344.81"/>
						</g>
						<g>
							<line class="st11" x1="134.98" y1="344.21" x2="145.24" y2="338.58"/>
							<line class="st11" x1="142.72" y1="346.64" x2="137.5" y2="336.15"/>
						</g>
					</g>
				</g>
			</g>
		</g>
		<g>
			<polygon class="st12" points="279.82,91.36 284.14,75.1 293.1,86.28 			"/>
			<polygon class="st12" points="301.32,97.86 305.64,81.61 314.61,92.79 			"/>
			<polygon class="st12" points="323.13,104.84 327.45,88.59 336.41,99.76 			"/>
			<polygon class="st13" points="361.77,117.41 366.09,101.16 375.05,112.33 			"/>
		</g>
	</g>
</g>
<g id="Camada_1">
	<g>
		<g>
			<g>
				<path class="st14" d="M142.04,404.9c1.34,0,2.62-0.27,3.57-0.82l138.64-80.04c0.97-0.56,1.51-1.36,1.51-2.23
					c0-1.04-0.76-2.07-2.08-2.83l-88.98-51.37c-2.41-1.39-6.08-1.54-8.18-0.33L47.89,347.32c-0.97,0.56-1.51,1.36-1.51,2.23
					c0,1.04,0.76,2.07,2.08,2.83l88.98,51.37C138.75,404.51,140.44,404.9,142.04,404.9z M145.32,403.57
					c-1.94,1.12-5.34,0.97-7.59-0.33l-88.98-51.37c-1.13-0.65-1.78-1.5-1.78-2.32c0-0.66,0.43-1.27,1.22-1.72l138.64-80.04
					c1.94-1.12,5.34-0.97,7.59,0.33l88.98,51.37c1.13,0.65,1.78,1.5,1.78,2.32c0,0.66-0.43,1.27-1.22,1.72L145.32,403.57z"/>
				<path class="st15" d="M142.04,392.04c1.34,0,2.62-0.27,3.57-0.82l138.64-80.04c0.98-0.56,1.51-1.36,1.51-2.23
					c0-1.04-0.76-2.07-2.08-2.83l-88.98-51.37c-2.41-1.39-6.08-1.54-8.18-0.33L47.89,334.45c-0.97,0.56-1.51,1.36-1.51,2.23
					c0,1.04,0.76,2.07,2.08,2.83l88.98,51.37C138.75,391.65,140.44,392.04,142.04,392.04z M145.32,390.7
					c-1.94,1.12-5.34,0.97-7.59-0.33l-88.98-51.37c-1.13-0.65-1.78-1.5-1.78-2.32c0-0.66,0.43-1.27,1.22-1.72l138.64-80.04
					c1.94-1.12,5.34-0.97,7.59,0.33l88.98,51.37c1.13,0.65,1.78,1.5,1.78,2.32c0,0.66-0.43,1.27-1.22,1.72L145.32,390.7z"/>
				
					<linearGradient id="SVGID_1_" gradientUnits="userSpaceOnUse" x1="73.1233" y1="223.3134" x2="250.7907" y2="223.3134" gradientTransform="matrix(-1 0 0 1 259.2257 0)">
					<stop  offset="0" style="stop-color:#B6246E"/>
					<stop  offset="1" style="stop-color:#F9636B"/>
				</linearGradient>
				<path class="st16" d="M11.21,207.61l138.09-79.73c0.95-0.55,1.94-0.66,2.82-0.4v0l0,0c0,0,0.01,0,0.01,0l2.56,0.89l-0.9,0.21
					c0.36,0.43,0.65,0.96,0.84,1.58l31.23,101.39c0.77,2.51-0.36,5.57-2.53,6.82L45.24,318.11c-0.34,0.19-0.68,0.33-1.02,0.41
					l0.34,0.75l-2.44-0.86l0.01,0c-1-0.4-1.82-1.29-2.22-2.58L8.68,214.44C7.9,211.92,9.04,208.87,11.21,207.61z"/>
				
					<linearGradient id="SVGID_2_" gradientUnits="userSpaceOnUse" x1="107.9802" y1="310.8736" x2="207.7562" y2="310.8736" gradientTransform="matrix(-1 0 0 1 259.2257 0)">
					<stop  offset="0" style="stop-color:#F9636B"/>
					<stop  offset="0.3249" style="stop-color:#B7256E"/>
					<stop  offset="1" style="stop-color:#B6246E"/>
				</linearGradient>
				<path class="st17" d="M50.18,321.9l-0.05,0.06l136.4-78.75c2.01-1.16,5.51-1.01,7.83,0.32l88.13,50.88l2.94-1.12l-0.83,4.12l0,0
					c-0.11,0.62-0.54,1.2-1.32,1.65l-137.66,79.48c-2.01,1.16-5.51,1.01-7.83-0.32l-88.35-51.01c-1.09-0.63-1.72-1.41-1.87-2.18
					l-0.01,0.01l-0.84-4.01L50.18,321.9z"/>
				
					<linearGradient id="SVGID_3_" gradientUnits="userSpaceOnUse" x1="220.9069" y1="299.9435" x2="30.8017" y2="310.0959" gradientTransform="matrix(-1 0 0 1 259.2257 0)">
					<stop  offset="0" style="stop-color:#B6246E"/>
					<stop  offset="1" style="stop-color:#F9636B"/>
				</linearGradient>
				<path class="st18" d="M145.47,374.91l138.64-80.04c2.02-1.17,1.77-3.2-0.57-4.55l-88.98-51.37c-2.33-1.35-5.86-1.49-7.88-0.33
					L48.04,318.66c-2.02,1.17-1.77,3.2,0.57,4.55l88.98,51.37C139.92,375.93,143.45,376.08,145.47,374.91z"/>
				<path class="st7" d="M284.1,292.54l-138.64,80.04c-2.02,1.17-5.55,1.02-7.88-0.33l-88.98-51.37c-0.71-0.41-1.2-0.89-1.52-1.38
					c-0.84,1.16-0.32,2.64,1.52,3.71l88.98,51.37c2.33,1.35,5.86,1.49,7.88,0.33l138.64-80.04c1.41-0.81,1.69-2.04,0.95-3.17
					C284.83,292.01,284.53,292.3,284.1,292.54z"/>
				<path class="st15" d="M47.59,318.94l138.09-79.73c2.17-1.25,3.3-4.31,2.53-6.82L156.98,131c-0.77-2.51-3.16-3.54-5.33-2.28
					L13.56,208.44c-2.17,1.25-3.3,4.31-2.53,6.82l31.23,101.39C43.03,319.17,45.42,320.19,47.59,318.94z"/>
				<path class="st15" d="M45.69,319.77c0.69,0,1.38-0.19,2.05-0.58l138.09-79.73c2.28-1.32,3.48-4.53,2.67-7.17l-31.23-101.39
					c-0.41-1.35-1.27-2.33-2.41-2.78c-1.07-0.42-2.26-0.3-3.35,0.33L13.41,208.18c-2.28,1.32-3.48,4.53-2.67,7.16l31.23,101.39
					c0.41,1.35,1.27,2.33,2.41,2.78C44.81,319.69,45.25,319.77,45.69,319.77z M47.44,318.68c-0.94,0.54-1.95,0.64-2.84,0.29
					c-0.97-0.38-1.7-1.23-2.06-2.4L11.31,215.17c-0.73-2.39,0.34-5.29,2.4-6.48l138.09-79.73c0.94-0.54,1.94-0.64,2.84-0.29
					c0.97,0.38,1.7,1.23,2.06,2.4l31.23,101.39c0.73,2.39-0.34,5.29-2.4,6.48L47.44,318.68z"/>
			</g>
			<g class="st19">
				<path class="st20" d="M214.95,280.19l4.58-2.65c0.37-0.21,0.32-0.58-0.1-0.83l-5.41-3.12c-0.43-0.25-1.07-0.27-1.44-0.06
					l-4.58,2.65c-0.37,0.21-0.32,0.58,0.1,0.83l5.41,3.12C213.94,280.38,214.58,280.41,214.95,280.19z"/>
				<path class="st20" d="M207.87,284.28l4.58-2.65c0.37-0.21,0.32-0.58-0.1-0.83l-5.41-3.12c-0.43-0.25-1.07-0.27-1.44-0.06
					l-4.58,2.65c-0.37,0.21-0.32,0.58,0.1,0.83l5.41,3.12C206.86,284.47,207.5,284.49,207.87,284.28z"/>
				<path class="st20" d="M200.79,288.37l4.58-2.65c0.37-0.21,0.32-0.58-0.1-0.83l-5.41-3.12c-0.43-0.25-1.07-0.27-1.44-0.06
					l-4.58,2.65c-0.37,0.21-0.32,0.58,0.1,0.83l5.41,3.12C199.78,288.56,200.42,288.58,200.79,288.37z"/>
				<path class="st20" d="M191,284.99l4.58-2.65c0.37-0.21,0.32-0.58-0.1-0.83l-4.54-2.62c-0.43-0.25-1.07-0.27-1.44-0.06
					l-4.58,2.65c-0.37,0.21-0.32,0.58,0.1,0.83l4.54,2.62C189.99,285.18,190.63,285.21,191,284.99z"/>
				<path class="st20" d="M183.92,289.08l4.58-2.65c0.37-0.21,0.32-0.58-0.1-0.83l-4.54-2.62c-0.43-0.25-1.07-0.27-1.44-0.06
					l-4.58,2.65c-0.37,0.21-0.32,0.58,0.1,0.83l4.54,2.62C182.91,289.27,183.55,289.29,183.92,289.08z"/>
				<path class="st20" d="M176.84,293.17l4.58-2.65c0.37-0.21,0.32-0.58-0.1-0.83l-4.54-2.62c-0.43-0.25-1.07-0.27-1.44-0.06
					l-4.58,2.65c-0.37,0.21-0.32,0.58,0.1,0.83l4.54,2.62C175.83,293.36,176.47,293.38,176.84,293.17z"/>
				<path class="st20" d="M169.76,297.26l4.58-2.65c0.37-0.21,0.32-0.58-0.1-0.83l-4.54-2.62c-0.42-0.25-1.07-0.27-1.44-0.06
					l-4.58,2.65c-0.37,0.21-0.32,0.58,0.1,0.83l4.54,2.62C168.75,297.44,169.39,297.47,169.76,297.26z"/>
				<path class="st20" d="M162.68,301.35l4.58-2.65c0.37-0.21,0.32-0.58-0.1-0.83l-4.54-2.62c-0.43-0.25-1.07-0.27-1.44-0.06
					l-4.58,2.65c-0.37,0.21-0.32,0.58,0.1,0.83l4.54,2.62C161.67,301.53,162.31,301.56,162.68,301.35z"/>
				<path class="st20" d="M155.6,305.43l4.58-2.65c0.37-0.21,0.32-0.58-0.1-0.83l-4.54-2.62c-0.43-0.25-1.07-0.27-1.44-0.06
					l-4.58,2.65c-0.37,0.21-0.32,0.58,0.1,0.83l4.54,2.62C154.59,305.62,155.23,305.65,155.6,305.43z"/>
				<path class="st20" d="M148.52,309.52l4.58-2.65c0.37-0.21,0.32-0.58-0.1-0.83l-4.54-2.62c-0.43-0.25-1.07-0.27-1.44-0.06
					l-4.58,2.65c-0.37,0.21-0.32,0.58,0.1,0.83l4.54,2.62C147.51,309.71,148.15,309.73,148.52,309.52z"/>
				<path class="st20" d="M141.44,313.61l4.58-2.65c0.37-0.21,0.32-0.58-0.1-0.83l-4.54-2.62c-0.43-0.25-1.07-0.27-1.44-0.06
					l-4.58,2.65c-0.37,0.21-0.32,0.58,0.1,0.83l4.54,2.62C140.42,313.79,141.07,313.82,141.44,313.61z"/>
				<path class="st20" d="M134.36,317.7l4.58-2.65c0.37-0.21,0.32-0.58-0.1-0.83l-4.54-2.62c-0.43-0.25-1.07-0.27-1.44-0.06
					l-4.58,2.65c-0.37,0.21-0.32,0.58,0.1,0.83l4.54,2.62C133.34,317.88,133.99,317.91,134.36,317.7z"/>
				<path class="st20" d="M127.27,321.78l4.58-2.65c0.37-0.21,0.32-0.58-0.1-0.83l-4.54-2.62c-0.43-0.25-1.07-0.27-1.44-0.06
					l-4.58,2.65c-0.37,0.21-0.32,0.58,0.1,0.83l4.54,2.62C126.26,321.97,126.91,322,127.27,321.78z"/>
				<path class="st20" d="M180.57,283.06l4.58-2.65c0.37-0.21,0.32-0.58-0.1-0.83l-4.54-2.62c-0.43-0.25-1.07-0.27-1.44-0.06
					l-4.58,2.65c-0.37,0.21-0.32,0.58,0.1,0.83l4.54,2.62C179.55,283.24,180.2,283.27,180.57,283.06z"/>
				<path class="st20" d="M187.75,278.91l4.58-2.65c0.37-0.21,0.32-0.58-0.1-0.83l-4.54-2.62c-0.43-0.25-1.07-0.27-1.44-0.06
					l-4.58,2.65c-0.37,0.21-0.32,0.58,0.1,0.83l4.54,2.62C186.74,279.1,187.38,279.12,187.75,278.91z"/>
				<path class="st20" d="M194.95,274.75l9.87-5.7c0.37-0.21,0.32-0.58-0.1-0.83l-4.54-2.62c-0.43-0.25-1.07-0.27-1.44-0.06
					l-9.87,5.7c-0.37,0.21-0.32,0.58,0.1,0.83l4.54,2.62C193.94,274.94,194.58,274.97,194.95,274.75z"/>
				<path class="st20" d="M189.92,269.7l8.01-4.63c0.37-0.21,0.32-0.58-0.1-0.83l-4.54-2.62c-0.43-0.25-1.07-0.27-1.44-0.06
					l-8.01,4.63c-0.37,0.21-0.32,0.58,0.1,0.83l4.54,2.62C188.91,269.89,189.55,269.91,189.92,269.7z"/>
				<path class="st20" d="M173.49,287.15l4.58-2.65c0.37-0.21,0.32-0.58-0.1-0.83l-4.54-2.62c-0.43-0.25-1.07-0.27-1.44-0.06
					l-4.58,2.65c-0.37,0.21-0.32,0.58,0.1,0.83l4.54,2.62C172.47,287.33,173.12,287.36,173.49,287.15z"/>
				<path class="st20" d="M166.41,291.23l4.58-2.65c0.37-0.21,0.32-0.58-0.1-0.83l-4.54-2.62c-0.43-0.25-1.07-0.27-1.44-0.06
					l-4.58,2.65c-0.37,0.21-0.32,0.58,0.1,0.83l4.54,2.62C165.39,291.42,166.04,291.45,166.41,291.23z"/>
				<path class="st20" d="M159.32,295.32l4.58-2.65c0.37-0.21,0.32-0.58-0.1-0.83l-4.54-2.62c-0.43-0.25-1.07-0.27-1.44-0.06
					l-4.58,2.65c-0.37,0.21-0.32,0.58,0.1,0.83l4.54,2.62C158.31,295.51,158.96,295.53,159.32,295.32z"/>
				<path class="st20" d="M152.24,299.41l4.58-2.65c0.37-0.21,0.32-0.58-0.1-0.83l-4.54-2.62c-0.43-0.25-1.07-0.27-1.44-0.06
					l-4.58,2.65c-0.37,0.21-0.32,0.58,0.1,0.83l4.54,2.62C151.23,299.6,151.88,299.62,152.24,299.41z"/>
				<path class="st20" d="M145.16,303.5l4.58-2.65c0.37-0.21,0.32-0.58-0.1-0.83l-4.54-2.62c-0.43-0.25-1.07-0.27-1.44-0.06
					l-4.58,2.65c-0.37,0.21-0.32,0.58,0.1,0.83l4.54,2.62C144.15,303.68,144.8,303.71,145.16,303.5z"/>
				<path class="st20" d="M138.08,307.59l4.58-2.65c0.37-0.21,0.32-0.58-0.1-0.83l-4.54-2.62c-0.43-0.25-1.07-0.27-1.44-0.06
					l-4.58,2.65c-0.37,0.21-0.32,0.58,0.1,0.83l4.54,2.62C137.07,307.77,137.72,307.8,138.08,307.59z"/>
				<path class="st20" d="M131,311.67l4.58-2.65c0.37-0.21,0.32-0.58-0.1-0.83l-4.54-2.62c-0.43-0.25-1.07-0.27-1.44-0.06
					l-4.58,2.65c-0.37,0.21-0.32,0.58,0.1,0.83l4.54,2.62C129.99,311.86,130.64,311.89,131,311.67z"/>
				<path class="st20" d="M123.92,315.76l4.58-2.65c0.37-0.21,0.32-0.58-0.1-0.83l-4.54-2.62c-0.43-0.25-1.07-0.27-1.44-0.06
					l-4.58,2.65c-0.37,0.21-0.32,0.58,0.1,0.83l4.54,2.62C122.91,315.95,123.55,315.97,123.92,315.76z"/>
				<path class="st20" d="M116.84,319.85l4.58-2.65c0.37-0.21,0.32-0.58-0.1-0.83l-4.54-2.62c-0.43-0.25-1.07-0.27-1.44-0.06
					l-4.58,2.65c-0.37,0.21-0.32,0.58,0.1,0.83l4.54,2.62C115.83,320.04,116.47,320.06,116.84,319.85z"/>
				<path class="st20" d="M104.26,327.12l10-5.78c0.37-0.21,0.32-0.58-0.1-0.83l-4.54-2.62c-0.43-0.25-1.07-0.27-1.44-0.06l-10,5.78
					c-0.37,0.21-0.32,0.58,0.1,0.83l4.54,2.62C103.24,327.3,103.89,327.33,104.26,327.12z"/>
				<path class="st20" d="M90.47,319.16l8.44-4.87c0.37-0.21,0.32-0.58-0.1-0.83l-4.54-2.62c-0.43-0.25-1.07-0.27-1.44-0.06
					l-8.44,4.87c-0.37,0.21-0.32,0.58,0.1,0.83l4.54,2.62C89.46,319.34,90.1,319.37,90.47,319.16z"/>
				<path class="st20" d="M161.09,286.35l4.58-2.65c0.37-0.21,0.32-0.58-0.1-0.83l-4.54-2.62c-0.43-0.25-1.07-0.27-1.44-0.06
					l-4.58,2.65c-0.37,0.21-0.32,0.58,0.1,0.83l4.54,2.62C160.08,286.53,160.72,286.56,161.09,286.35z"/>
				<path class="st20" d="M168.34,282.16l4.58-2.65c0.37-0.21,0.32-0.58-0.1-0.83l-4.54-2.62c-0.43-0.25-1.07-0.27-1.44-0.06
					l-4.58,2.65c-0.37,0.21-0.32,0.58,0.1,0.83l4.54,2.62C167.33,282.34,167.97,282.37,168.34,282.16z"/>
				<path class="st20" d="M175.6,277.97l4.58-2.65c0.37-0.21,0.32-0.58-0.1-0.83l-4.54-2.62c-0.43-0.25-1.07-0.27-1.44-0.06
					l-4.58,2.65c-0.37,0.21-0.32,0.58,0.1,0.83l4.54,2.62C174.59,278.15,175.23,278.18,175.6,277.97z"/>
				<path class="st20" d="M182.86,273.78l4.58-2.65c0.37-0.21,0.32-0.58-0.1-0.83l-4.54-2.62c-0.43-0.25-1.07-0.27-1.44-0.06
					l-4.58,2.65c-0.37,0.21-0.32,0.58,0.1,0.83l4.54,2.62C181.84,273.96,182.49,273.99,182.86,273.78z"/>
				<path class="st20" d="M154.01,290.43l4.58-2.65c0.37-0.21,0.32-0.58-0.1-0.83l-4.54-2.62c-0.43-0.25-1.07-0.27-1.44-0.06
					l-4.58,2.65c-0.37,0.21-0.32,0.58,0.1,0.83l4.54,2.62C152.99,290.62,153.64,290.65,154.01,290.43z"/>
				<path class="st20" d="M146.93,294.52l4.58-2.65c0.37-0.21,0.32-0.58-0.1-0.83l-4.54-2.62c-0.43-0.25-1.07-0.27-1.44-0.06
					l-4.58,2.65c-0.37,0.21-0.32,0.58,0.1,0.83l4.54,2.62C145.91,294.71,146.56,294.73,146.93,294.52z"/>
				<path class="st20" d="M139.85,298.61l4.58-2.65c0.37-0.21,0.32-0.58-0.1-0.83l-4.54-2.62c-0.43-0.25-1.07-0.27-1.44-0.06
					l-4.58,2.65c-0.37,0.21-0.32,0.58,0.1,0.83l4.54,2.62C138.83,298.8,139.48,298.82,139.85,298.61z"/>
				<path class="st20" d="M132.76,302.7l4.58-2.65c0.37-0.21,0.32-0.58-0.1-0.83l-4.54-2.62c-0.43-0.25-1.07-0.27-1.44-0.06
					l-4.58,2.65c-0.37,0.21-0.32,0.58,0.1,0.83l4.54,2.62C131.75,302.88,132.4,302.91,132.76,302.7z"/>
				<path class="st20" d="M125.68,306.79l4.58-2.65c0.37-0.21,0.32-0.58-0.1-0.83l-4.54-2.62c-0.43-0.25-1.07-0.27-1.44-0.06
					l-4.58,2.65c-0.37,0.21-0.32,0.58,0.1,0.83l4.54,2.62C124.67,306.97,125.32,307,125.68,306.79z"/>
				<path class="st20" d="M118.6,310.87l4.58-2.65c0.37-0.21,0.32-0.58-0.1-0.83l-4.54-2.62c-0.43-0.25-1.07-0.27-1.44-0.06
					l-4.58,2.65c-0.37,0.21-0.32,0.58,0.1,0.83l4.54,2.62C117.59,311.06,118.24,311.09,118.6,310.87z"/>
				<path class="st20" d="M111.52,314.96l4.58-2.65c0.37-0.21,0.32-0.58-0.1-0.83l-4.54-2.62c-0.43-0.25-1.07-0.27-1.44-0.06
					l-4.58,2.65c-0.37,0.21-0.32,0.58,0.1,0.83l4.54,2.62C110.51,315.15,111.16,315.17,111.52,314.96z"/>
				<path class="st20" d="M104.44,319.05l4.58-2.65c0.37-0.21,0.32-0.58-0.1-0.83l-4.54-2.62c-0.43-0.25-1.07-0.27-1.44-0.06
					l-4.58,2.65c-0.37,0.21-0.32,0.58,0.1,0.83l4.54,2.62C103.43,319.24,104.07,319.26,104.44,319.05z"/>
				<path class="st20" d="M97.36,323.14l4.58-2.65c0.37-0.21,0.32-0.58-0.1-0.83l-4.54-2.62c-0.43-0.25-1.07-0.27-1.44-0.06
					l-4.58,2.65c-0.37,0.21-0.32,0.58,0.1,0.83l4.54,2.62C96.35,323.32,96.99,323.35,97.36,323.14z"/>
				<path class="st20" d="M164.81,276.24l4.58-2.65c0.37-0.21,0.32-0.58-0.1-0.83l-4.54-2.62c-0.43-0.25-1.07-0.27-1.44-0.06
					l-4.58,2.65c-0.37,0.21-0.32,0.58,0.1,0.83l4.54,2.62C163.8,276.42,164.45,276.45,164.81,276.24z"/>
				<path class="st20" d="M171.86,272.17l4.58-2.65c0.37-0.21,0.32-0.58-0.1-0.83l-4.54-2.62c-0.43-0.25-1.07-0.27-1.44-0.06
					l-4.58,2.65c-0.37,0.21-0.32,0.58,0.1,0.83l4.54,2.62C170.85,272.35,171.49,272.38,171.86,272.17z"/>
				<path class="st20" d="M178.91,268.1l4.58-2.65c0.37-0.21,0.32-0.58-0.1-0.83l-4.54-2.62c-0.43-0.25-1.07-0.27-1.44-0.06
					l-4.58,2.65c-0.37,0.21-0.32,0.58,0.1,0.83l4.54,2.62C177.89,268.29,178.54,268.31,178.91,268.1z"/>
				<path class="st20" d="M185.95,264.03l4.58-2.65c0.37-0.21,0.32-0.58-0.1-0.83l-4.54-2.62c-0.43-0.25-1.07-0.27-1.44-0.06
					l-4.58,2.65c-0.37,0.21-0.32,0.58,0.1,0.83l4.54,2.62C184.94,264.22,185.58,264.25,185.95,264.03z"/>
				<path class="st20" d="M178.71,259.85l4.58-2.65c0.37-0.21,0.32-0.58-0.1-0.83l-1.5-0.87c-0.43-0.25-1.07-0.27-1.44-0.06
					l-4.58,2.65c-0.37,0.21-0.32,0.58,0.1,0.83l1.5,0.87C177.69,260.04,178.34,260.06,178.71,259.85z"/>
				<path class="st20" d="M169.51,265.16l4.58-2.65c0.37-0.21,0.32-0.58-0.1-0.83l-1.5-0.87c-0.43-0.25-1.07-0.27-1.44-0.06
					l-4.58,2.65c-0.37,0.21-0.32,0.58,0.1,0.83l1.5,0.87C168.5,265.34,169.14,265.37,169.51,265.16z"/>
				<path class="st20" d="M162.5,269.21l4.58-2.65c0.37-0.21,0.32-0.58-0.1-0.83l-1.5-0.87c-0.43-0.25-1.07-0.27-1.44-0.06
					l-4.58,2.65c-0.37,0.21-0.32,0.58,0.1,0.83l1.5,0.87C161.48,269.39,162.13,269.42,162.5,269.21z"/>
				<path class="st20" d="M155.48,273.26l4.58-2.65c0.37-0.21,0.32-0.58-0.1-0.83l-1.5-0.87c-0.43-0.25-1.07-0.27-1.44-0.06
					l-4.58,2.65c-0.37,0.21-0.32,0.58,0.1,0.83l1.5,0.87C154.47,273.45,155.11,273.47,155.48,273.26z"/>
				<path class="st20" d="M148.46,277.31l4.58-2.65c0.37-0.21,0.32-0.58-0.1-0.83l-1.5-0.87c-0.43-0.25-1.07-0.27-1.44-0.06
					l-4.58,2.65c-0.37,0.21-0.32,0.58,0.1,0.83l1.5,0.87C147.45,277.5,148.1,277.52,148.46,277.31z"/>
				<path class="st20" d="M109.3,299.92l4.58-2.65c0.37-0.21,0.32-0.58-0.1-0.83l-1.5-0.87c-0.43-0.25-1.07-0.27-1.44-0.06
					l-4.58,2.65c-0.37,0.21-0.32,0.58,0.1,0.83l1.5,0.87C108.28,300.11,108.93,300.14,109.3,299.92z"/>
				<path class="st20" d="M102.28,303.97l4.58-2.65c0.37-0.21,0.32-0.58-0.1-0.83l-1.5-0.87c-0.43-0.25-1.07-0.27-1.44-0.06
					l-4.58,2.65c-0.37,0.21-0.32,0.58,0.1,0.83l1.5,0.87C101.27,304.16,101.91,304.19,102.28,303.97z"/>
				<path class="st20" d="M95.26,308.02l4.58-2.65c0.37-0.21,0.32-0.58-0.1-0.83l-1.5-0.87c-0.43-0.25-1.07-0.27-1.44-0.06
					l-4.58,2.65c-0.37,0.21-0.32,0.58,0.1,0.83l1.5,0.87C94.25,308.21,94.9,308.24,95.26,308.02z"/>
				<path class="st20" d="M88.25,312.08l4.58-2.65c0.37-0.21,0.32-0.58-0.1-0.83l-1.5-0.87c-0.43-0.25-1.07-0.27-1.44-0.06
					l-4.58,2.65c-0.37,0.21-0.32,0.58,0.1,0.83l1.5,0.87C87.24,312.26,87.88,312.29,88.25,312.08z"/>
				<path class="st20" d="M157.73,280.32l4.58-2.65c0.37-0.21,0.32-0.58-0.1-0.83l-4.54-2.62c-0.43-0.25-1.07-0.27-1.44-0.06
					l-4.58,2.65c-0.37,0.21-0.32,0.58,0.1,0.83l4.54,2.62C156.72,280.51,157.37,280.54,157.73,280.32z"/>
				<path class="st20" d="M150.65,284.41l4.58-2.65c0.37-0.21,0.32-0.58-0.1-0.83l-4.54-2.62c-0.43-0.25-1.07-0.27-1.44-0.06
					l-4.58,2.65c-0.37,0.21-0.32,0.58,0.1,0.83l4.54,2.62C149.64,284.6,150.29,284.62,150.65,284.41z"/>
				<path class="st20" d="M143.57,288.5l4.58-2.65c0.37-0.21,0.32-0.58-0.1-0.83l-4.54-2.62c-0.43-0.25-1.07-0.27-1.44-0.06
					l-4.58,2.65c-0.37,0.21-0.32,0.58,0.1,0.83l4.54,2.62C142.56,288.68,143.21,288.71,143.57,288.5z"/>
				<path class="st20" d="M136.49,292.59l4.58-2.65c0.37-0.21,0.32-0.58-0.1-0.83l-4.54-2.62c-0.43-0.25-1.07-0.27-1.44-0.06
					l-4.58,2.65c-0.37,0.21-0.32,0.58,0.1,0.83l4.54,2.62C135.48,292.77,136.12,292.8,136.49,292.59z"/>
				<path class="st20" d="M129.41,296.67l4.58-2.65c0.37-0.21,0.32-0.58-0.1-0.83l-4.54-2.62c-0.43-0.25-1.07-0.27-1.44-0.06
					l-4.58,2.65c-0.37,0.21-0.32,0.58,0.1,0.83l4.54,2.62C128.4,296.86,129.04,296.89,129.41,296.67z"/>
				<path class="st20" d="M122.33,300.76l4.58-2.65c0.37-0.21,0.32-0.58-0.1-0.83l-4.54-2.62c-0.43-0.25-1.07-0.27-1.44-0.06
					l-4.58,2.65c-0.37,0.21-0.32,0.58,0.1,0.83l4.54,2.62C121.32,300.95,121.96,300.98,122.33,300.76z"/>
				<path class="st20" d="M115.25,304.85l4.58-2.65c0.37-0.21,0.32-0.58-0.1-0.83l-4.54-2.62c-0.42-0.25-1.07-0.27-1.44-0.06
					l-4.58,2.65c-0.37,0.21-0.32,0.58,0.1,0.83l4.54,2.62C114.24,305.04,114.88,305.06,115.25,304.85z"/>
				<path class="st20" d="M108.17,308.94l4.58-2.65c0.37-0.21,0.32-0.58-0.1-0.83l-4.54-2.62c-0.43-0.25-1.07-0.27-1.44-0.06
					l-4.58,2.65c-0.37,0.21-0.32,0.58,0.1,0.83l4.54,2.62C107.16,309.12,107.8,309.15,108.17,308.94z"/>
				<path class="st20" d="M101.09,313.03l4.58-2.65c0.37-0.21,0.32-0.58-0.1-0.83l-4.54-2.62c-0.43-0.25-1.07-0.27-1.44-0.06
					l-4.58,2.65c-0.37,0.21-0.32,0.58,0.1,0.83l4.54,2.62C100.08,313.21,100.72,313.24,101.09,313.03z"/>
				<path class="st20" d="M198.21,280.83l13.5-7.8c0.37-0.21,0.32-0.58-0.1-0.83l-4.54-2.62c-0.43-0.25-1.07-0.27-1.44-0.06
					l-13.5,7.8c-0.37,0.21-0.32,0.58,0.1,0.83l4.54,2.62C197.2,281.01,197.85,281.04,198.21,280.83z"/>
				<path class="st20" d="M111.23,331.05l13.5-7.8c0.37-0.21,0.32-0.58-0.1-0.83l-4.54-2.62c-0.43-0.25-1.07-0.27-1.44-0.06
					l-13.5,7.8c-0.37,0.21-0.32,0.58,0.1,0.83l4.54,2.62C110.22,331.23,110.86,331.26,111.23,331.05z"/>
				<path class="st20" d="M139.55,323.73l4.58-2.65c0.37-0.21,0.32-0.58-0.1-0.83l-5.41-3.12c-0.43-0.25-1.07-0.27-1.44-0.06
					l-4.58,2.65c-0.37,0.21-0.32,0.58,0.1,0.83l5.41,3.12C138.53,323.92,139.18,323.94,139.55,323.73z"/>
				<path class="st20" d="M190.96,294.04l7.33-4.23c0.37-0.21,0.32-0.58-0.1-0.83l-5.41-3.12c-0.43-0.25-1.07-0.27-1.44-0.06
					l-7.33,4.23c-0.37,0.21-0.32,0.58,0.1,0.83l5.41,3.12C189.95,294.23,190.6,294.26,190.96,294.04z"/>
				<path class="st20" d="M146.37,319.79l7.33-4.23c0.37-0.21,0.32-0.58-0.1-0.83l-5.41-3.12c-0.43-0.25-1.07-0.27-1.44-0.06
					l-7.33,4.23c-0.37,0.21-0.32,0.58,0.1,0.83l5.41,3.12C145.36,319.98,146,320,146.37,319.79z"/>
				<path class="st20" d="M180.75,299.94l7.33-4.23c0.37-0.21,0.32-0.58-0.1-0.83l-5.41-3.12c-0.43-0.25-1.07-0.27-1.44-0.06
					l-7.33,4.23c-0.37,0.21-0.32,0.58,0.1,0.83l5.41,3.12C179.74,300.13,180.38,300.15,180.75,299.94z"/>
				<path class="st20" d="M181.08,291.72l-31.88,18.41c-0.4,0.23-0.4,0.6,0,0.83l5.52,3.19c0.4,0.23,1.04,0.23,1.43,0l31.88-18.41
					L181.08,291.72z"/>
				<path class="st20" d="M119.76,331.14l-5.11,2.95c-0.3,0.17-0.26,0.48,0.08,0.68l2.21,1.28c0.35,0.2,0.88,0.22,1.18,0.05
					l5.11-2.95c0.3-0.17,0.26-0.48-0.08-0.68l-2.21-1.28C120.59,330.99,120.06,330.97,119.76,331.14z"/>
				<path class="st20" d="M126.9,327.02l-5.11,2.95c-0.3,0.17-0.26,0.48,0.08,0.68l2.21,1.28c0.35,0.2,0.88,0.22,1.18,0.05
					l5.11-2.95c0.3-0.17,0.26-0.48-0.08-0.68l-2.21-1.28C127.72,326.87,127.2,326.85,126.9,327.02z"/>
				<path class="st20" d="M133.98,322.93l-5.11,2.95c-0.3,0.17-0.26,0.48,0.08,0.68l2.21,1.28c0.35,0.2,0.88,0.22,1.18,0.05
					l5.11-2.95c0.3-0.17,0.26-0.48-0.08-0.68l-2.21-1.28C134.8,322.78,134.28,322.76,133.98,322.93z"/>
				<path class="st20" d="M122.99,324.76l-5.11,2.95c-0.3,0.17-0.26,0.48,0.08,0.68l2.21,1.28c0.35,0.2,0.88,0.22,1.18,0.05
					l5.11-2.95c0.3-0.17,0.26-0.48-0.08-0.68l-2.21-1.28C123.81,324.61,123.29,324.59,122.99,324.76z"/>
			</g>
			<path class="st21" d="M180.4,338.74c1.21,0,2.37-0.25,3.25-0.76l35.58-20.54c0.92-0.53,1.42-1.28,1.42-2.12
				c0-0.98-0.7-1.94-1.92-2.65l-18.32-10.58c-2.21-1.28-5.46-1.41-7.4-0.29l-35.58,20.54c-0.92,0.53-1.42,1.28-1.42,2.12
				c0,0.98,0.7,1.94,1.92,2.65l18.32,10.57C177.45,338.39,178.96,338.74,180.4,338.74z M183.21,337.24
				c-1.66,0.96-4.6,0.83-6.54-0.29l-18.32-10.57c-0.95-0.55-1.49-1.24-1.49-1.9c0-0.66,0.54-1.11,0.99-1.37l35.58-20.54
				c1.66-0.96,4.6-0.83,6.54,0.29l18.32,10.58c0.95,0.55,1.49,1.24,1.49,1.9c0,0.66-0.54,1.11-0.99,1.37L183.21,337.24z"/>
		</g>
		<g>
			<g>
				<g>
					<path class="st7" d="M137.3,167.41l4.04-2.33c0.37-0.22,0.58-0.74,0.45-1.16l0,0c-0.13-0.43-0.53-0.59-0.91-0.38l-4.04,2.33
						c-0.37,0.22-0.58,0.74-0.45,1.16l0,0C136.52,167.45,136.93,167.62,137.3,167.41z"/>
					<path class="st7" d="M127.68,172.96l5.96-3.44c0.37-0.22,0.58-0.74,0.45-1.16l0,0c-0.13-0.43-0.53-0.59-0.91-0.38l-5.96,3.44
						c-0.37,0.22-0.58,0.74-0.45,1.16l0,0C126.9,173.01,127.31,173.18,127.68,172.96z"/>
					<path class="st7" d="M145.45,185.39l4.04-2.33c0.37-0.22,0.58-0.74,0.45-1.16l0,0c-0.13-0.43-0.53-0.59-0.91-0.38l-4.04,2.33
						c-0.37,0.22-0.58,0.74-0.45,1.16l0,0C144.67,185.44,145.08,185.61,145.45,185.39z"/>
					<path class="st7" d="M136.87,190.34l5.96-3.44c0.37-0.22,0.58-0.74,0.45-1.16l0,0c-0.13-0.43-0.53-0.59-0.91-0.38l-5.96,3.44
						c-0.37,0.22-0.58,0.74-0.45,1.16l0,0C136.09,190.39,136.5,190.56,136.87,190.34z"/>
					<path class="st7" d="M149.41,164.2l2.52-1.46c0.37-0.22,0.58-0.74,0.45-1.16l0,0c-0.13-0.43-0.53-0.59-0.91-0.38l-2.52,1.46
						c-0.37,0.22-0.58,0.74-0.45,1.16l0,0C148.62,164.25,149.03,164.42,149.41,164.2z"/>
					<path class="st7" d="M141.81,172.37l7.71-4.45c0.37-0.22,0.58-0.74,0.45-1.16l0,0c-0.13-0.43-0.53-0.59-0.91-0.38l-7.71,4.45
						c-0.37,0.22-0.58,0.74-0.45,1.16l0,0C141.03,172.41,141.44,172.58,141.81,172.37z"/>
					<path class="st7" d="M148.92,175.82l2.52-1.46c0.37-0.22,0.58-0.74,0.45-1.16l0,0c-0.13-0.43-0.53-0.59-0.91-0.38l-2.52,1.46
						c-0.37,0.22-0.58,0.74-0.45,1.16l0,0C148.14,175.87,148.55,176.04,148.92,175.82z"/>
					<path class="st7" d="M135.94,198.44l6.74-3.89c0.37-0.22,0.58-0.74,0.45-1.16l0,0c-0.13-0.43-0.53-0.59-0.91-0.38l-6.74,3.89
						c-0.37,0.22-0.58,0.74-0.45,1.16l0,0C135.16,198.49,135.57,198.66,135.94,198.44z"/>
					<path class="st7" d="M151.75,181.75l1.62-0.94c0.37-0.22,0.58-0.74,0.45-1.16l0,0c-0.13-0.43-0.53-0.59-0.91-0.38l-1.62,0.94
						c-0.37,0.22-0.58,0.74-0.45,1.16l0,0C150.97,181.8,151.38,181.97,151.75,181.75z"/>
					<path class="st7" d="M153.28,188.43l2.01-1.16c0.37-0.22,0.58-0.74,0.45-1.16l0,0c-0.13-0.43-0.53-0.59-0.91-0.38l-2.01,1.16
						c-0.37,0.22-0.58,0.74-0.45,1.16l0,0C152.5,188.48,152.91,188.65,153.28,188.43z"/>
					<path class="st7" d="M145.46,192.95l5.3-3.06c0.37-0.22,0.58-0.74,0.45-1.16l0,0c-0.13-0.43-0.53-0.59-0.91-0.38l-5.3,3.06
						c-0.37,0.22-0.58,0.74-0.45,1.16l0,0C144.68,193,145.08,193.16,145.46,192.95z"/>
					<path class="st7" d="M152.45,192.7l3.81-2.2c0.37-0.22,0.58-0.74,0.45-1.16l0,0c-0.13-0.43-0.53-0.59-0.91-0.38l-3.81,2.2
						c-0.37,0.22-0.58,0.74-0.45,1.16l0,0C151.66,192.74,152.07,192.91,152.45,192.7z"/>
					<path class="st7" d="M130.16,201.8l2.45-1.41c0.37-0.22,0.58-0.74,0.45-1.16l0,0c-0.13-0.43-0.53-0.59-0.91-0.38l-2.45,1.41
						c-0.37,0.22-0.58,0.74-0.45,1.16l0,0C129.38,201.84,129.79,202.01,130.16,201.8z"/>
					<path class="st7" d="M139.54,181.24l6.74-3.89c0.37-0.22,0.58-0.74,0.45-1.16l0,0c-0.13-0.43-0.53-0.59-0.91-0.38l-6.74,3.89
						c-0.37,0.22-0.58,0.74-0.45,1.16l0,0C138.76,181.29,139.16,181.46,139.54,181.24z"/>
				</g>
				<path class="st7" d="M138.74,177.92l11.75-6.78c0.37-0.22,0.58-0.74,0.45-1.16l0,0c-0.13-0.43-0.53-0.59-0.91-0.38l-11.75,6.78
					c-0.37,0.22-0.58,0.74-0.45,1.16l0,0C137.96,177.97,138.36,178.14,138.74,177.92z"/>
				<path class="st7" d="M145.67,181.48l6.74-3.89c0.37-0.22,0.58-0.74,0.45-1.16l0,0c-0.13-0.43-0.53-0.59-0.91-0.38l-6.74,3.89
					c-0.37,0.22-0.58,0.74-0.45,1.16l0,0C144.89,181.53,145.29,181.7,145.67,181.48z"/>
				<path class="st7" d="M134.42,184.19l2.45-1.41c0.37-0.22,0.58-0.74,0.45-1.16l0,0c-0.13-0.43-0.53-0.59-0.91-0.38l-2.45,1.41
					c-0.37,0.22-0.58,0.74-0.45,1.16l0,0C133.64,184.24,134.05,184.41,134.42,184.19z"/>
				<path class="st7" d="M115.39,180.03l8.63-4.96c0.37-0.22,0.58-0.74,0.45-1.16l0,0c-0.13-0.43-0.53-0.59-0.91-0.38l-8.63,4.96
					c-0.37,0.22-0.58,0.74-0.45,1.16l0,0C114.61,180.08,115.01,180.25,115.39,180.03z"/>
				<path class="st7" d="M146.23,188.72l8.1-4.68c0.37-0.22,0.58-0.74,0.45-1.16l0,0c-0.13-0.43-0.53-0.59-0.91-0.38l-8.1,4.68
					c-0.37,0.22-0.58,0.74-0.45,1.16l0,0C145.45,188.77,145.86,188.94,146.23,188.72z"/>
				<path class="st7" d="M145.01,162.96l5.96-3.44c0.37-0.22,0.58-0.74,0.45-1.16l0,0c-0.13-0.43-0.53-0.59-0.91-0.38l-5.96,3.44
					c-0.37,0.22-0.58,0.74-0.45,1.16l0,0C144.23,163,144.64,163.17,145.01,162.96z"/>
				<path class="st7" d="M153.69,195.76l6.9-3.98c0.37-0.22,0.58-0.74,0.45-1.16l0,0c-0.13-0.43-0.53-0.59-0.91-0.38l-6.9,3.98
					c-0.37,0.22-0.58,0.74-0.45,1.16l0,0C152.91,195.81,153.32,195.97,153.69,195.76z"/>
			</g>
			<g>
				<g>
					<path class="st7" d="M147.87,203.14l4.04-2.33c0.37-0.22,0.58-0.74,0.45-1.16l0,0c-0.13-0.43-0.53-0.59-0.91-0.38l-4.04,2.33
						c-0.37,0.22-0.58,0.74-0.45,1.16l0,0C147.09,203.19,147.49,203.36,147.87,203.14z"/>
					<path class="st7" d="M138.25,208.7l5.96-3.44c0.37-0.22,0.58-0.74,0.45-1.16l0,0c-0.13-0.43-0.53-0.59-0.91-0.38l-5.96,3.44
						c-0.37,0.22-0.58,0.74-0.45,1.16l0,0C137.47,208.75,137.87,208.92,138.25,208.7z"/>
					<path class="st7" d="M156.02,221.13l4.04-2.33c0.37-0.22,0.58-0.74,0.45-1.16l0,0c-0.13-0.43-0.53-0.59-0.91-0.38l-4.04,2.33
						c-0.37,0.22-0.58,0.74-0.45,1.16l0,0C155.23,221.18,155.64,221.35,156.02,221.13z"/>
					<path class="st7" d="M147.44,226.08l5.96-3.44c0.37-0.22,0.58-0.74,0.45-1.16l0,0c-0.13-0.43-0.53-0.59-0.91-0.38l-5.96,3.44
						c-0.37,0.22-0.58,0.74-0.45,1.16l0,0C146.66,226.13,147.06,226.3,147.44,226.08z"/>
					<path class="st7" d="M159.97,199.94l2.52-1.46c0.37-0.22,0.58-0.74,0.45-1.16l0,0c-0.13-0.43-0.53-0.59-0.91-0.38l-2.52,1.46
						c-0.37,0.22-0.58,0.74-0.45,1.16l0,0C159.19,199.99,159.59,200.16,159.97,199.94z"/>
					<path class="st7" d="M152.38,208.1l7.71-4.45c0.37-0.22,0.58-0.74,0.45-1.16l0,0c-0.13-0.43-0.53-0.59-0.91-0.38l-7.71,4.45
						c-0.37,0.22-0.58,0.74-0.45,1.16l0,0C151.6,208.15,152,208.32,152.38,208.1z"/>
					<path class="st7" d="M159.49,211.56l2.52-1.46c0.37-0.22,0.58-0.74,0.45-1.16l0,0c-0.13-0.43-0.53-0.59-0.91-0.38l-2.52,1.46
						c-0.37,0.22-0.58,0.74-0.45,1.16l0,0C158.71,211.61,159.11,211.78,159.49,211.56z"/>
					<path class="st7" d="M146.51,234.18l6.74-3.89c0.37-0.22,0.58-0.74,0.45-1.16l0,0c-0.13-0.43-0.53-0.59-0.91-0.38l-6.74,3.89
						c-0.37,0.22-0.58,0.74-0.45,1.16l0,0C145.73,234.23,146.13,234.4,146.51,234.18z"/>
					<path class="st7" d="M162.32,217.49l1.62-0.94c0.37-0.22,0.58-0.74,0.45-1.16l0,0c-0.13-0.43-0.53-0.59-0.91-0.38l-1.62,0.94
						c-0.37,0.22-0.58,0.74-0.45,1.16l0,0C161.53,217.54,161.94,217.71,162.32,217.49z"/>
					<path class="st7" d="M163.85,224.17l2.01-1.16c0.37-0.22,0.58-0.74,0.45-1.16l0,0c-0.13-0.43-0.53-0.59-0.91-0.38l-2.01,1.16
						c-0.37,0.22-0.58,0.74-0.45,1.16l0,0C163.07,224.22,163.47,224.39,163.85,224.17z"/>
					<path class="st7" d="M156.02,228.69l5.3-3.06c0.37-0.22,0.58-0.74,0.45-1.16l0,0c-0.13-0.43-0.53-0.59-0.91-0.38l-5.3,3.06
						c-0.37,0.22-0.58,0.74-0.45,1.16l0,0C155.24,228.73,155.65,228.9,156.02,228.69z"/>
					<path class="st7" d="M163.01,228.43l3.81-2.2c0.37-0.22,0.58-0.74,0.45-1.16l0,0c-0.13-0.43-0.53-0.59-0.91-0.38l-3.81,2.2
						c-0.37,0.22-0.58,0.74-0.45,1.16l0,0C162.23,228.48,162.63,228.65,163.01,228.43z"/>
					<path class="st7" d="M140.73,237.54l2.45-1.41c0.37-0.22,0.58-0.74,0.45-1.16l0,0c-0.13-0.43-0.53-0.59-0.91-0.38l-2.45,1.41
						c-0.37,0.22-0.58,0.74-0.45,1.16l0,0C139.94,237.58,140.35,237.75,140.73,237.54z"/>
					<path class="st7" d="M150.1,216.98l6.74-3.89c0.37-0.22,0.58-0.74,0.45-1.16l0,0c-0.13-0.43-0.53-0.59-0.91-0.38l-6.74,3.89
						c-0.37,0.22-0.58,0.74-0.45,1.16l0,0C149.32,217.03,149.73,217.2,150.1,216.98z"/>
				</g>
				<path class="st7" d="M149.3,213.66l11.75-6.78c0.37-0.22,0.58-0.74,0.45-1.16l0,0c-0.13-0.43-0.53-0.59-0.91-0.38l-11.75,6.78
					c-0.37,0.22-0.58,0.74-0.45,1.16l0,0C148.52,213.71,148.93,213.88,149.3,213.66z"/>
				<path class="st7" d="M156.23,217.22l6.74-3.89c0.37-0.22,0.58-0.74,0.45-1.16l0,0c-0.13-0.43-0.53-0.59-0.91-0.38l-6.74,3.89
					c-0.37,0.22-0.58,0.74-0.45,1.16l0,0C155.45,217.27,155.86,217.44,156.23,217.22z"/>
				<path class="st7" d="M144.99,219.93l2.45-1.41c0.37-0.22,0.58-0.74,0.45-1.16l0,0c-0.13-0.43-0.53-0.59-0.91-0.38l-2.45,1.41
					c-0.37,0.22-0.58,0.74-0.45,1.16l0,0C144.21,219.98,144.61,220.15,144.99,219.93z"/>
				<path class="st7" d="M156.8,224.46l8.1-4.68c0.37-0.22,0.58-0.74,0.45-1.16l0,0c-0.13-0.43-0.53-0.59-0.91-0.38l-8.1,4.68
					c-0.37,0.22-0.58,0.74-0.45,1.16l0,0C156.01,224.51,156.42,224.68,156.8,224.46z"/>
				<path class="st7" d="M155.57,198.7l5.96-3.44c0.37-0.22,0.58-0.74,0.45-1.16l0,0c-0.13-0.43-0.53-0.59-0.91-0.38l-5.96,3.44
					c-0.37,0.22-0.58,0.74-0.45,1.16l0,0C154.79,198.74,155.2,198.91,155.57,198.7z"/>
				<path class="st7" d="M164.26,231.5l6.9-3.98c0.37-0.22,0.58-0.74,0.45-1.16l0,0c-0.13-0.43-0.53-0.59-0.91-0.38l-6.9,3.98
					c-0.37,0.22-0.58,0.74-0.45,1.16l0,0C163.47,231.54,163.88,231.71,164.26,231.5z"/>
			</g>
		</g>
		<g>
			<path class="st7" d="M54.26,294.47c0.84,0,1.7-0.24,2.52-0.71l64.8-37.42c2.78-1.61,4.26-5.48,3.3-8.63l-18.21-59.66
				c-0.48-1.58-1.49-2.75-2.84-3.28c-1.3-0.51-2.76-0.37-4.11,0.41l-64.8,37.41c-2.78,1.61-4.26,5.48-3.3,8.63l18.21,59.67
				c0.48,1.58,1.49,2.75,2.84,3.28C53.18,294.38,53.71,294.47,54.26,294.47z M56.48,293.25c-1.19,0.69-2.47,0.82-3.6,0.37
				c-1.18-0.46-2.06-1.49-2.49-2.9l-18.21-59.67c-0.89-2.91,0.47-6.47,3.03-7.95l64.8-37.41c1.19-0.69,2.47-0.82,3.6-0.38
				c1.18,0.46,2.06,1.5,2.49,2.9l18.21,59.66c0.89,2.91-0.47,6.47-3.03,7.95L56.48,293.25z"/>
			<g>
				<path class="st7" d="M44.2,243.23c0.59,0,1.2-0.17,1.78-0.5L102.67,210c1.95-1.13,2.99-3.84,2.31-6.05l-2.32-7.6
					c-0.34-1.12-1.06-1.94-2.01-2.32c-0.92-0.36-1.95-0.26-2.91,0.29l-56.69,32.73c-1.95,1.13-2.99,3.84-2.31,6.05l2.32,7.6
					c0.34,1.12,1.06,1.94,2.01,2.32C43.43,243.16,43.81,243.23,44.2,243.23z M99.53,194.42c0.31,0,0.62,0.06,0.91,0.17
					c0.78,0.31,1.37,1,1.66,1.94l2.32,7.6c0.6,1.96-0.32,4.37-2.04,5.36l-56.69,32.73c-0.79,0.46-1.64,0.55-2.4,0.25
					c-0.78-0.31-1.37-1-1.66-1.94l-2.32-7.6c-0.6-1.96,0.32-4.37,2.04-5.36l56.69-32.73C98.52,194.56,99.03,194.42,99.53,194.42z"/>
				<path class="st7" d="M52.12,263.08l10.63-6.14c1.84-1.06,2.82-3.62,2.18-5.7l-2.32-7.6c-0.64-2.09-2.65-2.92-4.49-1.86
					l-10.63,6.14c-1.84,1.06-2.82,3.62-2.18,5.7l2.32,7.6C48.27,263.31,50.28,264.15,52.12,263.08z"/>
				<path class="st7" d="M56.78,284.45c0.59,0,1.2-0.17,1.78-0.5l10.63-6.14c1.95-1.13,2.99-3.84,2.31-6.05l-2.32-7.6
					c-0.34-1.12-1.05-1.94-2.01-2.32c-0.92-0.36-1.96-0.26-2.91,0.29l-10.63,6.14c-1.95,1.13-2.99,3.84-2.31,6.05l2.32,7.6
					c0.34,1.12,1.05,1.94,2.01,2.32C56.01,284.38,56.39,284.45,56.78,284.45z M58.26,283.43c-0.79,0.46-1.64,0.55-2.4,0.25
					c-0.78-0.31-1.37-1-1.66-1.94l-2.32-7.6c-0.6-1.96,0.32-4.37,2.04-5.36l10.63-6.14c0.79-0.46,1.65-0.55,2.4-0.25
					c0.78,0.31,1.37,1,1.66,1.94l2.32,7.6c0.6,1.96-0.32,4.37-2.04,5.36L58.26,283.43z"/>
				<path class="st7" d="M81.58,270.91c0.59,0,1.2-0.17,1.78-0.5l32.08-18.52c1.95-1.13,2.99-3.84,2.32-6.05l-8.81-28.87
					c-0.34-1.12-1.06-1.94-2.01-2.32c-0.92-0.36-1.95-0.26-2.91,0.29l-32.08,18.52c-1.95,1.13-2.99,3.84-2.32,6.05l8.81,28.87
					c0.34,1.12,1.06,1.94,2.01,2.32C80.82,270.84,81.2,270.91,81.58,270.91z M83.07,269.89c-0.79,0.46-1.65,0.55-2.4,0.25
					c-0.78-0.31-1.37-1-1.66-1.94l-8.81-28.87c-0.6-1.96,0.32-4.37,2.04-5.36l32.08-18.52c0.79-0.46,1.64-0.55,2.4-0.25
					c0.78,0.31,1.37,1,1.66,1.94l8.81,28.87c0.6,1.96-0.32,4.37-2.04,5.36L83.07,269.89z"/>
			</g>
		</g>
		<path class="st7" d="M37.19,210.2c0.36,0,0.72-0.1,1.05-0.29c1-0.57,1.46-1.82,1.04-2.78c-0.2-0.45-0.56-0.78-1.03-0.94
			c-0.52-0.17-1.11-0.1-1.63,0.2c-1,0.57-1.46,1.82-1.04,2.78l0,0c0.2,0.45,0.56,0.78,1.03,0.94C36.8,210.17,37,210.2,37.19,210.2z
			 M37.69,206.7c0.14,0,0.27,0.02,0.39,0.06c0.3,0.1,0.54,0.32,0.67,0.61c0.3,0.69-0.05,1.6-0.79,2.03
			c-0.37,0.21-0.79,0.27-1.15,0.15c-0.3-0.1-0.54-0.32-0.67-0.61c-0.3-0.69,0.05-1.6,0.79-2.03
			C37.17,206.77,37.44,206.7,37.69,206.7z"/>
		<path class="st7" d="M32.51,212.88c0.36,0,0.72-0.1,1.05-0.29c1-0.57,1.46-1.82,1.04-2.78c-0.2-0.45-0.56-0.78-1.03-0.94
			c-0.52-0.17-1.11-0.1-1.63,0.2c-1,0.57-1.46,1.82-1.04,2.78c0.2,0.45,0.56,0.78,1.03,0.94C32.12,212.85,32.32,212.88,32.51,212.88
			z M33.01,209.38c0.13,0,0.27,0.02,0.39,0.06c0.3,0.1,0.54,0.32,0.67,0.61c0.3,0.69-0.05,1.6-0.79,2.03
			c-0.37,0.21-0.79,0.27-1.15,0.15c-0.3-0.1-0.54-0.32-0.67-0.61l0,0c-0.3-0.69,0.05-1.6,0.79-2.03
			C32.49,209.45,32.76,209.38,33.01,209.38z"/>
		<path class="st7" d="M26.51,214.41c0.36,0.83,1.36,1.1,2.24,0.6c0.87-0.5,1.28-1.57,0.92-2.4c-0.36-0.83-1.37-1.1-2.24-0.6
			C26.55,212.5,26.14,213.58,26.51,214.41z"/>
	</g>
	<g>
		<g>
			<path class="st14" d="M256.62,258.26c4.37,0,8.74-0.96,12.07-2.88c3.28-1.89,5.08-4.43,5.08-7.13s-1.8-5.24-5.08-7.14
				c-6.65-3.84-17.47-3.84-24.13,0c-3.28,1.89-5.08,4.43-5.08,7.13c0,2.71,1.81,5.24,5.08,7.14l0,0
				C247.89,257.3,252.26,258.26,256.62,258.26z M256.63,238.81c4.26,0,8.52,0.94,11.77,2.81c3.09,1.78,4.79,4.14,4.79,6.62
				c0,2.49-1.7,4.84-4.79,6.62c-6.49,3.75-17.05,3.75-23.54,0l0,0c-3.09-1.78-4.79-4.13-4.79-6.62c0-2.49,1.7-4.84,4.79-6.62
				C248.1,239.75,252.37,238.81,256.63,238.81z"/>
			<path class="st15" d="M256.62,248.53c4.37,0,8.74-0.96,12.06-2.88c3.28-1.89,5.08-4.43,5.08-7.14s-1.8-5.24-5.08-7.13
				c-6.65-3.84-17.48-3.84-24.13,0c-3.28,1.89-5.08,4.43-5.08,7.13s1.81,5.24,5.08,7.14l0,0
				C247.89,247.57,252.26,248.53,256.62,248.53z M256.63,229.08c4.26,0,8.52,0.94,11.77,2.81c3.09,1.78,4.79,4.13,4.79,6.62
				c0,2.49-1.7,4.84-4.79,6.62c-6.49,3.75-17.05,3.75-23.54,0l0,0c-3.09-1.78-4.79-4.13-4.79-6.62c0-2.49,1.7-4.84,4.79-6.62
				C248.1,230.02,252.36,229.08,256.63,229.08z"/>
			<path class="st15" d="M237.06,184.46h39.13l-3.64,42.37l0,0c0,2.35-1.55,4.71-4.66,6.5c-6.22,3.59-16.3,3.59-22.52,0
				c-3.11-1.8-4.66-4.15-4.66-6.5L237.06,184.46z"/>
			<path class="st22" d="M237.06,184.46h39.13l-0.6,6.97c-0.9,1.15-2.1,2.25-3.63,3.26c-7.48,4.96-19.81,5.92-28.23,2.34l1.3,30.99
				c0.06,1.35,0.52,2.66,1.4,3.69c1.27,1.49,3.71,3.25,8.4,4.24c-3.46-0.22-6.82-1.1-9.47-2.63c-3.11-1.8-4.66-4.15-4.66-6.5
				l-2.92-33.98l0,0L237.06,184.46z"/>
			<ellipse class="st23" cx="256.63" cy="184.46" rx="19.57" ry="11.3"/>
			<path class="st23" d="M244.71,187.36c6.58,3.8,17.25,3.8,23.83,0c6.58-3.8,6.58-9.96,0-13.76c-6.58-3.8-17.25-3.8-23.83,0
				C238.13,177.4,238.13,183.56,244.71,187.36z"/>
			
				<linearGradient id="SVGID_4_" gradientUnits="userSpaceOnUse" x1="539.1316" y1="186.2593" x2="499.0652" y2="175.5013" gradientTransform="matrix(-1 0 0 1 782.1379 0)">
				<stop  offset="0" style="stop-color:#B6246E"/>
				<stop  offset="1" style="stop-color:#F9636B"/>
			</linearGradient>
			<path class="st24" d="M235.9,183.93L235.9,183.93l0-0.03c0-0.02,0-0.04,0.01-0.06l0.38-3.79l0.02,0.04
				c0.17-2.87,2.15-5.71,5.94-7.91c7.94-4.59,20.82-4.59,28.77,0c3.89,2.25,5.87,5.18,5.95,8.12l0-0.01l0.36,3.38
				c0.01,0.09,0.02,0.18,0.03,0.26l0.01,0.06l0,0c0.21,3.22-1.8,6.48-6.06,8.93c-8.1,4.68-21.24,4.68-29.34,0
				C237.67,190.45,235.66,187.17,235.9,183.93z"/>
			
				<radialGradient id="SVGID_5_" cx="538.7742" cy="188.213" r="29.8466" gradientTransform="matrix(-1 0 0 1 782.1379 0)" gradientUnits="userSpaceOnUse">
				<stop  offset="0" style="stop-color:#F9636B"/>
				<stop  offset="1" style="stop-color:#B6246E"/>
			</radialGradient>
			<ellipse class="st25" cx="256.63" cy="180.68" rx="16.85" ry="9.73"/>
			<path class="st23" d="M266.54,175.05c-6.58-3.8-17.25-3.8-23.83,0c-0.08,0.05-0.15,0.1-0.24,0.15c0.63-0.57,1.38-1.1,2.23-1.6
				c6.58-3.8,17.25-3.8,23.83,0c6.5,3.75,6.57,9.8,0.24,13.61C273,183.44,272.26,178.36,266.54,175.05z"/>
			
				<linearGradient id="SVGID_6_" gradientUnits="userSpaceOnUse" x1="509.516" y1="176.0402" x2="552.0108" y2="176.0402" gradientTransform="matrix(-1 0 0 1 782.1379 0)">
				<stop  offset="0" style="stop-color:#A31C5A"/>
				<stop  offset="1" style="stop-color:#F9636B"/>
			</linearGradient>
			<path class="st26" d="M268.54,175.29c-6.58-3.8-17.25-3.8-23.83,0c-2.92,1.68-4.54,3.83-4.87,6.04
				c-0.41-2.76,1.21-5.61,4.87-7.72c6.58-3.8,17.25-3.8,23.83,0c3.66,2.11,5.28,4.96,4.87,7.72
				C273.08,179.13,271.46,176.98,268.54,175.29z"/>
			
				<linearGradient id="SVGID_7_" gradientUnits="userSpaceOnUse" x1="544.3135" y1="183.3842" x2="503.9594" y2="177.1561" gradientTransform="matrix(-1 0 0 1 782.1379 0)">
				<stop  offset="0" style="stop-color:#B6246E"/>
				<stop  offset="1" style="stop-color:#F9636B"/>
			</linearGradient>
			<path class="st27" d="M242.12,172.27c7.93-4.67,20.86-4.79,28.87-0.25c8.01,4.53,8.08,12,0.15,16.67
				c-7.93,4.67-20.86,4.79-28.87,0.25C234.25,184.41,234.18,176.95,242.12,172.27z M244.71,187.36c2.2,1.27,4.86,2.1,7.66,2.53
				l0.31-1.01c0.12-0.41,0.5-0.68,0.92-0.68h6.05c0.42,0,0.8,0.28,0.92,0.68l0.31,1.01c2.81-0.42,5.46-1.26,7.66-2.53
				c6.58-3.8,6.58-9.96,0-13.76c-6.58-3.8-17.25-3.8-23.83,0C238.13,177.4,238.13,183.56,244.71,187.36z"/>
			<path class="st28" d="M254.75,190.41h3.76c0.21,0,0.39-0.17,0.39-0.39v-0.2c0-0.21-0.17-0.39-0.39-0.39h-3.76
				c-0.21,0-0.39,0.17-0.39,0.39v0.2C254.36,190.24,254.53,190.41,254.75,190.41z"/>
			<path class="st29" d="M254.82,189.43h3.62c0.25,0,0.46,0.2,0.46,0.46v0.06c0,0.04-0.01,0.08-0.02,0.12
				c-0.05-0.19-0.22-0.34-0.43-0.34h-3.62c-0.21,0-0.38,0.14-0.43,0.34c-0.01-0.04-0.02-0.08-0.02-0.12v-0.06
				C254.36,189.64,254.56,189.43,254.82,189.43z"/>
		</g>
		<g>
			<path class="st30" d="M255.29,190.08c0,0-13.52-4.53-8.05-20.07c5.47-15.54,16.13-20.27,11.84-32.7c0,0,6.73,10.06,0.44,23.67
				c-6.29,13.61-7.67,12.05-7.59,18.56c0.09,7.73,6.34,10.53,6.34,10.53H255.29z"/>
			<path class="st30" d="M254.07,137.59c0,0,1.46-9.64-7.58-19.35c0,0,7.99,17.86,5.38,26.67
				C251.87,144.92,253.99,139.31,254.07,137.59z"/>
		</g>
	</g>
</g>
</svg>
