<?xml version="1.0" encoding="utf-8"?>
<!-- Generator: Adobe Illustrator 23.0.1, SVG Export Plug-In . SVG Version: 6.00 Build 0)  -->
<svg version="1.1" id="Camada_1" xmlns="http://www.w3.org/2000/svg" xmlns:xlink="http://www.w3.org/1999/xlink" x="0px" y="0px"
	 viewBox="0 0 640 480" style="enable-background:new 0 0 640 480;" xml:space="preserve">
<style type="text/css">
	.st0{fill:#9695AE;}
	.st1{fill:none;stroke:#5A5959;stroke-width:20;stroke-miterlimit:10;stroke-dasharray:1.996,9.9799;}
	.st2{fill:none;stroke:#3B5F16;stroke-width:0.5;stroke-miterlimit:10;}
	.st3{fill:#4F4BFA;}
	.st4{fill:#5600A4;}
	.st5{fill:none;stroke:#345B4C;stroke-width:0.5;stroke-miterlimit:10;}
	.st6{fill:#5B3694;}
	.st7{fill:#FFFFFF;}
	.st8{opacity:0.39;fill:none;stroke:#575255;stroke-width:0.75;stroke-miterlimit:10;}
	.st9{fill:none;stroke:#3B5F16;stroke-width:0.25;stroke-miterlimit:10;}
	.st10{fill:#5600A4;stroke:#3E008F;stroke-width:0.25;stroke-miterlimit:10;}
	.st11{fill:#FFFFFF;stroke:#FFFFFF;stroke-width:0.25;stroke-miterlimit:10;}
	.st12{fill:#455C29;}
	.st13{fill:#639B9C;}
</style>
<g>
	<g>
		<g>
			<g>
				<path class="st0" d="M542.57,430.44c-0.63-0.2-1.1-0.56-1.41-1.07c-0.31-0.51-0.46-1.12-0.47-1.83
					c-0.01-0.71,0.12-1.47,0.37-2.26c0.25-0.8,0.59-1.49,1.01-2.07c0.42-0.57,0.9-0.98,1.44-1.22c0.54-0.24,1.13-0.26,1.76-0.06
					c0.65,0.21,1.12,0.56,1.42,1.07c0.3,0.51,0.46,1.12,0.47,1.83c0.01,0.71-0.12,1.47-0.37,2.27c-0.25,0.8-0.59,1.48-1.01,2.06
					c-0.42,0.58-0.9,0.99-1.44,1.23C543.8,430.63,543.21,430.64,542.57,430.44z M542.8,429.71c0.46,0.15,0.9,0.13,1.3-0.07
					c0.4-0.19,0.77-0.53,1.1-1.01c0.33-0.48,0.6-1.07,0.82-1.77c0.23-0.71,0.34-1.35,0.35-1.93c0.01-0.58-0.09-1.06-0.31-1.45
					c-0.22-0.39-0.56-0.66-1.02-0.81c-0.46-0.15-0.89-0.12-1.29,0.07c-0.4,0.19-0.77,0.53-1.1,1c-0.33,0.48-0.61,1.07-0.83,1.78
					c-0.22,0.7-0.34,1.34-0.35,1.93c-0.01,0.58,0.1,1.07,0.32,1.46C542,429.29,542.34,429.56,542.8,429.71z"/>
				<path class="st0" d="M549.6,432.68c-0.63-0.2-1.1-0.56-1.41-1.07c-0.31-0.51-0.46-1.12-0.47-1.83s0.12-1.47,0.37-2.26
					c0.25-0.8,0.59-1.49,1.01-2.07c0.42-0.57,0.9-0.98,1.44-1.22c0.54-0.24,1.13-0.26,1.76-0.06c0.65,0.21,1.12,0.56,1.42,1.07
					c0.3,0.51,0.46,1.12,0.47,1.83c0.01,0.71-0.12,1.47-0.37,2.27c-0.25,0.8-0.59,1.48-1.01,2.06c-0.42,0.58-0.9,0.99-1.44,1.23
					C550.84,432.86,550.24,432.88,549.6,432.68z M549.83,431.94c0.46,0.15,0.9,0.13,1.3-0.07c0.4-0.19,0.77-0.53,1.1-1.01
					c0.33-0.48,0.6-1.07,0.82-1.77c0.23-0.71,0.34-1.35,0.35-1.93c0.01-0.58-0.09-1.06-0.31-1.45c-0.22-0.39-0.56-0.66-1.02-0.81
					c-0.46-0.15-0.89-0.12-1.29,0.07c-0.4,0.19-0.77,0.53-1.1,1c-0.33,0.48-0.61,1.07-0.83,1.78c-0.22,0.7-0.34,1.34-0.35,1.93
					c-0.01,0.58,0.1,1.07,0.32,1.46C549.04,431.53,549.37,431.8,549.83,431.94z"/>
				<path class="st0" d="M555.6,434.46c-0.1-0.03-0.18-0.1-0.23-0.19c-0.05-0.09-0.06-0.19-0.03-0.28l2.26-7.11l0.09,0.16l-1.9,0.46
					c-0.05,0.01-0.11,0-0.18-0.02c-0.11-0.04-0.19-0.11-0.23-0.21c-0.04-0.11-0.05-0.2-0.03-0.28c0.04-0.13,0.14-0.21,0.29-0.25
					l2.38-0.56c0.09-0.02,0.19-0.01,0.3,0.03c0.08,0.04,0.14,0.1,0.18,0.18c0.04,0.09,0.04,0.18,0.01,0.27l-2.41,7.56
					c-0.03,0.09-0.09,0.17-0.19,0.21C555.82,434.49,555.71,434.49,555.6,434.46z"/>
				<path class="st0" d="M560.56,436.17c-0.63-0.2-1.1-0.56-1.41-1.07c-0.31-0.51-0.46-1.12-0.47-1.83
					c-0.01-0.71,0.12-1.47,0.37-2.26c0.26-0.8,0.59-1.49,1.01-2.07c0.42-0.57,0.9-0.98,1.44-1.22c0.54-0.24,1.13-0.26,1.76-0.06
					c0.65,0.21,1.12,0.56,1.42,1.07s0.46,1.12,0.47,1.83c0.01,0.71-0.12,1.47-0.37,2.27c-0.25,0.8-0.59,1.48-1.01,2.06
					c-0.42,0.58-0.9,0.99-1.44,1.23C561.8,436.35,561.21,436.37,560.56,436.17z M560.8,435.43c0.46,0.15,0.9,0.13,1.3-0.07
					c0.4-0.19,0.77-0.53,1.1-1.01c0.33-0.48,0.6-1.07,0.82-1.77c0.23-0.71,0.34-1.35,0.35-1.93c0.01-0.58-0.09-1.06-0.31-1.45
					c-0.22-0.39-0.56-0.66-1.02-0.81c-0.46-0.15-0.89-0.12-1.29,0.07c-0.4,0.19-0.77,0.53-1.1,1c-0.33,0.48-0.61,1.07-0.83,1.78
					c-0.22,0.7-0.34,1.34-0.35,1.93c-0.01,0.58,0.1,1.07,0.32,1.46C560,435.02,560.34,435.29,560.8,435.43z"/>
				<path class="st0" d="M566.57,437.95c-0.1-0.03-0.18-0.1-0.23-0.19c-0.05-0.1-0.06-0.19-0.03-0.28l2.26-7.11l0.09,0.16l-1.9,0.46
					c-0.05,0.01-0.11,0-0.18-0.02c-0.11-0.04-0.19-0.11-0.23-0.21c-0.04-0.1-0.05-0.2-0.03-0.28c0.04-0.13,0.14-0.21,0.29-0.25
					l2.38-0.56c0.09-0.02,0.19-0.01,0.3,0.03c0.08,0.04,0.14,0.1,0.18,0.18c0.04,0.09,0.04,0.18,0.01,0.27l-2.41,7.56
					c-0.03,0.09-0.09,0.16-0.19,0.21S566.68,437.98,566.57,437.95z"/>
				<path class="st0" d="M531.63,439.03c-0.63-0.2-1.1-0.56-1.41-1.07c-0.31-0.51-0.46-1.12-0.47-1.83s0.12-1.47,0.37-2.26
					c0.26-0.8,0.59-1.49,1.01-2.07c0.42-0.57,0.9-0.98,1.44-1.22c0.54-0.24,1.13-0.26,1.76-0.06c0.65,0.21,1.12,0.56,1.42,1.07
					c0.3,0.51,0.46,1.12,0.47,1.83c0.01,0.71-0.12,1.47-0.37,2.27c-0.25,0.79-0.59,1.48-1.01,2.06c-0.42,0.58-0.9,0.99-1.44,1.23
					C532.87,439.22,532.27,439.24,531.63,439.03z M531.86,438.3c0.46,0.15,0.9,0.13,1.3-0.07c0.41-0.19,0.77-0.53,1.1-1.01
					c0.33-0.48,0.6-1.07,0.83-1.77c0.23-0.71,0.34-1.35,0.35-1.93c0.01-0.58-0.09-1.06-0.31-1.45c-0.22-0.39-0.56-0.66-1.02-0.81
					c-0.46-0.15-0.89-0.12-1.29,0.07s-0.77,0.53-1.1,1s-0.61,1.07-0.83,1.78c-0.22,0.7-0.34,1.34-0.35,1.93
					c-0.01,0.58,0.1,1.07,0.32,1.46S531.4,438.15,531.86,438.3z"/>
				<path class="st0" d="M538.66,441.27c-0.63-0.2-1.1-0.56-1.41-1.07c-0.31-0.51-0.46-1.12-0.47-1.83s0.12-1.47,0.37-2.26
					c0.26-0.8,0.59-1.49,1.01-2.07c0.42-0.57,0.9-0.98,1.44-1.22c0.54-0.24,1.13-0.26,1.76-0.06c0.65,0.21,1.12,0.56,1.42,1.07
					c0.3,0.51,0.46,1.12,0.47,1.83c0.01,0.71-0.12,1.47-0.37,2.27c-0.25,0.8-0.59,1.48-1.01,2.06c-0.42,0.58-0.9,0.99-1.44,1.23
					C539.9,441.46,539.3,441.47,538.66,441.27z M538.89,440.54c0.46,0.15,0.9,0.13,1.3-0.07c0.41-0.19,0.77-0.53,1.1-1.01
					c0.33-0.48,0.6-1.07,0.83-1.77c0.23-0.71,0.34-1.35,0.35-1.93c0.01-0.58-0.09-1.06-0.31-1.45c-0.22-0.39-0.56-0.66-1.02-0.81
					c-0.46-0.15-0.89-0.12-1.29,0.07c-0.4,0.19-0.77,0.53-1.1,1s-0.61,1.07-0.83,1.78c-0.22,0.7-0.34,1.34-0.35,1.93
					c-0.01,0.58,0.1,1.07,0.32,1.46S538.43,440.39,538.89,440.54z"/>
				<path class="st0" d="M544.66,443.05c-0.1-0.03-0.18-0.1-0.23-0.19c-0.05-0.09-0.06-0.19-0.03-0.28l2.26-7.11l0.09,0.16
					l-1.9,0.46c-0.05,0.01-0.11,0-0.18-0.02c-0.11-0.04-0.19-0.11-0.23-0.21c-0.04-0.11-0.06-0.2-0.03-0.28
					c0.04-0.13,0.14-0.21,0.29-0.25l2.38-0.56c0.09-0.02,0.2-0.01,0.3,0.03c0.08,0.04,0.14,0.1,0.18,0.18
					c0.04,0.09,0.04,0.18,0.01,0.27l-2.41,7.56c-0.03,0.09-0.09,0.17-0.19,0.21C544.88,443.08,544.77,443.08,544.66,443.05z"/>
				<path class="st0" d="M549.62,444.76c-0.63-0.2-1.1-0.56-1.41-1.07c-0.31-0.51-0.46-1.12-0.47-1.83s0.12-1.47,0.37-2.26
					c0.25-0.8,0.59-1.49,1.01-2.07c0.42-0.57,0.9-0.98,1.44-1.22c0.54-0.24,1.13-0.26,1.76-0.06c0.65,0.21,1.12,0.56,1.42,1.07
					c0.3,0.51,0.46,1.12,0.47,1.83c0.01,0.71-0.12,1.47-0.37,2.27c-0.25,0.8-0.59,1.48-1.01,2.06s-0.9,0.99-1.44,1.23
					C550.86,444.95,550.27,444.97,549.62,444.76z M549.86,444.03c0.46,0.15,0.9,0.13,1.3-0.07c0.4-0.19,0.77-0.53,1.1-1.01
					c0.33-0.48,0.6-1.07,0.82-1.77c0.23-0.71,0.34-1.35,0.35-1.93c0.01-0.58-0.09-1.06-0.31-1.45c-0.22-0.39-0.56-0.66-1.02-0.81
					c-0.46-0.15-0.89-0.12-1.29,0.07c-0.4,0.19-0.77,0.53-1.1,1c-0.33,0.48-0.61,1.07-0.83,1.78c-0.22,0.7-0.34,1.34-0.35,1.93
					c-0.01,0.58,0.1,1.07,0.32,1.46C549.06,443.61,549.4,443.88,549.86,444.03z"/>
				<path class="st0" d="M555.63,446.54c-0.1-0.03-0.18-0.1-0.23-0.19c-0.05-0.09-0.06-0.19-0.03-0.28l2.26-7.11l0.09,0.16
					l-1.9,0.46c-0.05,0.01-0.11,0-0.18-0.02c-0.11-0.04-0.19-0.1-0.23-0.21c-0.04-0.11-0.06-0.2-0.03-0.28
					c0.04-0.13,0.14-0.21,0.29-0.25l2.38-0.56c0.09-0.02,0.19-0.01,0.3,0.03c0.08,0.04,0.14,0.1,0.18,0.18
					c0.04,0.09,0.04,0.18,0.01,0.27l-2.41,7.56c-0.03,0.09-0.09,0.17-0.19,0.21C555.84,446.57,555.74,446.58,555.63,446.54z"/>
				<path class="st0" d="M559.56,447.79c-0.1-0.03-0.18-0.1-0.23-0.19s-0.06-0.19-0.03-0.28l2.26-7.11l0.09,0.16l-1.9,0.46
					c-0.05,0.01-0.11,0-0.18-0.02c-0.11-0.04-0.19-0.1-0.23-0.21c-0.04-0.11-0.05-0.2-0.03-0.28c0.04-0.13,0.14-0.21,0.29-0.25
					l2.38-0.56c0.09-0.02,0.19-0.01,0.3,0.03c0.08,0.04,0.14,0.1,0.18,0.18c0.04,0.09,0.04,0.18,0.01,0.27l-2.41,7.56
					c-0.03,0.09-0.09,0.17-0.19,0.21C559.78,447.82,559.67,447.83,559.56,447.79z"/>
				<path class="st0" d="M564.52,449.5c-0.63-0.2-1.1-0.56-1.41-1.06c-0.31-0.51-0.46-1.12-0.47-1.84
					c-0.01-0.71,0.12-1.47,0.37-2.26c0.26-0.8,0.59-1.49,1.01-2.07c0.42-0.57,0.9-0.98,1.44-1.22c0.54-0.24,1.13-0.26,1.76-0.06
					c0.65,0.21,1.12,0.56,1.42,1.07c0.3,0.51,0.46,1.12,0.47,1.83c0.01,0.71-0.12,1.47-0.37,2.27c-0.25,0.79-0.59,1.48-1.01,2.06
					c-0.42,0.58-0.9,0.99-1.44,1.23C565.76,449.69,565.17,449.71,564.52,449.5z M564.76,448.77c0.46,0.15,0.9,0.13,1.3-0.07
					c0.4-0.19,0.77-0.53,1.1-1.01c0.33-0.48,0.6-1.07,0.82-1.77c0.23-0.71,0.34-1.35,0.35-1.93c0.01-0.58-0.09-1.06-0.31-1.45
					c-0.22-0.39-0.56-0.66-1.02-0.81c-0.46-0.15-0.89-0.12-1.29,0.07c-0.4,0.19-0.77,0.53-1.1,1c-0.33,0.48-0.61,1.07-0.83,1.78
					c-0.22,0.7-0.34,1.34-0.35,1.93s0.1,1.07,0.32,1.46C563.96,448.36,564.3,448.62,564.76,448.77z"/>
				<path class="st0" d="M570.53,451.28c-0.1-0.03-0.18-0.1-0.23-0.19c-0.05-0.09-0.06-0.19-0.03-0.28l2.26-7.11l0.09,0.16
					l-1.9,0.46c-0.05,0.01-0.11,0-0.18-0.02c-0.11-0.04-0.19-0.1-0.23-0.21c-0.04-0.11-0.05-0.2-0.03-0.28
					c0.04-0.13,0.14-0.21,0.29-0.25l2.38-0.56c0.09-0.02,0.19-0.01,0.3,0.03c0.08,0.04,0.14,0.1,0.18,0.18
					c0.04,0.09,0.04,0.18,0.01,0.27l-2.41,7.56c-0.03,0.09-0.09,0.17-0.19,0.21C570.74,451.31,570.64,451.32,570.53,451.28z"/>
				<path class="st0" d="M535.17,452.23c-0.63-0.2-1.1-0.55-1.4-1.06c-0.31-0.51-0.46-1.12-0.47-1.83
					c-0.01-0.71,0.12-1.47,0.37-2.26c0.25-0.8,0.59-1.49,1.01-2.07c0.42-0.57,0.9-0.98,1.44-1.22c0.54-0.24,1.13-0.26,1.76-0.06
					c0.65,0.21,1.12,0.56,1.42,1.07c0.3,0.51,0.46,1.12,0.47,1.83c0.01,0.71-0.12,1.47-0.37,2.27c-0.25,0.8-0.59,1.48-1.01,2.06
					c-0.42,0.58-0.9,0.99-1.44,1.23C536.41,452.42,535.81,452.44,535.17,452.23z M535.4,451.5c0.46,0.15,0.9,0.13,1.3-0.07
					c0.41-0.19,0.77-0.53,1.1-1.01c0.33-0.48,0.6-1.07,0.82-1.77c0.23-0.71,0.34-1.35,0.35-1.93c0.01-0.58-0.09-1.06-0.31-1.45
					c-0.22-0.39-0.56-0.66-1.02-0.81c-0.46-0.15-0.89-0.12-1.29,0.07c-0.4,0.19-0.77,0.53-1.1,1c-0.33,0.48-0.61,1.07-0.83,1.78
					c-0.22,0.7-0.34,1.34-0.35,1.93c-0.01,0.58,0.1,1.07,0.32,1.46S534.94,451.36,535.4,451.5z"/>
				<path class="st0" d="M541.17,454.02c-0.1-0.03-0.18-0.1-0.23-0.19c-0.05-0.09-0.06-0.19-0.03-0.28l2.26-7.11l0.09,0.16
					l-1.9,0.46c-0.05,0.01-0.11,0-0.18-0.02c-0.11-0.04-0.19-0.11-0.23-0.21c-0.04-0.11-0.06-0.2-0.03-0.28
					c0.04-0.13,0.14-0.21,0.29-0.25l2.38-0.56c0.09-0.02,0.2-0.01,0.3,0.03c0.08,0.04,0.14,0.1,0.18,0.18
					c0.04,0.09,0.04,0.18,0.01,0.27l-2.41,7.56c-0.03,0.09-0.09,0.17-0.19,0.21S541.28,454.05,541.17,454.02z"/>
				<path class="st0" d="M545.11,455.27c-0.1-0.03-0.18-0.1-0.23-0.19c-0.05-0.1-0.06-0.19-0.03-0.28l2.26-7.11l0.09,0.16l-1.9,0.46
					c-0.05,0.01-0.11,0-0.18-0.02c-0.11-0.04-0.19-0.11-0.23-0.21c-0.04-0.11-0.05-0.2-0.03-0.28c0.04-0.13,0.14-0.21,0.29-0.25
					l2.38-0.56c0.09-0.02,0.19-0.01,0.3,0.03c0.08,0.04,0.14,0.1,0.18,0.18c0.04,0.09,0.04,0.18,0.01,0.27l-2.41,7.56
					c-0.03,0.09-0.09,0.17-0.19,0.21C545.32,455.3,545.21,455.3,545.11,455.27z"/>
				<path class="st0" d="M549.04,456.52c-0.1-0.03-0.18-0.1-0.23-0.19c-0.05-0.09-0.06-0.19-0.03-0.28l2.26-7.11l0.09,0.16
					l-1.9,0.46c-0.05,0.01-0.11,0-0.18-0.02c-0.11-0.04-0.19-0.11-0.23-0.21c-0.04-0.11-0.05-0.2-0.03-0.28
					c0.04-0.13,0.14-0.21,0.29-0.25l2.38-0.56c0.09-0.02,0.19-0.01,0.3,0.03c0.08,0.04,0.14,0.1,0.18,0.18
					c0.04,0.09,0.04,0.18,0.01,0.27l-2.41,7.56c-0.03,0.09-0.09,0.17-0.19,0.21C549.26,456.55,549.15,456.56,549.04,456.52z"/>
				<path class="st0" d="M554,458.23c-0.63-0.2-1.1-0.56-1.41-1.07c-0.31-0.51-0.46-1.12-0.47-1.83c-0.01-0.71,0.12-1.47,0.37-2.26
					c0.25-0.8,0.59-1.49,1.01-2.07c0.42-0.57,0.9-0.98,1.44-1.22c0.54-0.24,1.13-0.26,1.76-0.06c0.65,0.21,1.12,0.56,1.42,1.07
					c0.3,0.51,0.46,1.12,0.47,1.83c0.01,0.71-0.12,1.47-0.37,2.27c-0.25,0.79-0.59,1.48-1.01,2.06c-0.42,0.58-0.9,0.99-1.44,1.23
					C555.24,458.42,554.65,458.43,554,458.23z M554.24,457.5c0.46,0.15,0.9,0.13,1.3-0.07c0.4-0.19,0.77-0.53,1.1-1.01
					c0.33-0.48,0.6-1.07,0.83-1.77c0.23-0.71,0.34-1.35,0.35-1.93c0.01-0.58-0.09-1.06-0.31-1.45c-0.22-0.39-0.56-0.66-1.02-0.81
					c-0.46-0.15-0.89-0.12-1.29,0.07c-0.4,0.19-0.77,0.53-1.1,1c-0.33,0.48-0.61,1.07-0.83,1.78c-0.22,0.7-0.34,1.34-0.35,1.93
					c-0.01,0.58,0.1,1.07,0.32,1.46C553.44,457.08,553.78,457.35,554.24,457.5z"/>
				<path class="st0" d="M560.01,460.01c-0.1-0.03-0.18-0.1-0.23-0.19c-0.05-0.09-0.06-0.19-0.03-0.28l2.26-7.11l0.09,0.16
					l-1.9,0.46c-0.05,0.01-0.11,0-0.18-0.02c-0.11-0.04-0.19-0.11-0.23-0.21c-0.04-0.11-0.05-0.2-0.03-0.28
					c0.04-0.13,0.14-0.21,0.29-0.25l2.38-0.56c0.09-0.02,0.19-0.01,0.3,0.03c0.08,0.04,0.14,0.1,0.18,0.18
					c0.04,0.08,0.04,0.18,0.01,0.27l-2.41,7.56c-0.03,0.09-0.09,0.17-0.19,0.21C560.22,460.04,560.12,460.05,560.01,460.01z"/>
			</g>
		</g>
		<g>
			<g>
				<path class="st0" d="M441.15,352.73c0.09,0.1,0.12,0.21,0.11,0.32c-0.01,0.12-0.07,0.21-0.18,0.3c-0.09,0.07-0.18,0.1-0.27,0.08
					c-0.09-0.02-0.18-0.07-0.27-0.14c-0.27-0.31-0.58-0.58-0.94-0.81c-0.36-0.23-0.75-0.4-1.18-0.52c-0.54-0.15-1.07-0.18-1.59-0.11
					c-0.52,0.07-1,0.23-1.44,0.5c-0.44,0.26-0.82,0.61-1.14,1.04c-0.32,0.44-0.56,0.95-0.72,1.53c-0.16,0.6-0.21,1.17-0.15,1.72
					s0.22,1.04,0.47,1.49c0.25,0.45,0.59,0.83,1,1.14c0.41,0.31,0.88,0.54,1.41,0.68c0.43,0.12,0.86,0.17,1.28,0.15
					c0.42-0.02,0.82-0.09,1.22-0.21c0.1-0.03,0.2-0.02,0.3,0.02c0.09,0.04,0.16,0.11,0.21,0.22c0.04,0.12,0.04,0.23-0.01,0.34
					c-0.05,0.11-0.13,0.18-0.24,0.21c-0.26,0.08-0.56,0.15-0.89,0.19c-0.33,0.05-0.68,0.06-1.04,0.04c-0.36-0.02-0.7-0.08-1.04-0.17
					c-0.64-0.17-1.21-0.45-1.71-0.83c-0.5-0.38-0.91-0.84-1.22-1.38c-0.32-0.54-0.52-1.13-0.61-1.78c-0.09-0.65-0.04-1.34,0.16-2.05
					c0.19-0.69,0.48-1.29,0.88-1.8s0.87-0.92,1.41-1.24c0.54-0.31,1.13-0.51,1.76-0.6c0.63-0.09,1.27-0.04,1.92,0.13
					c0.5,0.14,0.97,0.34,1.4,0.61C440.47,352.05,440.84,352.37,441.15,352.73z"/>
				<path class="st0" d="M443.24,362.67c-0.68-0.17-1.23-0.43-1.67-0.79s-0.82-0.81-1.15-1.37c-0.03-0.06-0.06-0.12-0.07-0.18
					c-0.02-0.06-0.01-0.13,0-0.2c0.03-0.11,0.1-0.19,0.21-0.26c0.11-0.07,0.21-0.08,0.32-0.06s0.19,0.1,0.26,0.21
					c0.25,0.46,0.56,0.85,0.95,1.17c0.39,0.31,0.83,0.54,1.33,0.67c0.43,0.12,0.82,0.15,1.19,0.11s0.68-0.16,0.94-0.36
					c0.26-0.19,0.44-0.46,0.53-0.78c0.1-0.41,0.08-0.77-0.07-1.07c-0.15-0.31-0.38-0.59-0.7-0.86c-0.32-0.27-0.68-0.52-1.09-0.76
					c-0.33-0.21-0.65-0.43-0.94-0.66c-0.29-0.23-0.54-0.47-0.74-0.74c-0.2-0.27-0.33-0.57-0.39-0.9c-0.06-0.33-0.04-0.7,0.07-1.11
					c0.13-0.47,0.36-0.85,0.71-1.15c0.35-0.3,0.78-0.49,1.29-0.58c0.51-0.08,1.07-0.05,1.67,0.12c0.52,0.14,1,0.37,1.44,0.67
					c0.44,0.31,0.75,0.67,0.94,1.09c0.09,0.18,0.13,0.32,0.09,0.44c-0.03,0.1-0.09,0.18-0.21,0.24c-0.11,0.06-0.22,0.08-0.33,0.05
					c-0.09-0.02-0.16-0.08-0.2-0.15c-0.1-0.23-0.25-0.44-0.44-0.65c-0.19-0.21-0.41-0.39-0.67-0.54s-0.54-0.27-0.84-0.35
					c-0.42-0.11-0.81-0.15-1.17-0.11c-0.37,0.04-0.68,0.15-0.93,0.34c-0.25,0.19-0.43,0.45-0.52,0.8c-0.1,0.37-0.08,0.7,0.07,1
					c0.15,0.29,0.38,0.56,0.68,0.81c0.3,0.25,0.63,0.49,0.99,0.73c0.35,0.21,0.69,0.43,1,0.66c0.31,0.23,0.58,0.49,0.79,0.76
					s0.36,0.59,0.43,0.94c0.07,0.35,0.04,0.76-0.08,1.23c-0.12,0.45-0.36,0.82-0.71,1.12c-0.35,0.29-0.78,0.49-1.29,0.58
					C444.4,362.85,443.85,362.82,443.24,362.67z"/>
				<path class="st0" d="M450.7,364.68c-0.67-0.17-1.23-0.43-1.67-0.79c-0.44-0.35-0.82-0.81-1.15-1.37
					c-0.03-0.06-0.06-0.12-0.07-0.18s-0.02-0.13,0-0.2c0.03-0.11,0.1-0.19,0.21-0.26c0.11-0.07,0.21-0.08,0.32-0.06
					c0.11,0.03,0.19,0.1,0.26,0.21c0.25,0.46,0.56,0.85,0.95,1.17s0.83,0.54,1.33,0.67c0.43,0.12,0.82,0.15,1.19,0.11
					c0.37-0.04,0.68-0.16,0.94-0.36c0.26-0.19,0.44-0.46,0.53-0.78c0.1-0.41,0.08-0.77-0.07-1.07c-0.15-0.31-0.38-0.59-0.7-0.86
					c-0.32-0.27-0.68-0.52-1.09-0.76c-0.33-0.21-0.65-0.43-0.94-0.66c-0.29-0.23-0.54-0.47-0.74-0.74c-0.2-0.27-0.33-0.57-0.39-0.9
					c-0.06-0.33-0.04-0.7,0.07-1.11c0.13-0.47,0.36-0.85,0.71-1.15c0.35-0.3,0.78-0.49,1.29-0.58c0.51-0.08,1.07-0.05,1.67,0.12
					c0.52,0.14,1,0.36,1.44,0.67c0.44,0.31,0.75,0.67,0.94,1.09c0.09,0.18,0.13,0.32,0.09,0.44c-0.03,0.1-0.09,0.18-0.21,0.24
					c-0.11,0.06-0.22,0.08-0.33,0.05c-0.09-0.02-0.16-0.08-0.2-0.15c-0.1-0.23-0.25-0.44-0.44-0.65c-0.19-0.21-0.42-0.39-0.67-0.54
					c-0.26-0.16-0.54-0.27-0.84-0.35c-0.42-0.11-0.81-0.15-1.17-0.11c-0.37,0.04-0.68,0.15-0.93,0.34c-0.25,0.19-0.43,0.46-0.52,0.8
					c-0.1,0.37-0.08,0.7,0.07,1c0.15,0.29,0.38,0.56,0.68,0.81c0.3,0.25,0.63,0.49,0.99,0.73c0.35,0.21,0.69,0.43,1,0.66
					c0.31,0.23,0.58,0.49,0.79,0.76s0.36,0.59,0.43,0.94c0.07,0.35,0.04,0.76-0.08,1.23c-0.12,0.45-0.36,0.82-0.71,1.12
					c-0.36,0.29-0.78,0.49-1.29,0.58C451.86,364.86,451.31,364.83,450.7,364.68z"/>
			</g>
		</g>
		<g>
			<g>
				<path class="st0" d="M210.11,35.22c0.1,0.03,0.18,0.09,0.25,0.2c0.06,0.1,0.07,0.21,0.04,0.32l-2.35,8.23
					c-0.04,0.11-0.11,0.19-0.22,0.25c-0.1,0.05-0.21,0.07-0.31,0.04c-0.13-0.04-0.22-0.1-0.26-0.2c-0.05-0.1-0.05-0.2-0.02-0.31
					l2.35-8.23c0.03-0.11,0.1-0.2,0.2-0.25C209.88,35.2,209.99,35.18,210.11,35.22z M208.9,39.24l6.13,1.75l-0.23,0.76l-6.17-1.76
					L208.9,39.24z M216.16,36.94c0.12,0.03,0.21,0.1,0.26,0.2c0.05,0.1,0.06,0.2,0.03,0.32l-2.35,8.23
					c-0.04,0.11-0.11,0.19-0.2,0.25s-0.2,0.07-0.32,0.03c-0.11-0.03-0.2-0.1-0.25-0.2c-0.06-0.1-0.07-0.21-0.04-0.32l2.35-8.23
					c0.03-0.11,0.1-0.19,0.2-0.25C215.94,36.92,216.05,36.91,216.16,36.94z"/>
				<path class="st0" d="M218.39,38.38c-0.1-0.03-0.18-0.09-0.24-0.18c-0.06-0.09-0.07-0.19-0.04-0.29c0.03-0.11,0.1-0.19,0.19-0.24
					c0.1-0.05,0.2-0.06,0.3-0.03l6.13,1.75c0.11,0.03,0.2,0.09,0.25,0.18c0.06,0.09,0.07,0.19,0.04,0.3
					c-0.03,0.11-0.1,0.19-0.19,0.23c-0.1,0.04-0.2,0.05-0.31,0.02L218.39,38.38z M219.1,47.55c-0.12-0.03-0.21-0.1-0.26-0.2
					c-0.06-0.1-0.07-0.2-0.04-0.3l2.34-8.22l0.81,0.23l-2.34,8.22c-0.03,0.1-0.09,0.18-0.19,0.24
					C219.32,47.57,219.21,47.58,219.1,47.55z"/>
				<path class="st0" d="M227.17,40.08c0.06,0.02,0.12,0.05,0.17,0.1c0.06,0.05,0.1,0.1,0.13,0.17l2.04,6.36l-0.35-0.11l5.09-4.31
					c0.13-0.1,0.26-0.12,0.4-0.07c0.1,0.03,0.18,0.09,0.23,0.19c0.05,0.09,0.06,0.2,0.03,0.31l-2.35,8.26
					c-0.03,0.1-0.1,0.18-0.2,0.24c-0.1,0.05-0.21,0.07-0.32,0.03c-0.11-0.03-0.2-0.1-0.25-0.2c-0.06-0.1-0.07-0.2-0.04-0.3
					l2.13-7.47l0.23,0.09l-4.67,4.01c-0.04,0.04-0.09,0.07-0.16,0.09c-0.06,0.01-0.13,0.01-0.19,0c-0.06-0.02-0.11-0.05-0.16-0.09
					s-0.08-0.1-0.1-0.16l-1.85-5.93l0.29-0.1l-2.19,7.66c-0.03,0.1-0.09,0.18-0.19,0.24c-0.1,0.06-0.2,0.07-0.31,0.04
					c-0.11-0.03-0.19-0.1-0.24-0.19c-0.05-0.1-0.06-0.2-0.03-0.3l2.35-8.26c0.03-0.09,0.09-0.17,0.19-0.23
					C226.95,40.06,227.06,40.05,227.17,40.08z"/>
				<path class="st0" d="M240.06,52.7c0.11,0.03,0.2,0.1,0.25,0.19c0.06,0.1,0.07,0.2,0.04,0.3c-0.03,0.11-0.1,0.19-0.2,0.24
					c-0.1,0.05-0.2,0.06-0.31,0.03l-4.59-1.31c-0.11-0.03-0.19-0.1-0.24-0.2c-0.05-0.1-0.06-0.2-0.03-0.3l2.35-8.26
					c0.03-0.1,0.1-0.18,0.19-0.24c0.1-0.05,0.21-0.07,0.33-0.03c0.1,0.03,0.18,0.09,0.25,0.2c0.06,0.1,0.07,0.2,0.04,0.31l-2.31,8.1
					l-0.18-0.29L240.06,52.7z"/>
			</g>
		</g>
		<g>
			<g>
				<path class="st0" d="M56.5,400.71c-0.53-0.19-0.96-0.5-1.27-0.95c-0.32-0.44-0.5-0.94-0.56-1.49c-0.02-0.09-0.01-0.17,0.01-0.24
					c0.04-0.11,0.11-0.18,0.22-0.21c0.11-0.03,0.2-0.04,0.29-0.01c0.08,0.03,0.15,0.08,0.19,0.14c0.04,0.06,0.07,0.13,0.09,0.2
					c0.04,0.41,0.16,0.78,0.39,1.1s0.53,0.56,0.92,0.69c0.39,0.14,0.76,0.17,1.11,0.11c0.35-0.06,0.66-0.21,0.93-0.45
					c0.27-0.24,0.48-0.54,0.61-0.92l2.08-5.9c0.04-0.1,0.1-0.18,0.21-0.23c0.1-0.05,0.21-0.05,0.33-0.01
					c0.12,0.04,0.2,0.11,0.24,0.21c0.05,0.1,0.05,0.2,0.01,0.3l-2.08,5.9c-0.18,0.52-0.47,0.95-0.85,1.27
					c-0.38,0.33-0.82,0.53-1.31,0.62C57.56,400.95,57.04,400.9,56.5,400.71z"/>
				<path class="st0" d="M69.01,397.7c0.11,0.04,0.19,0.11,0.23,0.21c0.05,0.1,0.05,0.21,0.01,0.32l-2.01,5.69
					c-0.04,0.1-0.11,0.18-0.21,0.23c-0.1,0.05-0.21,0.06-0.31,0.02c-0.12-0.04-0.2-0.11-0.24-0.21c-0.05-0.1-0.05-0.2-0.01-0.3
					l0.53-1.51l0.26-0.01c-0.08,0.23-0.23,0.44-0.45,0.65c-0.22,0.2-0.48,0.37-0.78,0.49c-0.3,0.13-0.63,0.2-0.98,0.22
					c-0.35,0.02-0.71-0.03-1.08-0.16c-0.57-0.2-1.02-0.53-1.37-0.98c-0.35-0.45-0.56-0.98-0.64-1.59c-0.08-0.61,0-1.23,0.23-1.87
					c0.23-0.66,0.57-1.19,1.01-1.6c0.44-0.41,0.93-0.68,1.48-0.81c0.55-0.13,1.1-0.1,1.66,0.1c0.36,0.13,0.68,0.31,0.95,0.55
					c0.27,0.24,0.49,0.51,0.65,0.81c0.16,0.3,0.25,0.62,0.29,0.95c0.03,0.33-0.01,0.64-0.11,0.95l-0.2-0.28l0.57-1.61
					c0.04-0.11,0.11-0.19,0.21-0.24C68.78,397.66,68.89,397.66,69.01,397.7z M64.3,402.66c0.45,0.16,0.88,0.18,1.31,0.07
					c0.43-0.11,0.81-0.33,1.16-0.67c0.34-0.34,0.6-0.76,0.78-1.27c0.17-0.49,0.23-0.97,0.17-1.44c-0.06-0.47-0.22-0.88-0.48-1.24
					c-0.26-0.35-0.62-0.61-1.07-0.77c-0.44-0.15-0.87-0.18-1.3-0.08c-0.43,0.1-0.81,0.31-1.15,0.64c-0.34,0.33-0.6,0.75-0.78,1.26
					c-0.18,0.51-0.24,1-0.19,1.48c0.05,0.48,0.21,0.89,0.48,1.25C63.5,402.24,63.86,402.5,64.3,402.66z"/>
				<path class="st0" d="M71.27,398.34c0.07,0.02,0.13,0.07,0.18,0.13c0.05,0.07,0.08,0.15,0.09,0.24l0.36,6.05l-0.2,0.04l4.16-4.57
					c0.13-0.15,0.28-0.18,0.45-0.11c0.08,0.03,0.15,0.09,0.21,0.17c0.06,0.09,0.07,0.18,0.03,0.27c-0.02,0.05-0.04,0.09-0.06,0.12
					c-0.02,0.03-0.05,0.06-0.06,0.08l-4.53,4.95c-0.12,0.13-0.26,0.17-0.43,0.12c-0.08-0.02-0.15-0.06-0.21-0.14
					c-0.06-0.07-0.09-0.15-0.09-0.24l-0.45-6.69c0-0.03,0-0.06,0.01-0.1c0-0.04,0.01-0.07,0.02-0.11c0.03-0.09,0.1-0.17,0.19-0.22
					C71.04,398.3,71.15,398.3,71.27,398.34z"/>
				<path class="st0" d="M83.32,402.74c0.11,0.04,0.19,0.11,0.23,0.21c0.05,0.1,0.05,0.21,0.01,0.32l-2.01,5.7
					c-0.04,0.1-0.1,0.18-0.21,0.22c-0.1,0.05-0.2,0.06-0.31,0.02c-0.12-0.04-0.2-0.11-0.25-0.21c-0.04-0.1-0.05-0.2-0.01-0.3
					l0.53-1.51l0.26-0.01c-0.08,0.23-0.23,0.44-0.45,0.65c-0.22,0.2-0.48,0.37-0.78,0.49c-0.3,0.13-0.63,0.2-0.98,0.22
					c-0.35,0.02-0.71-0.03-1.08-0.16c-0.57-0.2-1.02-0.53-1.37-0.98c-0.35-0.46-0.56-0.98-0.64-1.59c-0.08-0.6,0-1.23,0.23-1.87
					c0.23-0.66,0.57-1.19,1-1.6c0.44-0.41,0.93-0.68,1.48-0.81c0.55-0.13,1.1-0.1,1.66,0.1c0.36,0.13,0.68,0.31,0.95,0.55
					s0.49,0.51,0.65,0.81c0.16,0.3,0.25,0.62,0.29,0.95s-0.01,0.64-0.11,0.95l-0.2-0.28l0.57-1.61c0.04-0.11,0.11-0.19,0.2-0.24
					C83.1,402.71,83.2,402.7,83.32,402.74z M78.62,407.7c0.45,0.16,0.88,0.18,1.31,0.07s0.81-0.33,1.16-0.67
					c0.34-0.34,0.6-0.76,0.78-1.27c0.17-0.49,0.23-0.97,0.17-1.44c-0.06-0.47-0.22-0.88-0.48-1.24c-0.26-0.35-0.62-0.61-1.07-0.77
					c-0.44-0.15-0.87-0.18-1.3-0.08c-0.43,0.1-0.81,0.31-1.15,0.64c-0.34,0.33-0.6,0.75-0.78,1.26c-0.18,0.51-0.24,1-0.19,1.48
					c0.05,0.48,0.21,0.89,0.48,1.25C77.81,407.29,78.17,407.54,78.62,407.7z"/>
				<path class="st0" d="M86,411.1c-0.64-0.22-1.17-0.51-1.56-0.89c-0.4-0.37-0.74-0.85-1.02-1.42c-0.03-0.06-0.05-0.12-0.06-0.18
					c-0.01-0.06-0.01-0.13,0.02-0.19c0.04-0.1,0.11-0.18,0.22-0.24c0.11-0.06,0.22-0.07,0.32-0.03c0.1,0.04,0.18,0.11,0.23,0.22
					c0.2,0.47,0.48,0.87,0.83,1.2c0.35,0.33,0.77,0.58,1.25,0.75c0.41,0.14,0.79,0.21,1.15,0.19c0.36-0.01,0.68-0.11,0.94-0.28
					c0.27-0.17,0.46-0.41,0.57-0.72c0.13-0.39,0.13-0.74,0.01-1.05c-0.12-0.31-0.33-0.6-0.62-0.89c-0.29-0.28-0.62-0.56-1-0.82
					c-0.31-0.23-0.6-0.47-0.87-0.71s-0.49-0.5-0.67-0.78c-0.17-0.27-0.28-0.57-0.32-0.9c-0.04-0.33,0.01-0.68,0.15-1.07
					c0.16-0.45,0.42-0.8,0.78-1.07c0.36-0.27,0.79-0.42,1.3-0.47c0.5-0.04,1.04,0.03,1.62,0.24c0.5,0.18,0.95,0.43,1.35,0.76
					c0.4,0.33,0.68,0.71,0.83,1.13c0.08,0.18,0.1,0.32,0.06,0.43c-0.03,0.09-0.11,0.16-0.22,0.21c-0.11,0.05-0.22,0.06-0.32,0.02
					c-0.08-0.03-0.15-0.08-0.18-0.16c-0.08-0.23-0.21-0.45-0.38-0.67c-0.17-0.22-0.37-0.41-0.61-0.58c-0.24-0.17-0.5-0.3-0.79-0.41
					c-0.4-0.14-0.77-0.2-1.13-0.19c-0.36,0.01-0.67,0.1-0.93,0.26c-0.26,0.16-0.45,0.41-0.57,0.74c-0.13,0.35-0.13,0.68,0,0.97
					c0.12,0.29,0.32,0.57,0.6,0.84c0.28,0.26,0.58,0.52,0.9,0.78c0.33,0.23,0.64,0.47,0.92,0.72c0.29,0.25,0.52,0.51,0.71,0.8
					c0.19,0.29,0.31,0.6,0.35,0.95c0.04,0.35-0.01,0.74-0.17,1.19c-0.15,0.43-0.41,0.78-0.78,1.04c-0.37,0.26-0.8,0.42-1.3,0.47
					C87.11,411.36,86.57,411.29,86,411.1z"/>
				<path class="st0" d="M95.64,406.91c0.41,0.15,0.77,0.32,1.08,0.53c0.31,0.21,0.54,0.42,0.69,0.65c0.15,0.23,0.2,0.43,0.14,0.6
					c-0.03,0.08-0.09,0.16-0.18,0.21c-0.09,0.06-0.19,0.07-0.29,0.03c-0.1-0.04-0.17-0.09-0.22-0.16c-0.05-0.07-0.09-0.15-0.12-0.24
					c-0.03-0.09-0.1-0.18-0.2-0.28c-0.09-0.1-0.23-0.2-0.42-0.31c-0.19-0.11-0.42-0.21-0.67-0.3c-0.47-0.17-0.94-0.2-1.4-0.1
					c-0.46,0.1-0.87,0.31-1.23,0.63c-0.36,0.32-0.63,0.73-0.8,1.23c-0.18,0.51-0.24,1-0.17,1.48c0.06,0.48,0.24,0.9,0.54,1.26
					c0.29,0.36,0.69,0.63,1.18,0.81c0.34,0.12,0.61,0.18,0.82,0.19c0.21,0.01,0.39-0.01,0.55-0.03c0.19-0.04,0.34-0.09,0.45-0.15
					c0.11-0.06,0.22-0.07,0.34-0.03c0.1,0.04,0.17,0.09,0.21,0.18c0.04,0.08,0.04,0.18,0,0.28c-0.05,0.13-0.2,0.25-0.46,0.34
					c-0.26,0.09-0.58,0.14-0.97,0.14c-0.39,0-0.81-0.08-1.27-0.24c-0.62-0.22-1.12-0.56-1.5-1.03c-0.37-0.46-0.6-1-0.69-1.6
					c-0.09-0.6-0.02-1.23,0.21-1.87c0.22-0.62,0.55-1.13,1-1.54c0.45-0.41,0.97-0.69,1.56-0.82C94.38,406.64,95,406.69,95.64,406.91
					z"/>
				<path class="st0" d="M97.41,414.98c-0.12-0.04-0.2-0.11-0.25-0.21s-0.05-0.2-0.01-0.3l2-5.67c0.04-0.1,0.1-0.18,0.21-0.23
					c0.1-0.05,0.21-0.05,0.32-0.02c0.11,0.04,0.19,0.11,0.23,0.21c0.05,0.1,0.05,0.2,0.01,0.3l-0.67,1.9l-0.2-0.03
					c0.13-0.29,0.31-0.55,0.53-0.8c0.22-0.25,0.49-0.46,0.78-0.63c0.3-0.17,0.62-0.28,0.96-0.33c0.35-0.05,0.7-0.01,1.06,0.12
					c0.15,0.05,0.29,0.14,0.41,0.25c0.12,0.12,0.16,0.24,0.11,0.39c-0.04,0.13-0.11,0.21-0.2,0.26c-0.09,0.04-0.18,0.05-0.28,0.02
					c-0.08-0.03-0.15-0.08-0.22-0.15c-0.07-0.07-0.18-0.14-0.33-0.19c-0.24-0.08-0.5-0.1-0.78-0.04c-0.29,0.05-0.57,0.17-0.84,0.33
					c-0.28,0.17-0.52,0.38-0.74,0.63c-0.22,0.25-0.38,0.52-0.48,0.82l-1.1,3.13c-0.04,0.1-0.1,0.18-0.21,0.22
					C97.61,415.01,97.51,415.01,97.41,414.98z"/>
				<path class="st0" d="M102.77,416.44c-0.04,0.1-0.1,0.18-0.21,0.23c-0.1,0.05-0.21,0.06-0.31,0.02c-0.12-0.04-0.2-0.11-0.24-0.21
					c-0.04-0.1-0.04-0.2-0.01-0.3l2.05-5.82c0.04-0.1,0.1-0.18,0.2-0.23c0.1-0.05,0.2-0.06,0.31-0.02c0.11,0.04,0.19,0.11,0.23,0.21
					c0.04,0.1,0.05,0.2,0.01,0.3L102.77,416.44z M104.87,409.26c-0.18-0.06-0.3-0.15-0.36-0.26s-0.06-0.24-0.01-0.39l0.04-0.13
					c0.05-0.15,0.14-0.25,0.27-0.3c0.13-0.05,0.27-0.04,0.44,0.02c0.16,0.06,0.27,0.14,0.33,0.25c0.06,0.11,0.06,0.24,0.01,0.4
					l-0.04,0.13c-0.05,0.15-0.14,0.25-0.26,0.3C105.18,409.32,105.04,409.32,104.87,409.26z"/>
				<path class="st0" d="M109.98,412.08c0.57,0.2,1.03,0.52,1.38,0.96c0.34,0.44,0.56,0.95,0.65,1.54c0.09,0.58,0.02,1.2-0.21,1.84
					c-0.23,0.64-0.56,1.16-0.99,1.57c-0.44,0.41-0.93,0.67-1.48,0.8c-0.55,0.13-1.1,0.1-1.66-0.1c-0.3-0.1-0.56-0.25-0.79-0.43
					c-0.23-0.18-0.43-0.39-0.6-0.62c-0.17-0.23-0.3-0.48-0.39-0.74c-0.1-0.27-0.15-0.54-0.17-0.81L106,416l-1.39,3.94
					c-0.04,0.1-0.1,0.18-0.2,0.23c-0.1,0.05-0.2,0.06-0.31,0.02s-0.19-0.11-0.24-0.21c-0.05-0.1-0.06-0.21-0.02-0.31l2.91-8.25
					c0.04-0.11,0.11-0.19,0.2-0.24c0.1-0.05,0.21-0.05,0.33-0.01c0.11,0.04,0.19,0.11,0.23,0.21c0.04,0.1,0.05,0.21,0.01,0.32
					l-0.48,1.37l-0.14-0.16c0.18-0.23,0.38-0.42,0.62-0.57c0.24-0.15,0.49-0.26,0.76-0.33c0.27-0.07,0.55-0.1,0.84-0.08
					C109.41,411.92,109.69,411.98,109.98,412.08z M109.67,412.77c-0.46-0.16-0.9-0.19-1.32-0.09c-0.42,0.1-0.8,0.31-1.14,0.62
					c-0.33,0.31-0.59,0.72-0.77,1.23c-0.18,0.5-0.23,0.98-0.18,1.45c0.06,0.47,0.22,0.87,0.49,1.22c0.27,0.35,0.63,0.6,1.09,0.76
					c0.45,0.16,0.88,0.18,1.3,0.08c0.42-0.1,0.8-0.32,1.14-0.64c0.34-0.33,0.59-0.74,0.77-1.24c0.18-0.5,0.23-0.98,0.17-1.43
					c-0.06-0.46-0.22-0.86-0.49-1.2C110.47,413.17,110.11,412.92,109.67,412.77z"/>
				<path class="st0" d="M116.01,412.28c0.11,0.04,0.19,0.11,0.23,0.21c0.04,0.1,0.05,0.2,0.01,0.3l-2.24,6.35
					c-0.08,0.24-0.11,0.42-0.09,0.57c0.02,0.14,0.08,0.25,0.16,0.32c0.09,0.07,0.18,0.13,0.28,0.17c0.07,0.02,0.13,0.03,0.19,0.03
					c0.06,0,0.13,0.01,0.2,0.03c0.08,0.03,0.13,0.08,0.16,0.16c0.03,0.08,0.03,0.16,0,0.26c-0.04,0.12-0.15,0.19-0.31,0.23
					c-0.16,0.03-0.34,0.02-0.52-0.05c-0.08-0.03-0.19-0.07-0.33-0.14c-0.15-0.07-0.29-0.17-0.42-0.3c-0.13-0.14-0.22-0.33-0.26-0.57
					s0.01-0.55,0.14-0.93l2.25-6.39c0.04-0.1,0.11-0.18,0.21-0.23C115.79,412.25,115.9,412.25,116.01,412.28z M114.08,413.61
					l2.95,1.04c0.1,0.04,0.17,0.1,0.22,0.2c0.04,0.1,0.05,0.19,0.01,0.3c-0.04,0.1-0.1,0.17-0.19,0.22
					c-0.09,0.04-0.19,0.05-0.29,0.01l-2.95-1.04c-0.1-0.04-0.17-0.1-0.22-0.2c-0.05-0.1-0.05-0.2-0.02-0.3
					c0.04-0.1,0.1-0.17,0.2-0.22C113.88,413.58,113.98,413.57,114.08,413.61z"/>
			</g>
		</g>
		<g>
			<g>
				<path class="st0" d="M86.09,176.14c-0.97-0.31-1.69-0.85-2.16-1.64c-0.47-0.78-0.71-1.72-0.72-2.82
					c-0.01-1.1,0.18-2.26,0.57-3.48c0.39-1.24,0.91-2.3,1.55-3.18c0.64-0.88,1.38-1.51,2.22-1.88c0.84-0.37,1.74-0.4,2.71-0.09
					c0.99,0.32,1.72,0.87,2.19,1.65c0.46,0.78,0.7,1.72,0.72,2.81c0.01,1.09-0.18,2.26-0.57,3.49c-0.39,1.22-0.91,2.28-1.55,3.17
					c-0.64,0.89-1.38,1.52-2.21,1.89C87.99,176.43,87.08,176.46,86.09,176.14z M86.44,175.02c0.71,0.23,1.38,0.19,2-0.1
					s1.18-0.81,1.69-1.56c0.5-0.74,0.93-1.65,1.27-2.73c0.35-1.09,0.53-2.08,0.54-2.97c0.02-0.89-0.14-1.63-0.48-2.23
					c-0.34-0.6-0.86-1.02-1.58-1.24c-0.7-0.22-1.37-0.19-1.99,0.11c-0.62,0.3-1.19,0.81-1.69,1.54c-0.51,0.73-0.93,1.65-1.28,2.73
					c-0.34,1.08-0.52,2.07-0.53,2.96c-0.01,0.9,0.15,1.65,0.49,2.25C85.22,174.38,85.74,174.79,86.44,175.02z"/>
				<path class="st0" d="M96.9,179.59c-0.97-0.31-1.69-0.86-2.16-1.64c-0.47-0.78-0.71-1.72-0.72-2.82
					c-0.01-1.1,0.18-2.26,0.57-3.48c0.39-1.24,0.91-2.29,1.55-3.18s1.38-1.51,2.22-1.88c0.84-0.37,1.74-0.4,2.71-0.09
					c0.99,0.32,1.72,0.87,2.19,1.65c0.46,0.78,0.7,1.72,0.72,2.81c0.01,1.09-0.18,2.26-0.57,3.49c-0.39,1.22-0.91,2.28-1.55,3.17
					c-0.64,0.89-1.38,1.52-2.21,1.89C98.81,179.88,97.89,179.9,96.9,179.59z M97.26,178.46c0.71,0.23,1.38,0.19,2-0.1
					c0.62-0.3,1.18-0.81,1.69-1.56c0.5-0.74,0.93-1.65,1.27-2.73c0.35-1.09,0.53-2.08,0.54-2.97c0.02-0.89-0.14-1.63-0.48-2.23
					c-0.34-0.6-0.86-1.02-1.58-1.24c-0.7-0.22-1.37-0.19-1.99,0.11c-0.62,0.3-1.19,0.81-1.69,1.54c-0.51,0.73-0.93,1.64-1.28,2.73
					c-0.34,1.08-0.52,2.07-0.53,2.96c-0.01,0.9,0.15,1.65,0.49,2.25C96.04,177.82,96.56,178.23,97.26,178.46z"/>
				<path class="st0" d="M106.14,182.33c-0.16-0.05-0.28-0.15-0.36-0.29c-0.08-0.15-0.1-0.29-0.05-0.44l3.48-10.94l0.14,0.25
					l-2.93,0.71c-0.08,0.01-0.17,0-0.27-0.03c-0.17-0.05-0.29-0.16-0.36-0.32c-0.07-0.16-0.08-0.3-0.04-0.42
					c0.06-0.19,0.21-0.32,0.44-0.38l3.66-0.86c0.14-0.03,0.3-0.02,0.47,0.05c0.13,0.05,0.22,0.15,0.28,0.28
					c0.06,0.13,0.06,0.27,0.02,0.42l-3.7,11.63c-0.05,0.15-0.14,0.25-0.29,0.33C106.47,182.37,106.31,182.38,106.14,182.33z"/>
				<path class="st0" d="M113.77,184.96c-0.97-0.31-1.69-0.86-2.16-1.64c-0.47-0.78-0.71-1.72-0.72-2.82
					c-0.01-1.1,0.18-2.26,0.57-3.48c0.39-1.24,0.91-2.29,1.55-3.18s1.38-1.51,2.22-1.88c0.84-0.37,1.74-0.4,2.71-0.09
					c0.99,0.32,1.72,0.87,2.19,1.65c0.46,0.78,0.7,1.72,0.72,2.81c0.01,1.09-0.18,2.26-0.57,3.49c-0.39,1.22-0.91,2.28-1.55,3.17
					c-0.64,0.89-1.38,1.52-2.21,1.89C115.68,185.24,114.76,185.27,113.77,184.96z M114.13,183.83c0.71,0.23,1.38,0.19,2-0.1
					c0.62-0.3,1.18-0.81,1.69-1.56c0.5-0.74,0.93-1.65,1.27-2.73c0.35-1.09,0.53-2.08,0.54-2.97c0.02-0.89-0.14-1.63-0.48-2.23
					c-0.34-0.6-0.86-1.01-1.58-1.24c-0.7-0.22-1.37-0.19-1.99,0.11c-0.62,0.3-1.19,0.81-1.69,1.54c-0.51,0.73-0.93,1.64-1.28,2.73
					c-0.34,1.08-0.52,2.07-0.53,2.96c-0.01,0.9,0.15,1.65,0.49,2.25C112.9,183.19,113.42,183.6,114.13,183.83z"/>
				<path class="st0" d="M123,187.69c-0.16-0.05-0.28-0.15-0.36-0.29c-0.08-0.15-0.1-0.29-0.05-0.44l3.48-10.94l0.14,0.25
					l-2.93,0.71c-0.08,0.01-0.17,0-0.27-0.03c-0.17-0.05-0.29-0.16-0.36-0.32c-0.07-0.16-0.08-0.3-0.04-0.42
					c0.06-0.19,0.21-0.32,0.44-0.38l3.66-0.86c0.14-0.03,0.3-0.02,0.47,0.05c0.13,0.05,0.22,0.15,0.28,0.28
					c0.06,0.13,0.06,0.27,0.02,0.42l-3.7,11.63c-0.05,0.15-0.14,0.25-0.29,0.33C123.33,187.74,123.17,187.75,123,187.69z"/>
				<path class="st0" d="M69.26,189.36c-0.97-0.31-1.69-0.85-2.16-1.64c-0.47-0.78-0.71-1.72-0.72-2.82
					c-0.01-1.1,0.18-2.26,0.57-3.48c0.39-1.24,0.91-2.3,1.55-3.18c0.64-0.88,1.38-1.51,2.22-1.88c0.84-0.37,1.74-0.4,2.71-0.09
					c0.99,0.32,1.72,0.87,2.19,1.65c0.47,0.78,0.71,1.72,0.72,2.81c0.01,1.09-0.18,2.26-0.57,3.49c-0.39,1.22-0.91,2.28-1.55,3.17
					c-0.64,0.89-1.38,1.52-2.21,1.89C71.16,189.65,70.25,189.68,69.26,189.36z M69.61,188.23c0.71,0.23,1.38,0.19,2-0.1
					c0.62-0.3,1.18-0.81,1.69-1.55c0.5-0.74,0.93-1.65,1.27-2.73c0.35-1.09,0.53-2.08,0.54-2.97c0.02-0.89-0.14-1.63-0.48-2.24
					c-0.34-0.6-0.86-1.02-1.58-1.24c-0.7-0.22-1.37-0.19-1.99,0.11c-0.62,0.3-1.19,0.81-1.69,1.54c-0.51,0.73-0.93,1.64-1.28,2.74
					c-0.34,1.08-0.52,2.07-0.53,2.96c-0.01,0.9,0.15,1.65,0.49,2.25C68.39,187.6,68.91,188.01,69.61,188.23z"/>
				<path class="st0" d="M80.07,192.8c-0.97-0.31-1.69-0.86-2.16-1.64c-0.47-0.78-0.71-1.72-0.72-2.82
					c-0.01-1.1,0.18-2.26,0.57-3.48c0.39-1.24,0.91-2.3,1.55-3.18s1.38-1.51,2.22-1.88c0.84-0.37,1.74-0.4,2.71-0.09
					c0.99,0.32,1.72,0.87,2.19,1.65c0.47,0.78,0.7,1.72,0.72,2.81c0.01,1.09-0.18,2.26-0.57,3.49c-0.39,1.22-0.91,2.28-1.55,3.17
					c-0.64,0.89-1.38,1.52-2.21,1.89C81.98,193.09,81.06,193.12,80.07,192.8z M80.43,191.68c0.71,0.23,1.38,0.19,2-0.1
					c0.62-0.29,1.18-0.81,1.69-1.55c0.5-0.74,0.93-1.65,1.27-2.73c0.35-1.09,0.53-2.08,0.54-2.97c0.02-0.89-0.14-1.63-0.48-2.24
					c-0.34-0.6-0.86-1.01-1.58-1.24c-0.7-0.22-1.37-0.19-1.99,0.11s-1.19,0.81-1.69,1.54c-0.51,0.73-0.93,1.64-1.28,2.73
					c-0.34,1.08-0.52,2.07-0.53,2.96c-0.01,0.9,0.15,1.65,0.48,2.25S79.73,191.45,80.43,191.68z"/>
				<path class="st0" d="M89.31,195.54c-0.16-0.05-0.28-0.15-0.36-0.29c-0.08-0.15-0.1-0.29-0.05-0.44l3.48-10.94l0.14,0.25
					l-2.93,0.71c-0.08,0.01-0.17,0-0.27-0.03c-0.17-0.05-0.29-0.16-0.36-0.32c-0.07-0.16-0.08-0.3-0.04-0.42
					c0.06-0.19,0.21-0.32,0.44-0.38l3.66-0.86c0.14-0.03,0.3-0.02,0.46,0.05c0.13,0.05,0.22,0.15,0.28,0.28
					c0.06,0.13,0.06,0.27,0.02,0.42l-3.7,11.63c-0.05,0.15-0.15,0.25-0.29,0.33C89.64,195.59,89.48,195.6,89.31,195.54z"/>
				<path class="st0" d="M96.94,198.17c-0.97-0.31-1.69-0.86-2.16-1.64c-0.47-0.78-0.71-1.72-0.72-2.82
					c-0.01-1.1,0.18-2.26,0.57-3.48c0.39-1.24,0.91-2.3,1.55-3.18c0.64-0.88,1.38-1.51,2.22-1.88c0.84-0.37,1.74-0.4,2.71-0.09
					c0.99,0.32,1.72,0.87,2.19,1.65c0.47,0.78,0.7,1.72,0.72,2.81c0.01,1.09-0.18,2.26-0.57,3.49c-0.39,1.22-0.91,2.28-1.55,3.17
					c-0.64,0.89-1.38,1.52-2.21,1.89C98.85,198.46,97.93,198.49,96.94,198.17z M97.3,197.05c0.71,0.23,1.38,0.19,2-0.1
					c0.62-0.3,1.18-0.81,1.69-1.56c0.5-0.74,0.93-1.65,1.27-2.73c0.35-1.09,0.53-2.08,0.54-2.97c0.02-0.89-0.14-1.63-0.48-2.23
					c-0.34-0.6-0.86-1.02-1.58-1.24c-0.7-0.22-1.37-0.19-1.99,0.11c-0.62,0.3-1.19,0.81-1.69,1.54c-0.51,0.73-0.93,1.64-1.28,2.73
					c-0.34,1.08-0.52,2.07-0.53,2.96c-0.01,0.9,0.15,1.65,0.48,2.25C96.07,196.41,96.59,196.82,97.3,197.05z"/>
				<path class="st0" d="M106.18,200.91c-0.16-0.05-0.28-0.15-0.36-0.29c-0.08-0.15-0.1-0.29-0.05-0.44l3.48-10.94l0.14,0.25
					l-2.93,0.71c-0.08,0.01-0.18,0-0.27-0.03c-0.17-0.05-0.29-0.16-0.36-0.32c-0.07-0.16-0.08-0.3-0.04-0.42
					c0.06-0.19,0.21-0.32,0.44-0.38l3.66-0.86c0.14-0.03,0.3-0.02,0.47,0.05c0.13,0.05,0.22,0.15,0.28,0.28
					c0.06,0.13,0.06,0.27,0.02,0.42l-3.7,11.63c-0.05,0.15-0.15,0.25-0.29,0.33C106.5,200.96,106.35,200.97,106.18,200.91z"/>
				<path class="st0" d="M112.23,202.84c-0.16-0.05-0.28-0.15-0.36-0.29c-0.08-0.15-0.1-0.29-0.05-0.44l3.48-10.94l0.14,0.25
					l-2.93,0.71c-0.08,0.01-0.17,0-0.27-0.03c-0.17-0.05-0.29-0.16-0.36-0.32c-0.07-0.16-0.08-0.3-0.04-0.42
					c0.06-0.19,0.21-0.32,0.44-0.38l3.66-0.86c0.14-0.03,0.3-0.02,0.47,0.05c0.13,0.05,0.22,0.15,0.28,0.28
					c0.06,0.13,0.06,0.27,0.02,0.42l-3.7,11.63c-0.05,0.15-0.14,0.25-0.29,0.33C112.56,202.89,112.4,202.89,112.23,202.84z"/>
				<path class="st0" d="M119.86,205.47c-0.97-0.31-1.69-0.86-2.16-1.64c-0.47-0.78-0.71-1.72-0.72-2.82
					c-0.01-1.1,0.18-2.26,0.57-3.48c0.39-1.24,0.91-2.29,1.55-3.18s1.38-1.51,2.22-1.88c0.84-0.37,1.74-0.4,2.71-0.09
					c0.99,0.32,1.72,0.87,2.19,1.65c0.47,0.78,0.7,1.72,0.72,2.81c0.01,1.09-0.18,2.26-0.57,3.49c-0.39,1.22-0.91,2.28-1.55,3.17
					c-0.64,0.89-1.38,1.52-2.21,1.89C121.77,205.76,120.85,205.79,119.86,205.47z M120.22,204.34c0.71,0.23,1.38,0.19,2-0.1
					c0.62-0.3,1.18-0.81,1.69-1.56c0.5-0.74,0.93-1.65,1.27-2.73c0.35-1.09,0.53-2.08,0.54-2.97c0.02-0.89-0.14-1.63-0.48-2.23
					c-0.34-0.6-0.86-1.02-1.58-1.24c-0.7-0.22-1.37-0.19-1.99,0.11c-0.62,0.3-1.19,0.81-1.69,1.54c-0.51,0.73-0.93,1.64-1.28,2.74
					c-0.34,1.08-0.52,2.07-0.53,2.96c-0.01,0.9,0.15,1.65,0.49,2.25C119,203.71,119.52,204.12,120.22,204.34z"/>
				<path class="st0" d="M129.1,208.21c-0.16-0.05-0.28-0.15-0.36-0.29c-0.08-0.15-0.1-0.29-0.05-0.44l3.48-10.94l0.14,0.25
					l-2.93,0.71c-0.08,0.01-0.17,0-0.27-0.03c-0.17-0.05-0.29-0.16-0.36-0.32c-0.07-0.16-0.08-0.3-0.04-0.42
					c0.06-0.19,0.21-0.32,0.44-0.38l3.66-0.86c0.14-0.03,0.3-0.02,0.47,0.05c0.13,0.05,0.22,0.15,0.28,0.28
					c0.06,0.13,0.06,0.27,0.02,0.42l-3.7,11.63c-0.05,0.15-0.14,0.25-0.29,0.33C129.43,208.25,129.27,208.26,129.1,208.21z"/>
				<path class="st0" d="M74.7,209.67c-0.97-0.31-1.69-0.86-2.16-1.64c-0.47-0.78-0.71-1.73-0.72-2.82
					c-0.01-1.1,0.18-2.26,0.57-3.48c0.39-1.24,0.91-2.29,1.55-3.18s1.38-1.51,2.22-1.88s1.74-0.4,2.71-0.09
					c0.99,0.32,1.72,0.87,2.19,1.65c0.47,0.78,0.7,1.72,0.72,2.81c0.01,1.09-0.18,2.25-0.57,3.49c-0.39,1.22-0.91,2.28-1.55,3.17
					c-0.64,0.89-1.38,1.52-2.21,1.89C76.61,209.96,75.7,209.99,74.7,209.67z M75.06,208.54c0.71,0.23,1.38,0.19,2-0.1
					c0.62-0.3,1.18-0.81,1.69-1.56c0.5-0.74,0.93-1.65,1.27-2.73c0.35-1.09,0.53-2.08,0.54-2.97c0.02-0.89-0.14-1.63-0.48-2.23
					c-0.34-0.6-0.86-1.02-1.58-1.24c-0.7-0.22-1.37-0.19-1.99,0.11c-0.62,0.3-1.19,0.81-1.69,1.54c-0.51,0.73-0.93,1.64-1.28,2.73
					c-0.34,1.08-0.52,2.07-0.53,2.96c-0.01,0.9,0.15,1.65,0.48,2.25C73.84,207.91,74.36,208.32,75.06,208.54z"/>
				<path class="st0" d="M83.94,212.41c-0.16-0.05-0.28-0.15-0.36-0.29c-0.08-0.15-0.1-0.29-0.05-0.44l3.48-10.94l0.14,0.25
					l-2.93,0.71c-0.08,0.01-0.17,0-0.27-0.03c-0.17-0.05-0.29-0.16-0.36-0.32s-0.08-0.3-0.04-0.42c0.06-0.19,0.21-0.32,0.44-0.38
					l3.66-0.86c0.14-0.03,0.3-0.02,0.46,0.05c0.13,0.05,0.22,0.15,0.28,0.28c0.06,0.13,0.06,0.27,0.02,0.42l-3.7,11.63
					c-0.05,0.15-0.15,0.25-0.29,0.33C84.27,212.46,84.11,212.46,83.94,212.41z"/>
				<path class="st0" d="M89.99,214.34c-0.16-0.05-0.28-0.15-0.36-0.29c-0.08-0.15-0.1-0.29-0.05-0.44l3.48-10.94l0.14,0.25
					l-2.93,0.71c-0.08,0.01-0.17,0-0.27-0.03c-0.17-0.05-0.29-0.16-0.36-0.32c-0.07-0.16-0.08-0.3-0.04-0.42
					c0.06-0.19,0.21-0.32,0.44-0.38l3.66-0.86c0.14-0.03,0.3-0.02,0.47,0.05c0.13,0.05,0.22,0.15,0.28,0.28
					c0.06,0.13,0.06,0.27,0.02,0.42l-3.7,11.63c-0.05,0.15-0.14,0.25-0.29,0.33C90.32,214.38,90.16,214.39,89.99,214.34z"/>
				<path class="st0" d="M96.04,216.26c-0.16-0.05-0.28-0.15-0.36-0.29s-0.1-0.29-0.05-0.44l3.48-10.94l0.14,0.25l-2.93,0.71
					c-0.08,0.01-0.17,0-0.27-0.03c-0.17-0.05-0.29-0.16-0.36-0.32s-0.08-0.3-0.04-0.42c0.06-0.19,0.21-0.32,0.44-0.38l3.66-0.86
					c0.14-0.03,0.3-0.02,0.47,0.05c0.13,0.05,0.22,0.15,0.28,0.28c0.06,0.13,0.06,0.27,0.02,0.42l-3.7,11.63
					c-0.05,0.15-0.14,0.25-0.29,0.33C96.37,216.31,96.21,216.32,96.04,216.26z"/>
				<path class="st0" d="M103.68,218.89c-0.97-0.31-1.69-0.85-2.16-1.64s-0.71-1.72-0.72-2.82c-0.01-1.1,0.18-2.26,0.57-3.48
					c0.39-1.24,0.91-2.29,1.55-3.18c0.64-0.88,1.38-1.51,2.22-1.88c0.84-0.37,1.74-0.4,2.71-0.09c0.99,0.32,1.72,0.87,2.19,1.65
					c0.47,0.78,0.7,1.72,0.72,2.81c0.01,1.09-0.18,2.25-0.57,3.49c-0.39,1.22-0.91,2.28-1.55,3.17c-0.64,0.89-1.38,1.52-2.21,1.89
					C105.58,219.18,104.67,219.21,103.68,218.89z M104.04,217.77c0.71,0.23,1.38,0.19,2-0.1c0.62-0.3,1.18-0.81,1.69-1.56
					c0.5-0.74,0.93-1.65,1.27-2.73c0.35-1.09,0.53-2.08,0.54-2.97c0.02-0.89-0.14-1.63-0.48-2.23c-0.34-0.6-0.86-1.02-1.58-1.24
					c-0.7-0.22-1.37-0.19-1.99,0.11c-0.62,0.3-1.19,0.81-1.69,1.54c-0.51,0.73-0.93,1.64-1.28,2.73c-0.34,1.08-0.52,2.07-0.53,2.96
					c-0.01,0.9,0.15,1.65,0.48,2.25C102.81,217.13,103.33,217.54,104.04,217.77z"/>
				<path class="st0" d="M112.91,221.63c-0.16-0.05-0.28-0.15-0.36-0.29c-0.08-0.15-0.1-0.29-0.05-0.44l3.48-10.94l0.14,0.25
					l-2.93,0.71c-0.08,0.01-0.17,0-0.27-0.03c-0.17-0.05-0.29-0.16-0.36-0.32c-0.07-0.16-0.08-0.3-0.04-0.42
					c0.06-0.19,0.21-0.32,0.44-0.38l3.66-0.86c0.14-0.03,0.3-0.02,0.47,0.05c0.13,0.05,0.22,0.15,0.28,0.28
					c0.06,0.13,0.06,0.27,0.02,0.42l-3.7,11.63c-0.05,0.15-0.14,0.25-0.29,0.33S113.08,221.69,112.91,221.63z"/>
			</g>
		</g>
		<g>
			<g>
				<path class="st0" d="M448.64,33.17c-1.28-0.41-2.23-1.13-2.85-2.16c-0.62-1.03-0.94-2.27-0.95-3.72
					c-0.01-1.45,0.24-2.98,0.75-4.59c0.52-1.63,1.2-3.03,2.05-4.19s1.82-1.99,2.93-2.48c1.11-0.48,2.3-0.52,3.58-0.12
					c1.31,0.42,2.27,1.14,2.89,2.17c0.61,1.03,0.93,2.27,0.95,3.71s-0.23,2.98-0.75,4.61c-0.51,1.62-1.2,3.01-2.04,4.18
					c-0.85,1.17-1.82,2-2.92,2.49C451.16,33.56,449.95,33.59,448.64,33.17z M449.11,31.69c0.94,0.3,1.82,0.25,2.64-0.14
					c0.82-0.39,1.56-1.07,2.23-2.05c0.66-0.98,1.22-2.18,1.67-3.6c0.46-1.44,0.7-2.74,0.72-3.92c0.02-1.17-0.19-2.16-0.63-2.95
					c-0.44-0.79-1.14-1.34-2.08-1.64c-0.93-0.29-1.8-0.25-2.62,0.14c-0.82,0.39-1.56,1.07-2.23,2.04c-0.67,0.97-1.23,2.17-1.69,3.61
					c-0.45,1.42-0.69,2.73-0.7,3.91c-0.02,1.18,0.2,2.17,0.64,2.96C447.5,30.85,448.19,31.39,449.11,31.69z"/>
				<path class="st0" d="M462.91,37.71c-1.28-0.41-2.23-1.13-2.85-2.16c-0.62-1.03-0.94-2.28-0.95-3.72
					c-0.02-1.45,0.23-2.98,0.75-4.59c0.52-1.63,1.2-3.03,2.05-4.19c0.85-1.17,1.82-1.99,2.93-2.48c1.1-0.48,2.3-0.52,3.58-0.12
					c1.31,0.42,2.27,1.14,2.89,2.17c0.61,1.03,0.93,2.27,0.94,3.71c0.02,1.44-0.23,2.98-0.75,4.61c-0.51,1.62-1.2,3.01-2.04,4.18
					c-0.85,1.17-1.82,2-2.92,2.49C465.42,38.1,464.22,38.13,462.91,37.71z M463.38,36.23c0.94,0.3,1.82,0.26,2.64-0.14
					c0.82-0.39,1.56-1.07,2.23-2.05c0.66-0.98,1.22-2.18,1.67-3.6c0.46-1.44,0.7-2.74,0.72-3.92c0.02-1.17-0.19-2.16-0.63-2.95
					c-0.44-0.79-1.14-1.34-2.08-1.64c-0.93-0.29-1.8-0.25-2.62,0.14c-0.82,0.39-1.56,1.07-2.23,2.04c-0.67,0.97-1.23,2.17-1.69,3.61
					c-0.45,1.42-0.69,2.73-0.7,3.91c-0.02,1.18,0.2,2.17,0.64,2.96C461.77,35.39,462.45,35.93,463.38,36.23z"/>
				<path class="st0" d="M475.09,41.33c-0.21-0.07-0.36-0.2-0.47-0.39c-0.11-0.19-0.13-0.38-0.07-0.58l4.59-14.44l0.19,0.32
					l-3.86,0.94c-0.11,0.02-0.23,0.01-0.36-0.04c-0.22-0.07-0.38-0.21-0.47-0.43c-0.09-0.21-0.11-0.4-0.06-0.56
					c0.08-0.25,0.27-0.42,0.58-0.5l4.82-1.13c0.19-0.05,0.39-0.02,0.61,0.06c0.17,0.07,0.29,0.2,0.37,0.37
					c0.08,0.17,0.08,0.36,0.02,0.55l-4.88,15.35c-0.06,0.19-0.19,0.34-0.39,0.43C475.53,41.39,475.32,41.4,475.09,41.33z"/>
				<path class="st0" d="M485.16,44.8c-1.28-0.41-2.23-1.13-2.85-2.16c-0.62-1.03-0.94-2.28-0.95-3.72
					c-0.01-1.45,0.24-2.98,0.75-4.59c0.52-1.63,1.2-3.03,2.05-4.19c0.85-1.17,1.82-1.99,2.93-2.48c1.1-0.48,2.3-0.52,3.58-0.12
					c1.31,0.42,2.27,1.14,2.89,2.17c0.61,1.03,0.93,2.27,0.95,3.71c0.02,1.44-0.23,2.98-0.75,4.61c-0.51,1.62-1.2,3.01-2.04,4.18
					c-0.85,1.17-1.82,2-2.92,2.49C487.67,45.18,486.47,45.21,485.16,44.8z M485.63,43.31c0.94,0.3,1.82,0.26,2.64-0.14
					c0.82-0.39,1.56-1.07,2.23-2.05c0.66-0.98,1.22-2.18,1.67-3.6c0.46-1.44,0.7-2.74,0.72-3.92c0.02-1.17-0.19-2.16-0.63-2.95
					c-0.44-0.79-1.14-1.34-2.08-1.64c-0.93-0.29-1.8-0.25-2.62,0.14c-0.82,0.39-1.56,1.07-2.23,2.04s-1.23,2.17-1.69,3.61
					c-0.45,1.42-0.69,2.73-0.7,3.91c-0.02,1.18,0.2,2.17,0.64,2.96C484.02,42.47,484.71,43.02,485.63,43.31z"/>
				<path class="st0" d="M497.34,48.41c-0.21-0.07-0.36-0.2-0.47-0.39c-0.11-0.19-0.13-0.38-0.07-0.58l4.59-14.44l0.19,0.32
					l-3.86,0.94c-0.11,0.02-0.23,0.01-0.36-0.04c-0.22-0.07-0.38-0.21-0.47-0.43c-0.09-0.21-0.11-0.4-0.06-0.56
					c0.08-0.26,0.28-0.42,0.58-0.5l4.82-1.13c0.19-0.04,0.4-0.02,0.61,0.06c0.17,0.07,0.29,0.2,0.37,0.37
					c0.08,0.17,0.08,0.36,0.02,0.55l-4.88,15.35c-0.06,0.19-0.19,0.34-0.39,0.43C497.78,48.47,497.57,48.48,497.34,48.41z"/>
				<path class="st0" d="M426.44,50.61c-1.28-0.41-2.23-1.13-2.85-2.16c-0.62-1.03-0.94-2.28-0.95-3.72
					c-0.01-1.45,0.24-2.98,0.75-4.59c0.52-1.63,1.2-3.03,2.05-4.19s1.82-1.99,2.93-2.48c1.11-0.48,2.3-0.52,3.58-0.12
					c1.31,0.42,2.27,1.14,2.89,2.17s0.93,2.27,0.95,3.71c0.02,1.44-0.23,2.98-0.75,4.61c-0.51,1.61-1.2,3.01-2.04,4.18
					c-0.85,1.17-1.82,2-2.92,2.49C428.96,50.99,427.75,51.03,426.44,50.61z M426.91,49.12c0.94,0.3,1.83,0.26,2.65-0.14
					c0.82-0.39,1.56-1.07,2.22-2.05c0.66-0.98,1.22-2.18,1.67-3.6c0.46-1.44,0.7-2.74,0.72-3.92c0.02-1.17-0.19-2.16-0.63-2.95
					c-0.44-0.79-1.14-1.34-2.08-1.64c-0.93-0.29-1.8-0.25-2.62,0.14c-0.82,0.39-1.56,1.07-2.23,2.04s-1.23,2.17-1.69,3.61
					c-0.45,1.42-0.69,2.73-0.7,3.91c-0.01,1.18,0.2,2.17,0.64,2.96C425.3,48.28,425.99,48.83,426.91,49.12z"/>
				<path class="st0" d="M440.71,55.15c-1.28-0.41-2.23-1.13-2.85-2.16c-0.62-1.03-0.94-2.28-0.95-3.72
					c-0.01-1.45,0.24-2.98,0.75-4.59c0.52-1.63,1.2-3.03,2.05-4.19c0.85-1.17,1.82-1.99,2.93-2.47c1.11-0.48,2.3-0.52,3.58-0.12
					c1.31,0.42,2.27,1.14,2.89,2.17c0.61,1.03,0.93,2.27,0.95,3.71c0.02,1.44-0.23,2.98-0.75,4.61c-0.51,1.62-1.2,3.01-2.04,4.18
					c-0.85,1.17-1.82,2-2.92,2.49C443.22,55.53,442.02,55.57,440.71,55.15z M441.18,53.67c0.94,0.3,1.82,0.25,2.64-0.14
					c0.82-0.39,1.56-1.07,2.22-2.05c0.66-0.98,1.22-2.18,1.67-3.6c0.46-1.44,0.7-2.74,0.72-3.92c0.02-1.17-0.19-2.16-0.63-2.95
					c-0.44-0.79-1.14-1.34-2.08-1.64c-0.93-0.29-1.8-0.25-2.62,0.14c-0.82,0.39-1.56,1.07-2.23,2.04c-0.67,0.97-1.23,2.17-1.69,3.61
					c-0.45,1.42-0.69,2.73-0.7,3.91c-0.01,1.18,0.2,2.17,0.64,2.96C439.57,52.83,440.25,53.37,441.18,53.67z"/>
				<path class="st0" d="M452.89,58.77c-0.21-0.07-0.36-0.2-0.47-0.39c-0.11-0.19-0.13-0.38-0.07-0.58l4.59-14.44l0.19,0.32
					l-3.86,0.94c-0.11,0.02-0.23,0.01-0.36-0.04c-0.22-0.07-0.38-0.21-0.47-0.43c-0.09-0.21-0.11-0.4-0.06-0.56
					c0.08-0.26,0.28-0.42,0.58-0.5l4.82-1.13c0.19-0.04,0.39-0.02,0.61,0.06c0.17,0.07,0.29,0.2,0.37,0.37s0.08,0.36,0.02,0.55
					l-4.88,15.35c-0.06,0.19-0.19,0.33-0.39,0.43C453.33,58.82,453.12,58.84,452.89,58.77z"/>
				<path class="st0" d="M462.96,62.23c-1.28-0.41-2.23-1.13-2.85-2.16c-0.62-1.03-0.94-2.27-0.95-3.72
					c-0.01-1.45,0.24-2.98,0.75-4.59c0.52-1.63,1.2-3.03,2.05-4.19c0.85-1.17,1.82-1.99,2.93-2.47c1.1-0.48,2.3-0.52,3.58-0.12
					c1.31,0.42,2.27,1.14,2.89,2.17c0.61,1.03,0.93,2.27,0.95,3.71s-0.23,2.98-0.75,4.61c-0.51,1.61-1.2,3.01-2.04,4.18
					c-0.85,1.17-1.82,2-2.92,2.49C465.47,62.62,464.27,62.65,462.96,62.23z M463.43,60.75c0.94,0.3,1.82,0.25,2.64-0.14
					c0.82-0.39,1.56-1.07,2.22-2.05c0.66-0.98,1.22-2.18,1.67-3.6c0.46-1.44,0.7-2.74,0.72-3.92c0.02-1.17-0.19-2.16-0.63-2.95
					c-0.44-0.79-1.14-1.34-2.08-1.64c-0.93-0.29-1.8-0.25-2.62,0.14c-0.82,0.39-1.56,1.07-2.23,2.04c-0.67,0.97-1.23,2.17-1.69,3.61
					c-0.45,1.42-0.69,2.73-0.7,3.91c-0.02,1.18,0.2,2.17,0.64,2.96C461.82,59.91,462.5,60.45,463.43,60.75z"/>
				<path class="st0" d="M475.14,65.85c-0.21-0.07-0.36-0.2-0.47-0.39c-0.11-0.19-0.13-0.38-0.07-0.58l4.59-14.44l0.19,0.32
					l-3.86,0.94c-0.11,0.02-0.23,0.01-0.36-0.03c-0.22-0.07-0.38-0.21-0.47-0.43c-0.09-0.21-0.11-0.4-0.06-0.56
					c0.08-0.26,0.27-0.42,0.58-0.5l4.82-1.13c0.19-0.05,0.39-0.02,0.61,0.06c0.17,0.07,0.29,0.2,0.37,0.37
					c0.08,0.17,0.08,0.36,0.02,0.55l-4.88,15.35c-0.06,0.19-0.19,0.34-0.39,0.43C475.58,65.91,475.37,65.92,475.14,65.85z"/>
				<path class="st0" d="M483.13,68.39c-0.21-0.07-0.36-0.2-0.47-0.39c-0.11-0.19-0.13-0.38-0.07-0.58l4.59-14.44l0.19,0.32
					l-3.86,0.94c-0.11,0.02-0.23,0.01-0.36-0.03c-0.22-0.07-0.38-0.21-0.47-0.43c-0.09-0.21-0.11-0.4-0.06-0.56
					c0.08-0.26,0.28-0.42,0.58-0.5l4.82-1.13c0.19-0.04,0.39-0.02,0.61,0.06c0.17,0.07,0.29,0.2,0.37,0.37
					c0.08,0.17,0.08,0.36,0.02,0.55l-4.88,15.35c-0.06,0.19-0.19,0.33-0.39,0.43C483.56,68.45,483.35,68.46,483.13,68.39z"/>
				<path class="st0" d="M493.2,71.86c-1.28-0.41-2.23-1.13-2.85-2.16c-0.62-1.03-0.94-2.28-0.95-3.72
					c-0.02-1.45,0.23-2.98,0.75-4.59c0.52-1.63,1.2-3.03,2.05-4.19c0.85-1.17,1.82-1.99,2.93-2.47c1.11-0.48,2.3-0.52,3.58-0.12
					c1.31,0.42,2.27,1.14,2.89,2.17c0.61,1.03,0.93,2.27,0.95,3.71c0.02,1.44-0.23,2.98-0.75,4.61c-0.51,1.61-1.2,3.01-2.05,4.18
					c-0.85,1.17-1.82,2-2.92,2.49C495.71,72.24,494.51,72.28,493.2,71.86z M493.67,70.37c0.94,0.3,1.82,0.26,2.64-0.14
					c0.82-0.39,1.56-1.07,2.22-2.05s1.22-2.18,1.67-3.6c0.46-1.44,0.7-2.75,0.72-3.92c0.02-1.17-0.19-2.16-0.63-2.95
					c-0.44-0.79-1.14-1.34-2.08-1.64c-0.93-0.29-1.8-0.25-2.62,0.14c-0.82,0.39-1.56,1.07-2.23,2.04c-0.67,0.97-1.23,2.17-1.69,3.61
					c-0.45,1.42-0.69,2.73-0.7,3.91c-0.02,1.18,0.2,2.17,0.64,2.96C492.06,69.53,492.74,70.08,493.67,70.37z"/>
				<path class="st0" d="M505.38,75.47c-0.21-0.07-0.37-0.2-0.47-0.39c-0.11-0.19-0.13-0.38-0.07-0.58l4.59-14.44l0.19,0.32
					l-3.86,0.94c-0.11,0.02-0.23,0.01-0.36-0.04c-0.22-0.07-0.38-0.21-0.47-0.43c-0.09-0.21-0.11-0.4-0.06-0.56
					c0.08-0.26,0.27-0.42,0.58-0.5l4.82-1.13c0.19-0.04,0.39-0.02,0.61,0.06c0.17,0.07,0.29,0.2,0.37,0.37s0.08,0.36,0.02,0.55
					l-4.89,15.35c-0.06,0.19-0.19,0.33-0.39,0.43C505.81,75.53,505.6,75.55,505.38,75.47z"/>
				<path class="st0" d="M433.63,77.4c-1.28-0.41-2.23-1.13-2.85-2.16c-0.62-1.03-0.94-2.27-0.95-3.72
					c-0.01-1.45,0.24-2.98,0.75-4.59c0.52-1.63,1.2-3.03,2.05-4.19c0.85-1.17,1.82-1.99,2.93-2.48c1.1-0.48,2.3-0.52,3.58-0.12
					c1.31,0.42,2.27,1.14,2.89,2.17s0.93,2.27,0.95,3.71c0.02,1.44-0.23,2.98-0.75,4.61c-0.51,1.61-1.2,3.01-2.04,4.18
					c-0.85,1.17-1.82,2-2.92,2.49C436.14,77.78,434.94,77.82,433.63,77.4z M434.1,75.91c0.94,0.3,1.82,0.26,2.64-0.14
					c0.82-0.39,1.56-1.07,2.23-2.05c0.66-0.98,1.22-2.18,1.67-3.6c0.46-1.44,0.7-2.74,0.72-3.92c0.02-1.17-0.19-2.16-0.63-2.95
					c-0.44-0.79-1.14-1.34-2.08-1.64c-0.93-0.29-1.8-0.25-2.62,0.14c-0.82,0.39-1.56,1.07-2.23,2.04s-1.23,2.17-1.69,3.61
					c-0.45,1.42-0.69,2.73-0.7,3.91c-0.02,1.18,0.2,2.17,0.64,2.96C432.48,75.08,433.17,75.62,434.1,75.91z"/>
				<path class="st0" d="M445.81,81.02c-0.21-0.07-0.37-0.2-0.47-0.39c-0.11-0.19-0.13-0.38-0.07-0.58l4.59-14.44l0.19,0.32
					l-3.86,0.94c-0.11,0.02-0.23,0.01-0.36-0.03c-0.22-0.07-0.38-0.21-0.47-0.43c-0.09-0.21-0.11-0.4-0.06-0.56
					c0.08-0.26,0.28-0.42,0.58-0.5l4.82-1.13c0.19-0.04,0.4-0.02,0.61,0.06c0.17,0.07,0.29,0.2,0.37,0.37
					c0.08,0.17,0.08,0.36,0.02,0.55l-4.88,15.35c-0.06,0.19-0.19,0.33-0.39,0.43C446.24,81.07,446.03,81.09,445.81,81.02z"/>
				<path class="st0" d="M453.79,83.56c-0.21-0.07-0.37-0.2-0.47-0.39c-0.11-0.19-0.13-0.38-0.07-0.58l4.59-14.44l0.19,0.32
					l-3.86,0.94c-0.11,0.02-0.23,0.01-0.36-0.03c-0.22-0.07-0.38-0.21-0.47-0.43c-0.09-0.21-0.11-0.4-0.06-0.56
					c0.08-0.26,0.27-0.42,0.58-0.5l4.82-1.13c0.19-0.05,0.39-0.02,0.61,0.06c0.17,0.07,0.29,0.2,0.37,0.37
					c0.08,0.17,0.08,0.36,0.02,0.55l-4.88,15.35c-0.06,0.19-0.19,0.34-0.39,0.43C454.23,83.62,454.02,83.63,453.79,83.56z"/>
				<path class="st0" d="M461.78,86.1c-0.21-0.07-0.37-0.2-0.47-0.39c-0.11-0.19-0.13-0.38-0.07-0.58l4.59-14.44l0.19,0.32
					l-3.86,0.94c-0.11,0.02-0.23,0.01-0.36-0.04c-0.22-0.07-0.38-0.21-0.47-0.43c-0.09-0.21-0.11-0.4-0.06-0.56
					c0.08-0.26,0.27-0.42,0.58-0.5l4.82-1.13c0.19-0.04,0.39-0.02,0.61,0.06c0.17,0.07,0.29,0.2,0.37,0.37
					c0.08,0.17,0.08,0.36,0.02,0.55l-4.88,15.35c-0.06,0.19-0.19,0.33-0.39,0.43C462.21,86.16,462,86.17,461.78,86.1z"/>
				<path class="st0" d="M471.85,89.57c-1.28-0.41-2.23-1.13-2.85-2.16c-0.62-1.03-0.94-2.27-0.95-3.72
					c-0.01-1.45,0.24-2.98,0.75-4.59c0.52-1.63,1.2-3.03,2.05-4.19c0.85-1.17,1.82-1.99,2.93-2.48c1.1-0.48,2.3-0.52,3.58-0.12
					c1.31,0.42,2.27,1.14,2.89,2.17c0.61,1.03,0.93,2.27,0.95,3.71c0.02,1.44-0.23,2.98-0.75,4.61c-0.51,1.62-1.2,3.01-2.04,4.18
					c-0.85,1.17-1.82,2-2.92,2.49C474.36,89.95,473.16,89.99,471.85,89.57z M472.32,88.08c0.94,0.3,1.82,0.25,2.64-0.14
					c0.82-0.39,1.56-1.07,2.23-2.05c0.66-0.98,1.22-2.18,1.67-3.6c0.46-1.44,0.7-2.74,0.72-3.92c0.02-1.17-0.19-2.16-0.63-2.95
					c-0.44-0.79-1.13-1.34-2.08-1.64c-0.93-0.29-1.8-0.25-2.62,0.14c-0.82,0.39-1.56,1.07-2.23,2.04c-0.67,0.97-1.23,2.17-1.69,3.61
					c-0.45,1.42-0.69,2.73-0.7,3.91c-0.02,1.18,0.2,2.17,0.64,2.96C470.71,87.24,471.39,87.79,472.32,88.08z"/>
				<path class="st0" d="M484.03,93.18c-0.21-0.07-0.37-0.2-0.47-0.39c-0.11-0.19-0.13-0.38-0.07-0.58l4.59-14.44l0.19,0.32
					l-3.86,0.94c-0.11,0.02-0.23,0.01-0.36-0.04c-0.22-0.07-0.38-0.21-0.47-0.43c-0.09-0.21-0.11-0.4-0.06-0.56
					c0.08-0.26,0.28-0.42,0.58-0.5l4.82-1.13c0.19-0.04,0.39-0.02,0.61,0.06c0.17,0.07,0.29,0.2,0.37,0.37
					c0.08,0.17,0.08,0.36,0.02,0.55l-4.88,15.35c-0.06,0.19-0.19,0.33-0.39,0.43C484.46,93.24,484.25,93.25,484.03,93.18z"/>
			</g>
		</g>
		<g>
			<g>
				<circle class="st1" cx="331.94" cy="259.15" r="205.84"/>
			</g>
			<g>
				<g>
					
						<rect x="289.81" y="371.72" transform="matrix(0.8953 -0.4454 0.4454 0.8953 -143.4705 181.8191)" class="st2" width="50.57" height="48.86"/>
					<circle class="st3" cx="315.25" cy="396.14" r="3.87"/>
				</g>
				<g>
					<circle class="st4" cx="456.9" cy="278.25" r="3.72"/>
					<circle class="st5" cx="489.17" cy="262.15" r="8.35"/>
				</g>
				<g>
					<g>
						
							<rect x="264.37" y="252.32" transform="matrix(0.8879 -0.4599 0.4599 0.8879 -83.6556 183.1553)" class="st6" width="139.42" height="21.91"/>
						
							<rect x="264.37" y="252.32" transform="matrix(0.4454 0.8953 -0.8953 0.4454 420.9831 -153.1021)" class="st6" width="139.42" height="21.91"/>
					</g>
					<g>
						
							<rect x="307.06" y="260.84" transform="matrix(0.8953 -0.4454 0.4454 0.8953 -82.296 176.3653)" class="st7" width="54.03" height="4.87"/>
						
							<rect x="307.06" y="260.84" transform="matrix(0.4454 0.8953 -0.8953 0.4454 420.9831 -153.1021)" class="st7" width="54.03" height="4.87"/>
					</g>
					<circle class="st8" cx="333.78" cy="263.5" r="107.33"/>
				</g>
				<g>
					<g>
						<line class="st9" x1="249.79" y1="378.58" x2="260.06" y2="372.94"/>
						<line class="st9" x1="257.53" y1="381" x2="252.32" y2="370.52"/>
					</g>
					<g>
						<line class="st10" x1="222.52" y1="370.33" x2="232.79" y2="364.69"/>
						<line class="st10" x1="230.26" y1="372.75" x2="225.05" y2="362.27"/>
					</g>
					<g>
						<line class="st10" x1="195.35" y1="361.67" x2="205.61" y2="356.04"/>
						<line class="st10" x1="203.09" y1="364.1" x2="197.87" y2="353.61"/>
					</g>
					<g>
						<line class="st11" x1="169.15" y1="352.87" x2="179.41" y2="347.23"/>
						<line class="st11" x1="176.89" y1="355.29" x2="171.67" y2="344.81"/>
					</g>
					<g>
						<line class="st11" x1="141.98" y1="344.21" x2="152.24" y2="338.58"/>
						<line class="st11" x1="149.72" y1="346.64" x2="144.5" y2="336.15"/>
					</g>
				</g>
			</g>
		</g>
	</g>
	<g>
		<polygon class="st12" points="286.82,91.36 291.14,75.1 300.1,86.28 		"/>
		<polygon class="st12" points="308.32,97.86 312.64,81.61 321.61,92.79 		"/>
		<polygon class="st12" points="330.13,104.84 334.45,88.59 343.41,99.76 		"/>
		<polygon class="st13" points="368.77,117.41 373.09,101.16 382.05,112.33 		"/>
	</g>
</g>
</svg>
