<?xml version="1.0" encoding="utf-8"?>
<!-- Generator: Adobe Illustrator 23.0.1, SVG Export Plug-In . SVG Version: 6.00 Build 0)  -->
<svg version="1.1" id="Camada_1" xmlns="http://www.w3.org/2000/svg" xmlns:xlink="http://www.w3.org/1999/xlink" x="0px" y="0px"
	 viewBox="0 0 640 480" style="enable-background:new 0 0 640 480;" xml:space="preserve">
<style type="text/css">
	.st0{fill:url(#SVGID_1_);}
	.st1{fill:url(#SVGID_2_);}
	.st2{opacity:0.4;fill:#404369;}
	.st3{fill:url(#SVGID_3_);}
	.st4{opacity:0.9;fill:url(#SVGID_4_);}
	.st5{fill:url(#SVGID_5_);}
	.st6{fill:url(#SVGID_6_);}
	.st7{opacity:0.7;fill:url(#SVGID_7_);}
	.st8{fill:#404369;}
	.st9{fill:url(#SVGID_8_);}
	.st10{fill:url(#SVGID_9_);}
	.st11{fill:#6585E7;}
	.st12{fill:#C0646C;}
	.st13{fill:#E4CC5A;}
	.st14{fill:#5D6274;}
	.st15{fill:#A04ECB;}
	.st16{fill:#B0CF67;}
	.st17{opacity:0.5;fill:url(#SVGID_10_);}
	.st18{opacity:0.5;fill:url(#SVGID_11_);}
	.st19{opacity:0.9;fill:url(#SVGID_12_);}
	.st20{opacity:0.9;fill:url(#SVGID_13_);}
	.st21{opacity:0.9;fill:url(#SVGID_14_);}
	.st22{opacity:0.9;fill:url(#SVGID_15_);}
	.st23{enable-background:new    ;}
	.st24{fill:url(#SVGID_16_);}
	.st25{fill:url(#SVGID_17_);}
	.st26{fill:#E2721B;}
	.st27{fill:url(#SVGID_18_);}
	.st28{fill:#E4E7EF;}
	.st29{fill:#FFFFFF;}
	.st30{opacity:0.5;fill:url(#SVGID_19_);}
	.st31{opacity:0.5;fill:url(#SVGID_20_);}
</style>
<g>
	<g>
		
			<linearGradient id="SVGID_1_" gradientUnits="userSpaceOnUse" x1="6819.0283" y1="285.0655" x2="6916.2603" y2="285.0655" gradientTransform="matrix(-1 0 0 1 7209.7344 0)">
			<stop  offset="0" style="stop-color:#222436"/>
			<stop  offset="1" style="stop-color:#161720"/>
		</linearGradient>
		<polygon class="st0" points="293.68,291.21 390.71,290.74 390.5,278.92 293.47,279.19 		"/>
		
			<linearGradient id="SVGID_2_" gradientUnits="userSpaceOnUse" x1="6849.394" y1="463.3207" x2="6872.7334" y2="358.2936" gradientTransform="matrix(-1 0 0 1 7209.7344 0)">
			<stop  offset="0" style="stop-color:#30334F"/>
			<stop  offset="1" style="stop-color:#242638"/>
		</linearGradient>
		<path class="st1" d="M283.32,415.28l2.07-100.01c0.06-2.87,0.22-5.67,0.45-8.25c0.24-2.59,0.55-4.98,0.92-7.04
			c0.37-2.06,0.8-3.79,1.26-5.05c0.46-1.26,0.95-2.05,1.45-2.23l4.21-1.5l97.02-0.47l-6,1.48c-0.72,0.18-1.42,0.95-2.09,2.2
			c-0.66,1.24-1.28,2.94-1.83,4.96c-0.54,2.02-1.01,4.37-1.36,6.92c-0.36,2.54-0.61,5.3-0.71,8.12l-3.72,98.45
			c-0.05,1.2-0.06,2.38-0.05,3.54c0.01,1.15,0.05,2.27,0.12,3.35c0.07,1.08,0.16,2.11,0.28,3.09c0.12,0.98,0.26,1.9,0.43,2.76
			c0.17,0.86,0.36,1.62,0.57,2.3c0.21,0.68,0.44,1.26,0.69,1.75c0.25,0.49,0.51,0.87,0.79,1.15c0.28,0.28,0.57,0.46,0.87,0.52
			l25.59,5.38l-100.25,3.06l-18.02-5.72c-0.21-0.07-0.42-0.25-0.61-0.54c-0.2-0.29-0.38-0.68-0.56-1.18
			c-0.18-0.5-0.34-1.09-0.49-1.78c-0.15-0.69-0.29-1.47-0.42-2.34c-0.12-0.87-0.23-1.81-0.32-2.8c-0.09-1-0.16-2.05-0.21-3.15
			c-0.05-1.1-0.09-2.24-0.1-3.41C283.29,417.71,283.3,416.5,283.32,415.28z"/>
		<path class="st2" d="M375.94,387.88l2.78-73.45c0.11-2.83,0.35-5.58,0.71-8.12c0.36-2.55,0.82-4.9,1.36-6.92
			c0.54-2.01,1.15-3.69,1.81-4.92l-89.33-3.11l-3.79,1.35c-0.5,0.18-0.99,0.97-1.45,2.23c-0.46,1.26-0.89,2.98-1.26,5.05
			c-0.37,2.05-0.68,4.44-0.92,7.04c-0.24,2.58-0.4,5.38-0.45,8.25l-2,96.58L375.94,387.88z"/>
		
			<linearGradient id="SVGID_3_" gradientUnits="userSpaceOnUse" x1="6855.2583" y1="442.3094" x2="6861.686" y2="504.5499" gradientTransform="matrix(-1 0 0 1 7209.7344 0)">
			<stop  offset="0" style="stop-color:#222436"/>
			<stop  offset="1" style="stop-color:#161720"/>
		</linearGradient>
		<polygon class="st3" points="304.25,452.23 404.49,448.95 404.28,436.72 304.03,439.79 		"/>
		
			<radialGradient id="SVGID_4_" cx="6855.9189" cy="438.265" r="33.2443" gradientTransform="matrix(-1 0 0 1 7209.7344 0)" gradientUnits="userSpaceOnUse">
			<stop  offset="0" style="stop-color:#7B8192"/>
			<stop  offset="0.0763" style="stop-color:#5A6C8C"/>
			<stop  offset="0.0784" style="stop-color:#576A8A"/>
			<stop  offset="0.1021" style="stop-color:#445676"/>
			<stop  offset="0.1291" style="stop-color:#364768"/>
			<stop  offset="0.1618" style="stop-color:#2D3F60"/>
			<stop  offset="0.2161" style="stop-color:#2B3D5D"/>
			<stop  offset="0.2801" style="stop-color:#212E48"/>
			<stop  offset="0.3776" style="stop-color:#151E2E"/>
			<stop  offset="0.4854" style="stop-color:#0C1019"/>
			<stop  offset="0.6073" style="stop-color:#05070B"/>
			<stop  offset="0.755" style="stop-color:#010203"/>
			<stop  offset="1" style="stop-color:#000000"/>
		</radialGradient>
		<path class="st4" d="M400.81,436.83l-93.99,2.87C306.82,439.7,383.82,438.82,400.81,436.83z"/>
		
			<linearGradient id="SVGID_5_" gradientUnits="userSpaceOnUse" x1="6916.5479" y1="371.1598" x2="6891.6865" y2="430.2695" gradientTransform="matrix(-1 0 0 1 7209.7344 0)">
			<stop  offset="0" style="stop-color:#0E1012"/>
			<stop  offset="1" style="stop-color:#111216"/>
		</linearGradient>
		<path class="st5" d="M289.27,280.92c-0.73,0.3-1.43,1.45-2.08,3.26c-0.65,1.8-1.25,4.25-1.77,7.18c-0.52,2.91-0.96,6.3-1.28,9.99
			c-0.33,3.68-0.55,7.66-0.63,11.79l-2.02,99.18c-0.04,2.06-0.05,4.09-0.02,6.09c0.03,2,0.09,3.96,0.18,5.86
			c0.09,1.9,0.22,3.74,0.38,5.5c0.16,1.76,0.35,3.45,0.58,5.03c0.22,1.59,0.47,3.01,0.74,4.27c0.27,1.26,0.56,2.35,0.86,3.26
			c0.31,0.91,0.63,1.64,0.96,2.17c0.34,0.54,0.69,0.88,1.05,1.01l18.04,6.71l-0.22-12.45l-18.02-5.72
			c-0.21-0.07-0.42-0.25-0.61-0.54c-0.2-0.29-0.38-0.68-0.56-1.18c-0.18-0.5-0.34-1.09-0.49-1.78c-0.15-0.69-0.29-1.47-0.42-2.34
			c-0.12-0.87-0.23-1.81-0.32-2.8c-0.09-1-0.16-2.05-0.21-3.15c-0.05-1.1-0.09-2.24-0.1-3.41c-0.01-1.17-0.01-2.37,0.02-3.59
			l2.07-100.01c0.06-2.87,0.22-5.67,0.45-8.25c0.24-2.59,0.55-4.98,0.92-7.04c0.37-2.06,0.8-3.79,1.26-5.05
			c0.46-1.26,0.95-2.05,1.45-2.23l4.21-1.5l-0.21-12.02L289.27,280.92z"/>
	</g>
	<g>
		
			<linearGradient id="SVGID_6_" gradientUnits="userSpaceOnUse" x1="7117.0752" y1="-4.593" x2="7108.2813" y2="295.7746" gradientTransform="matrix(-1 0 0 1 7209.7344 0)">
			<stop  offset="0" style="stop-color:#222436"/>
			<stop  offset="1" style="stop-color:#161720"/>
		</linearGradient>
		<path class="st6" d="M83.12,27.98c0.34-1.53,0.89-2.94,1.6-4.2c0.71-1.26,1.6-2.37,2.62-3.29c1.02-0.92,2.19-1.66,3.45-2.18
			c4.47-1.82,8.94-3.64,13.41-5.46c-1.27,0.52-2.44,1.26-3.47,2.19c-1.03,0.93-1.91,2.04-2.63,3.31c-0.72,1.27-1.26,2.69-1.6,4.23
			c-0.35,1.54-0.48,3.2-0.39,4.94l15.52,289.47l-13.72,3.37L82.73,32.88C82.63,31.15,82.78,29.51,83.12,27.98z"/>
		
			<radialGradient id="SVGID_7_" cx="7096.29" cy="317.1222" r="245.13" gradientTransform="matrix(-1 0 0 1 7209.7344 0)" gradientUnits="userSpaceOnUse">
			<stop  offset="0" style="stop-color:#7B8192"/>
			<stop  offset="0.2215" style="stop-color:#5A6C8C"/>
			<stop  offset="0.2253" style="stop-color:#576A8A"/>
			<stop  offset="0.2701" style="stop-color:#445676"/>
			<stop  offset="0.3209" style="stop-color:#364768"/>
			<stop  offset="0.3826" style="stop-color:#2D3F60"/>
			<stop  offset="0.4849" style="stop-color:#2B3D5D"/>
			<stop  offset="0.527" style="stop-color:#212E48"/>
			<stop  offset="0.5911" style="stop-color:#151E2E"/>
			<stop  offset="0.6619" style="stop-color:#0C1019"/>
			<stop  offset="0.742" style="stop-color:#05070B"/>
			<stop  offset="0.839" style="stop-color:#010203"/>
			<stop  offset="1" style="stop-color:#000000"/>
		</radialGradient>
		<path class="st7" d="M95.92,30.09c-0.07-1.3,0.03-2.53,0.21-3.72c0,0.38-0.03,0.75-0.01,1.14l15.52,289.47l-0.55,0.13L95.92,30.09
			z"/>
		<path class="st8" d="M109.87,12.04c-2.02-0.19-3.92,0.1-5.62,0.79c-1.71,0.69-3.22,1.77-4.47,3.17c-1.25,1.4-2.22,3.12-2.86,5.06
			c-0.63,1.95-0.93,4.12-0.8,6.45l15.52,289.47l459.94,8.2L551.35,68.24c-0.16-2.07-0.64-4.07-1.37-5.91
			c-0.73-1.85-1.71-3.54-2.86-4.99c-1.16-1.45-2.5-2.67-3.95-3.56c-1.45-0.89-3.02-1.45-4.63-1.6L109.87,12.04z"/>
		
			<linearGradient id="SVGID_8_" gradientUnits="userSpaceOnUse" x1="6646.0273" y1="347.0861" x2="7111.8193" y2="347.0861" gradientTransform="matrix(-1 0 0 1 7209.7344 0)">
			<stop  offset="0" style="stop-color:#0E1012"/>
			<stop  offset="1" style="stop-color:#111216"/>
		</linearGradient>
		<path class="st9" d="M111.63,316.97l2.06,38.34c0.13,2.41,0.67,4.71,1.54,6.81c0.87,2.09,2.06,3.98,3.49,5.57
			c1.43,1.59,3.11,2.87,4.93,3.76c1.83,0.89,3.8,1.39,5.85,1.39l434.2,1.72l-15.15,2.63l-432.89-1.39c-2.04-0.01-4.01-0.5-5.83-1.38
			c-1.82-0.88-3.48-2.16-4.91-3.73c-1.43-1.57-2.61-3.45-3.47-5.53c-0.86-2.08-1.4-4.36-1.52-6.76l-2.01-38.07L111.63,316.97z"/>
		
			<linearGradient id="SVGID_9_" gradientUnits="userSpaceOnUse" x1="6872.7627" y1="349.2522" x2="7031.7407" y2="542.7339" gradientTransform="matrix(-1 0 0 1 7209.7344 0)">
			<stop  offset="0" style="stop-color:#30334F"/>
			<stop  offset="1" style="stop-color:#242638"/>
		</linearGradient>
		<path class="st10" d="M111.63,316.97l2.06,38.34c0.13,2.41,0.67,4.71,1.54,6.81c0.87,2.09,2.06,3.98,3.49,5.57
			c1.43,1.59,3.11,2.87,4.93,3.76c1.83,0.89,3.8,1.39,5.85,1.39l434.2,1.72c1.63,0.01,3.14-0.42,4.49-1.2
			c1.34-0.78,2.52-1.91,3.47-3.3c0.95-1.4,1.68-3.06,2.13-4.91c0.45-1.85,0.62-3.88,0.45-6.02l-2.67-33.96L111.63,316.97z"/>
		<g>
			<g>
				<polygon class="st11" points="126.74,237.05 131.52,237.16 129.59,201.33 124.81,201.16 				"/>
				<polygon class="st11" points="118.05,74.69 122.78,75.05 120.9,40.12 116.17,39.71 				"/>
				<polygon class="st11" points="182.59,123.81 200.08,124.89 199.78,119.93 182.29,118.82 				"/>
				<polygon class="st11" points="273.16,124.6 273.48,129.44 372.92,135.6 372.58,130.92 				"/>
			</g>
			<g>
				<polygon class="st12" points="212.29,177.08 212.59,182.07 265.93,184.38 265.61,179.47 				"/>
				<polygon class="st12" points="226.57,210.99 267.75,212.38 267.42,207.46 226.26,206 				"/>
				<polygon class="st12" points="217.79,267.98 271.4,268.77 271.08,263.8 217.48,262.93 				"/>
				<polygon class="st12" points="231.86,296.93 273.23,297.13 272.91,292.16 231.55,291.89 				"/>
				<polygon class="st12" points="245.09,150.61 198.25,148.07 198.54,153.06 245.39,155.52 				"/>
			</g>
			<g>
				<polygon class="st13" points="262.02,123.89 262.33,128.74 210.99,125.56 210.68,120.63 				"/>
			</g>
			<g>
				<polygon class="st14" points="140.77,64.09 158.65,65.53 158.36,60.56 140.49,59.09 				"/>
				<polygon class="st14" points="142.36,92.68 160.26,93.96 159.97,88.96 142.08,87.66 				"/>
				<polygon class="st14" points="143.95,121.41 161.89,122.52 161.6,117.5 143.67,116.36 				"/>
				<polygon class="st14" points="147.15,179.24 165.16,180.01 164.86,174.95 146.87,174.14 				"/>
				<polygon class="st14" points="148.77,208.37 166.8,208.97 166.51,203.89 148.48,203.25 				"/>
				<polygon class="st14" points="152.01,267.02 170.11,267.29 169.82,262.15 151.73,261.85 				"/>
				<polygon class="st14" points="153.65,296.53 171.77,296.62 171.48,291.48 153.36,291.36 				"/>
				<polygon class="st14" points="145.55,150.27 163.52,151.21 163.23,146.17 145.27,145.19 				"/>
				<polygon class="st14" points="150.39,237.63 168.45,238.06 168.16,232.95 150.1,232.48 				"/>
				<polygon class="st14" points="244.56,67.64 244.87,72.47 311.95,77.87 311.63,73.15 				"/>
			</g>
			<g>
				<polygon class="st15" points="179.27,67.19 224.7,70.85 224.39,65.98 178.99,62.25 				"/>
				<polygon class="st15" points="332.9,74.9 333.24,79.59 365.5,82.19 365.16,77.55 				"/>
			</g>
			<g>
				<polygon class="st16" points="278.95,212.76 329.76,214.47 329.42,209.65 278.63,207.86 				"/>
				<polygon class="st16" points="284.49,297.19 335.53,297.45 335.2,292.59 284.16,292.24 				"/>
				<polygon class="st16" points="377.41,78.55 377.75,83.17 505.02,93.43 504.64,89.01 				"/>
			</g>
		</g>
		
			<linearGradient id="SVGID_10_" gradientUnits="userSpaceOnUse" x1="7052.9722" y1="219.0756" x2="6730.7598" y2="-10.7199" gradientTransform="matrix(-1 0 0 1 7209.7344 0)">
			<stop  offset="0" style="stop-color:#FFFFFF;stop-opacity:0"/>
			<stop  offset="1" style="stop-color:#CDCFD3"/>
		</linearGradient>
		<path class="st17" d="M217.41,22.1l144.4,13.52L156.53,372.96l-27.03-0.11c-2.05-0.01-4.03-0.5-5.85-1.39
			c-1.83-0.89-3.5-2.18-4.93-3.76c-1.43-1.59-2.62-3.48-3.49-5.57c-0.87-2.09-1.41-4.4-1.54-6.81l-2.06-38.34l-5.96-111.24
			L217.41,22.1z"/>
		
			<linearGradient id="SVGID_11_" gradientUnits="userSpaceOnUse" x1="6801.9268" y1="287.8427" x2="6510.5469" y2="80.0364" gradientTransform="matrix(-1 0 0 1 7209.7344 0)">
			<stop  offset="0" style="stop-color:#FFFFFF;stop-opacity:0"/>
			<stop  offset="1" style="stop-color:#CDCFD3"/>
		</linearGradient>
		<path class="st18" d="M490.89,374.28l-152.26-0.6L534.51,51.79l4.04,0.38c1.61,0.15,3.17,0.71,4.63,1.6
			c1.45,0.89,2.79,2.1,3.95,3.56c1.16,1.45,2.13,3.15,2.86,4.99c0.73,1.85,1.21,3.84,1.37,5.91l14.4,183.02L490.89,374.28z"/>
		
			<radialGradient id="SVGID_12_" cx="19976.9453" cy="40230.4766" r="69.7151" gradientTransform="matrix(0.0364 0.9024 -0.1325 -0.4216 5165.7617 -857.2494)" gradientUnits="userSpaceOnUse">
			<stop  offset="0" style="stop-color:#7B8192"/>
			<stop  offset="0.0763" style="stop-color:#5A6C8C"/>
			<stop  offset="0.0784" style="stop-color:#576A8A"/>
			<stop  offset="0.1021" style="stop-color:#445676"/>
			<stop  offset="0.1291" style="stop-color:#364768"/>
			<stop  offset="0.1618" style="stop-color:#2D3F60"/>
			<stop  offset="0.2161" style="stop-color:#2B3D5D"/>
			<stop  offset="0.2801" style="stop-color:#212E48"/>
			<stop  offset="0.3776" style="stop-color:#151E2E"/>
			<stop  offset="0.4854" style="stop-color:#0C1019"/>
			<stop  offset="0.6073" style="stop-color:#05070B"/>
			<stop  offset="0.755" style="stop-color:#010203"/>
			<stop  offset="1" style="stop-color:#000000"/>
		</radialGradient>
		<path class="st19" d="M564.92,271.66c-5.1-16.23-10.38-57.54-11.78-92.27c-1.4-34.74,1.6-49.73,6.7-33.51
			c5.11,16.23,10.38,57.55,11.78,92.28C573.03,272.9,570.03,287.9,564.92,271.66z"/>
		
			<radialGradient id="SVGID_13_" cx="6647.3511" cy="208.4022" r="65.7803" gradientTransform="matrix(-1 0 0 1 7209.7344 0)" gradientUnits="userSpaceOnUse">
			<stop  offset="0" style="stop-color:#7B8192"/>
			<stop  offset="0.0763" style="stop-color:#5A6C8C"/>
			<stop  offset="0.0784" style="stop-color:#576A8A"/>
			<stop  offset="0.1021" style="stop-color:#445676"/>
			<stop  offset="0.1291" style="stop-color:#364768"/>
			<stop  offset="0.1618" style="stop-color:#2D3F60"/>
			<stop  offset="0.2161" style="stop-color:#2B3D5D"/>
			<stop  offset="0.2801" style="stop-color:#212E48"/>
			<stop  offset="0.3776" style="stop-color:#151E2E"/>
			<stop  offset="0.4854" style="stop-color:#0C1019"/>
			<stop  offset="0.6073" style="stop-color:#05070B"/>
			<stop  offset="0.755" style="stop-color:#010203"/>
			<stop  offset="1" style="stop-color:#000000"/>
		</radialGradient>
		<path class="st20" d="M555.09,115.66l14.59,185.48C569.68,301.14,559.94,201.15,555.09,115.66z"/>
		
			<radialGradient id="SVGID_14_" cx="3947.6113" cy="12838.8467" r="69.7101" gradientTransform="matrix(0.8898 0.1735 -0.4475 0.1488 2544.2839 -2563.678)" gradientUnits="userSpaceOnUse">
			<stop  offset="0" style="stop-color:#7B8192"/>
			<stop  offset="0.0763" style="stop-color:#5A6C8C"/>
			<stop  offset="0.0784" style="stop-color:#576A8A"/>
			<stop  offset="0.1021" style="stop-color:#445676"/>
			<stop  offset="0.1291" style="stop-color:#364768"/>
			<stop  offset="0.1618" style="stop-color:#2D3F60"/>
			<stop  offset="0.2161" style="stop-color:#2B3D5D"/>
			<stop  offset="0.2801" style="stop-color:#212E48"/>
			<stop  offset="0.3776" style="stop-color:#151E2E"/>
			<stop  offset="0.4854" style="stop-color:#0C1019"/>
			<stop  offset="0.6073" style="stop-color:#05070B"/>
			<stop  offset="0.755" style="stop-color:#010203"/>
			<stop  offset="1" style="stop-color:#000000"/>
		</radialGradient>
		<path class="st21" d="M373.49,43.75c-17.23,5.73-58.95,4.96-93.2-1.71c-34.25-6.68-48.05-16.74-30.83-22.47
			c17.23-5.73,58.96-4.96,93.2,1.71C376.92,27.96,390.72,38.02,373.49,43.75z"/>
	</g>
	
		<radialGradient id="SVGID_15_" cx="6903.0908" cy="30.4583" r="113.8968" gradientTransform="matrix(-1 0 0 1 7209.7344 0)" gradientUnits="userSpaceOnUse">
		<stop  offset="0" style="stop-color:#7B8192"/>
		<stop  offset="0.0763" style="stop-color:#5A6C8C"/>
		<stop  offset="0.0784" style="stop-color:#576A8A"/>
		<stop  offset="0.1021" style="stop-color:#445676"/>
		<stop  offset="0.1291" style="stop-color:#364768"/>
		<stop  offset="0.1618" style="stop-color:#2D3F60"/>
		<stop  offset="0.2161" style="stop-color:#2B3D5D"/>
		<stop  offset="0.2801" style="stop-color:#212E48"/>
		<stop  offset="0.3776" style="stop-color:#151E2E"/>
		<stop  offset="0.4854" style="stop-color:#0C1019"/>
		<stop  offset="0.6073" style="stop-color:#05070B"/>
		<stop  offset="0.755" style="stop-color:#010203"/>
		<stop  offset="1" style="stop-color:#000000"/>
	</radialGradient>
	<path class="st22" d="M467.02,45.47L146.27,15.45C146.27,15.45,325.64,34.84,467.02,45.47z"/>
</g>
<g class="st23">
	<linearGradient id="SVGID_16_" gradientUnits="userSpaceOnUse" x1="79.7431" y1="303.2865" x2="248.111" y2="303.2865">
		<stop  offset="0" style="stop-color:#0E1012"/>
		<stop  offset="1" style="stop-color:#111216"/>
	</linearGradient>
	<path class="st24" d="M241.31,455.87l-114.92,5.71c-10.01,0.5-18.87-7.99-19.69-18.92L85.47,157.92
		c-0.56-7.57,3.2-13.75,9.07-16.27l-5.61,2.4c-5.91,2.53-9.69,8.75-9.13,16.33l21.18,285.56c0.81,10.96,9.72,19.46,19.78,18.95
		l115.48-5.88c2.51-0.13,4.81-0.89,6.83-2.14l5.05-3.13C246.11,454.99,243.8,455.75,241.31,455.87z"/>
	<linearGradient id="SVGID_17_" gradientUnits="userSpaceOnUse" x1="85.4099" y1="301.0172" x2="256.0621" y2="301.0172">
		<stop  offset="0" style="stop-color:#222436"/>
		<stop  offset="1" style="stop-color:#161720"/>
	</linearGradient>
	<path class="st25" d="M215.46,150c8.89,0.75,16.76,9.33,17.61,19.15l22.92,267.33c0.88,10.24-5.68,18.95-14.67,19.39l-114.92,5.71
		c-10.01,0.5-18.87-7.99-19.69-18.92L85.47,157.92c-0.78-10.45,6.68-18.26,16.55-17.43L215.46,150z"/>
	<path class="st26" d="M229.66,329.46c3.19,0.04,5.99,2.99,6.25,6.59l1.35,18.51c0.26,3.62-2.11,6.55-5.31,6.56l-116.17,0.12
		c-3.54,0.01-6.61-3.09-6.86-6.91l-1.23-19.54c-0.24-3.8,2.44-6.85,5.98-6.8L229.66,329.46z"/>
	<path class="st26" d="M232.64,370.59c3.2-0.02,6.01,2.91,6.27,6.53l1.36,18.64c0.26,3.63-2.11,6.63-5.32,6.7l-116.42,2.23
		c-3.55,0.07-6.63-2.99-6.88-6.83l-1.23-19.69c-0.24-3.83,2.44-6.94,5.99-6.96L232.64,370.59z"/>
	<path class="st26" d="M163.55,188.48c14.37,1.04,27.67,8.24,37.59,18.99c9.86,10.68,16.51,24.98,17.62,40.4
		c1.12,15.46-3.52,29.31-11.96,39.23c-8.53,10.01-21.03,16.09-35.46,15.74c-14.63-0.35-28.47-7.2-38.92-18.04
		c-10.54-10.92-17.62-25.82-18.66-41.99c-0.08-1.3,0.57-2.37,1.58-2.82c0.36-0.16,0.76-0.23,1.19-0.21
		c0.49,0.03,0.95,0.17,1.37,0.41c1,0.57,1.73,1.67,1.81,2.91c0.92,14.38,7.2,27.6,16.58,37.34c9.32,9.67,21.6,15.78,34.62,16.14
		c12.89,0.33,24.02-5.04,31.66-13.96c7.57-8.86,11.72-21.19,10.72-35.01c-0.99-13.79-6.91-26.53-15.75-36.08
		c-8.89-9.59-20.75-15.99-33.57-16.88c-1.11-0.08-2.11-0.83-2.65-1.87c-0.23-0.43-0.37-0.92-0.41-1.42
		c-0.03-0.44,0.03-0.86,0.16-1.23C161.44,189.08,162.39,188.4,163.55,188.48z"/>
	<path class="st14" d="M161.07,190.13c-0.13,0.36-0.19,0.78-0.16,1.23c0.04,0.5,0.18,0.98,0.41,1.42
		c-24.82-0.35-43.84,20.14-43.42,47.42c-0.41-0.24-0.88-0.39-1.37-0.41c-0.43-0.02-0.83,0.06-1.19,0.21
		C114.87,211.25,134.94,189.69,161.07,190.13z"/>
	<g>
		<linearGradient id="SVGID_18_" gradientUnits="userSpaceOnUse" x1="146.2412" y1="154.0611" x2="175.9809" y2="154.0611">
			<stop  offset="0" style="stop-color:#0E1012"/>
			<stop  offset="1" style="stop-color:#111216"/>
		</linearGradient>
		<path class="st27" d="M174.78,154.05c0.61,0.05,1.15,0.64,1.19,1.3c0.05,0.67-0.41,1.17-1.03,1.12l-27.48-2.37
			c-0.63-0.05-1.18-0.64-1.22-1.33c-0.05-0.67,0.43-1.18,1.06-1.12L174.78,154.05z"/>
	</g>
	<g>
		<polygon class="st28" points="143.34,228.7 144.03,239 149.4,239.27 149.07,234.36 159.06,234.88 149.68,262.82 155.43,263.06 
			164.38,235.26 164.01,229.83 		"/>
		<path class="st28" d="M190.24,255.21l-0.23-3.25c-0.21-2.95-1.04-5.29-2.52-6.99c-1.47-1.71-3.43-2.62-5.87-2.74
			c-1.51-0.08-2.73,0.15-3.66,0.71c-0.94,0.55-1.51,1.35-1.8,2.4l-0.59-9.72l12.22,0.64l-0.35-5.15l-17.18-0.94l1.05,18.46
			l5.13,0.24c0.28-0.69,0.75-1.22,1.37-1.59c0.63-0.36,1.38-0.52,2.24-0.48c1.45,0.07,2.58,0.53,3.39,1.37
			c0.8,0.84,1.26,2.03,1.36,3.55l0.22,3.26c0.11,1.53-0.19,2.69-0.9,3.48c-0.71,0.79-1.77,1.16-3.2,1.09
			c-1.31-0.06-2.36-0.41-3.15-1.07c-0.78-0.66-1.27-1.57-1.46-2.75l-5.26-0.23c0.35,2.68,1.44,4.83,3.26,6.45
			c1.82,1.62,4.14,2.49,6.96,2.6c3.01,0.12,5.31-0.65,6.89-2.32C189.76,260.56,190.45,258.22,190.24,255.21z"/>
	</g>
	<g>
		<path class="st29" d="M231.27,335.52c-0.04-0.59-0.5-1.07-1.02-1.08c-0.52-0.01-0.9,0.47-0.86,1.06c0.04,0.58,0.49,1.07,1.02,1.07
			C230.93,336.58,231.32,336.1,231.27,335.52z"/>
		<path class="st29" d="M231.58,339.71c-0.05-0.58-0.5-1.06-1.02-1.07c-0.52-0.01-0.91,0.47-0.86,1.05
			c0.04,0.59,0.49,1.07,1.02,1.08C231.23,340.78,231.62,340.31,231.58,339.71z"/>
		<path class="st29" d="M230.87,342.85c-0.52-0.01-0.91,0.47-0.86,1.05c0.04,0.58,0.5,1.07,1.02,1.08c0.52,0,0.9-0.48,0.86-1.07
			C231.84,343.33,231.39,342.85,230.87,342.85z"/>
	</g>
	<g>
		<path class="st29" d="M194.45,340.49c0.53,0,0.94-0.48,0.89-1.07c-0.04-0.6-0.51-1.09-1.04-1.09l-74.66-0.65
			c-0.57,0-1,0.49-0.96,1.1c0.04,0.62,0.54,1.12,1.1,1.13L194.45,340.49z"/>
		<path class="st29" d="M176.36,349.56l-55.97-0.22c-0.58,0-1.01,0.5-0.97,1.11c0.04,0.61,0.54,1.12,1.11,1.12l55.98,0.16
			c0.54,0,0.96-0.49,0.92-1.09C177.39,350.05,176.9,349.56,176.36,349.56z"/>
		<path class="st29" d="M194.69,343.98l-74.68-0.47c-0.57,0-1,0.49-0.97,1.11c0.04,0.62,0.53,1.11,1.11,1.12l74.69,0.4
			c0.54,0,0.93-0.48,0.9-1.07C195.7,344.47,195.23,343.98,194.69,343.98z"/>
	</g>
	<g>
		<path class="st29" d="M234.27,376.66c-0.04-0.59-0.5-1.06-1.02-1.06c-0.52,0-0.9,0.48-0.86,1.07c0.04,0.59,0.5,1.07,1.02,1.06
			C233.92,377.73,234.31,377.25,234.27,376.66z"/>
		<path class="st29" d="M234.57,380.89c-0.04-0.59-0.5-1.07-1.02-1.07c-0.52,0.01-0.91,0.49-0.86,1.09c0.04,0.59,0.5,1.06,1.02,1.06
			C234.23,381.96,234.62,381.47,234.57,380.89z"/>
		<path class="st29" d="M233.86,384.05c-0.52,0.01-0.91,0.49-0.87,1.08c0.04,0.6,0.5,1.07,1.02,1.07c0.52-0.01,0.91-0.49,0.86-1.09
			C234.84,384.52,234.38,384.05,233.86,384.05z"/>
	</g>
	<g>
		<path class="st29" d="M197.37,382.34c0.53-0.01,0.94-0.5,0.89-1.1c-0.04-0.6-0.51-1.09-1.05-1.08l-74.82,0.69
			c-0.57,0-1.01,0.51-0.96,1.14c0.04,0.61,0.53,1.11,1.11,1.11L197.37,382.34z"/>
		<path class="st29" d="M197.62,385.85l-74.84,0.88c-0.57,0.01-1,0.52-0.96,1.14c0.04,0.62,0.53,1.11,1.11,1.11l74.85-0.94
			c0.54-0.01,0.94-0.5,0.9-1.1C198.62,386.32,198.15,385.84,197.62,385.85z"/>
		<path class="st29" d="M179.24,391.81l-56.09,0.79c-0.57,0.01-1,0.52-0.97,1.14c0.04,0.63,0.54,1.12,1.11,1.11l56.1-0.85
			c0.54-0.01,0.96-0.51,0.92-1.12C180.27,392.28,179.79,391.8,179.24,391.81z"/>
	</g>
	<g>
		<path class="st29" d="M101.09,163.4c0.22,0.01,0.45,0.12,0.62,0.32c0.35,0.37,0.39,0.94,0.08,1.27l-2.56,2.67l2.93,3.11
			c0.35,0.38,0.39,0.95,0.08,1.27c-0.16,0.16-0.37,0.24-0.59,0.22c-0.22-0.02-0.44-0.13-0.62-0.32l-3.58-3.79
			c-0.16-0.18-0.27-0.41-0.29-0.66c-0.02-0.23,0.06-0.46,0.21-0.61l3.14-3.26C100.66,163.45,100.87,163.38,101.09,163.4z"/>
	</g>
	<g>
		<path class="st29" d="M179.95,429.25c0.21-0.01,0.42-0.11,0.56-0.29l2.97-3.67c0.3-0.36,0.26-0.95-0.09-1.29
			c-0.17-0.17-0.39-0.25-0.59-0.25c-0.21,0.01-0.41,0.1-0.56,0.28l-2.44,3.01l-2.83-2.86c-0.18-0.17-0.4-0.26-0.61-0.25
			c-0.21,0.01-0.41,0.1-0.56,0.28c-0.3,0.36-0.26,0.94,0.09,1.29l3.47,3.49C179.51,429.17,179.73,429.26,179.95,429.25z"/>
		<path class="st29" d="M183.88,431.26c-0.17-0.17-0.38-0.25-0.59-0.25c-0.21,0.01-0.42,0.1-0.57,0.29l-2.44,3.02l-2.84-2.86
			c-0.18-0.17-0.39-0.25-0.6-0.25c-0.21,0-0.42,0.1-0.56,0.28c-0.3,0.37-0.27,0.95,0.09,1.3l3.47,3.49c0.16,0.16,0.38,0.26,0.6,0.25
			c0.21,0,0.42-0.11,0.57-0.28l2.97-3.69C184.27,432.19,184.24,431.62,183.88,431.26z"/>
	</g>
	<g>
		<path class="st26" d="M177.72,174.09c-0.1,0.06-0.23,0.08-0.41,0.06c-0.44-0.03-0.68-0.31-0.72-0.83l-0.02-0.26l2.06,0.17
			l-0.05-0.67c-0.02-0.28-0.09-0.55-0.22-0.77c-0.13-0.22-0.31-0.41-0.52-0.54c-0.22-0.13-0.46-0.22-0.75-0.24
			c-0.28-0.02-0.52,0.02-0.73,0.12c-0.2,0.1-0.36,0.26-0.46,0.46c-0.1,0.2-0.13,0.46-0.11,0.74l0.06,0.93
			c0.02,0.28,0.09,0.55,0.22,0.77c0.13,0.23,0.31,0.41,0.52,0.54c0.22,0.14,0.48,0.22,0.76,0.24c0.36,0.03,0.66-0.04,0.9-0.21
			c0.23-0.17,0.38-0.41,0.4-0.72l-0.76-0.06C177.87,173.93,177.81,174.03,177.72,174.09z M176.52,172.39
			c-0.02-0.25,0.02-0.44,0.13-0.58c0.1-0.12,0.27-0.18,0.48-0.17c0.22,0.02,0.39,0.1,0.51,0.24c0.11,0.14,0.19,0.34,0.2,0.6
			l0.01,0.13l-1.32-0.09L176.52,172.39z"/>
		<path class="st26" d="M141.26,168.32l-1.33-0.11l-0.02-0.27c-0.01-0.09,0.01-0.18,0.06-0.22c0.05-0.05,0.12-0.07,0.22-0.06
			l1.04,0.08l-0.05-0.75l-1.06-0.09c-0.33-0.03-0.57,0.05-0.76,0.23c-0.19,0.17-0.27,0.42-0.25,0.73l0.02,0.29l-0.96-0.07l0.05,0.77
			l0.95,0.08l0.19,2.85l0.8,0.06l-0.19-2.85l1.33,0.11L141.26,168.32z"/>
		<polygon class="st26" points="144.25,171.38 144.05,168.43 142.25,168.28 142.3,169.05 143.36,169.13 143.5,171.32 142.29,171.23 
			142.34,172 145.38,172.24 145.32,171.46 		"/>
		<path class="st26" d="M143.54,167.83l0.12,0.01c0.13,0.01,0.24-0.02,0.32-0.09c0.08-0.08,0.11-0.18,0.1-0.32
			c-0.01-0.14-0.06-0.24-0.15-0.33c-0.08-0.09-0.2-0.14-0.33-0.15l-0.12-0.01c-0.14-0.01-0.24,0.02-0.32,0.09
			c-0.07,0.08-0.11,0.18-0.1,0.32c0.01,0.13,0.06,0.24,0.15,0.34C143.29,167.77,143.4,167.82,143.54,167.83z"/>
		<path class="st26" d="M148.04,171.69c-0.12-0.01-0.22-0.06-0.3-0.15c-0.08-0.09-0.12-0.19-0.13-0.33l-0.25-3.73l-1.84-0.15
			l0.05,0.76l1.06,0.09l0.2,2.96c0.03,0.36,0.15,0.66,0.37,0.9c0.22,0.24,0.51,0.37,0.85,0.4l1.13,0.09l-0.05-0.76L148.04,171.69z"
			/>
		<path class="st26" d="M151.69,172.04c-0.1,0.05-0.23,0.08-0.41,0.06c-0.46-0.03-0.71-0.32-0.75-0.84l-0.02-0.26l2.1,0.16
			l-0.04-0.67c-0.02-0.28-0.09-0.55-0.23-0.77c-0.13-0.23-0.31-0.41-0.53-0.55c-0.22-0.14-0.48-0.22-0.76-0.25
			c-0.29-0.02-0.53,0.02-0.75,0.13c-0.2,0.1-0.37,0.26-0.46,0.46c-0.1,0.21-0.14,0.47-0.12,0.75l0.07,0.93
			c0.02,0.29,0.09,0.56,0.22,0.78c0.14,0.23,0.32,0.41,0.54,0.55c0.22,0.15,0.47,0.22,0.77,0.24c0.37,0.03,0.67-0.04,0.91-0.21
			c0.24-0.17,0.38-0.42,0.42-0.73l-0.77-0.06C151.85,171.89,151.79,171.98,151.69,172.04z M150.47,170.32
			c-0.02-0.25,0.03-0.45,0.13-0.58c0.11-0.13,0.27-0.18,0.5-0.16c0.22,0.01,0.39,0.1,0.51,0.24c0.12,0.14,0.19,0.35,0.21,0.61
			l0.01,0.13l-1.35-0.1L150.47,170.32z"/>
		<path class="st26" d="M155.94,169.68c-0.22-0.26-0.5-0.4-0.84-0.43c-0.25-0.02-0.46,0.04-0.6,0.16c-0.15,0.12-0.24,0.31-0.25,0.55
			l-0.02,0l-0.05-0.71l-0.75-0.06l0.25,3.71l0.78,0.06l-0.16-2.32c-0.01-0.23,0.02-0.4,0.12-0.52c0.1-0.11,0.25-0.16,0.45-0.15
			c0.19,0.02,0.34,0.08,0.47,0.22c0.12,0.13,0.18,0.3,0.2,0.52l0.16,2.35l0.78,0.06l-0.17-2.43
			C156.27,170.27,156.15,169.93,155.94,169.68z"/>
		<path class="st26" d="M159.61,169.94c-0.26-0.24-0.6-0.38-1.03-0.41c-0.39-0.03-0.7,0.04-0.94,0.23
			c-0.24,0.18-0.36,0.45-0.38,0.79l0.75,0.06c0.01-0.14,0.08-0.25,0.18-0.32c0.11-0.07,0.25-0.1,0.42-0.09
			c0.2,0.02,0.35,0.08,0.45,0.19c0.11,0.11,0.18,0.25,0.19,0.45l0.02,0.31l-0.86-0.07c-0.41-0.03-0.72,0.04-0.94,0.23
			c-0.2,0.18-0.31,0.45-0.28,0.82c0.02,0.34,0.14,0.62,0.36,0.83c0.22,0.22,0.5,0.34,0.84,0.37c0.28,0.02,0.5-0.03,0.68-0.14
			c0.18-0.11,0.28-0.28,0.3-0.5l0.01,0l0.04,0.65l0.76,0.06l-0.17-2.51C160.01,170.49,159.87,170.17,159.61,169.94z M159.17,172.58
			c-0.13,0.11-0.31,0.14-0.54,0.13c-0.19-0.02-0.35-0.08-0.46-0.19c-0.11-0.11-0.18-0.25-0.19-0.41c-0.01-0.17,0.02-0.3,0.11-0.39
			c0.1-0.09,0.21-0.14,0.37-0.12l0.84,0.07l0.03,0.45C159.36,172.32,159.3,172.47,159.17,172.58z"/>
		<path class="st26" d="M163.65,170.19c-0.13-0.18-0.31-0.28-0.51-0.3c-0.16-0.02-0.29,0.02-0.39,0.12
			c-0.1,0.09-0.14,0.22-0.15,0.39h-0.03c-0.05-0.18-0.12-0.32-0.23-0.43c-0.1-0.11-0.22-0.17-0.36-0.18
			c-0.15-0.01-0.28,0.02-0.38,0.12c-0.1,0.09-0.14,0.22-0.15,0.39l-0.04,0l-0.04-0.5l-0.63-0.05l0.25,3.7l0.68,0.06l-0.19-2.76
			c-0.02-0.27,0.07-0.4,0.25-0.39c0.09,0.01,0.18,0.05,0.23,0.12c0.05,0.08,0.08,0.18,0.09,0.32l0.19,2.75l0.56,0.04l-0.19-2.75
			c-0.01-0.13,0-0.24,0.05-0.31c0.05-0.06,0.12-0.09,0.22-0.08c0.09,0.01,0.17,0.05,0.22,0.12c0.05,0.08,0.09,0.18,0.1,0.31
			l0.19,2.76l0.68,0.05l-0.19-2.81C163.87,170.6,163.79,170.37,163.65,170.19z"/>
		<path class="st26" d="M166.64,173.21c-0.1,0.06-0.24,0.08-0.41,0.06c-0.45-0.04-0.7-0.31-0.74-0.84l-0.02-0.26l2.08,0.17
			l-0.04-0.67c-0.02-0.28-0.1-0.55-0.23-0.77c-0.13-0.22-0.3-0.41-0.52-0.54c-0.22-0.14-0.47-0.22-0.76-0.24
			c-0.29-0.02-0.53,0.02-0.74,0.12c-0.2,0.1-0.36,0.26-0.46,0.47c-0.1,0.21-0.14,0.46-0.12,0.75l0.07,0.93
			c0.02,0.28,0.09,0.55,0.22,0.77c0.13,0.23,0.31,0.41,0.53,0.54c0.22,0.15,0.47,0.22,0.76,0.24c0.37,0.03,0.67-0.04,0.9-0.21
			c0.24-0.17,0.38-0.41,0.41-0.72l-0.76-0.06C166.79,173.06,166.73,173.16,166.64,173.21z M165.43,171.51
			c-0.02-0.25,0.03-0.45,0.13-0.58c0.1-0.13,0.26-0.18,0.49-0.16c0.21,0.01,0.39,0.1,0.51,0.24c0.12,0.14,0.19,0.35,0.2,0.61
			l0.01,0.13l-1.34-0.1L165.43,171.51z"/>
		<path class="st26" d="M169.96,173.05l-0.16-0.01c-0.15-0.01-0.28,0.03-0.37,0.14c-0.09,0.11-0.13,0.24-0.12,0.42
			c0.01,0.16,0.07,0.31,0.18,0.43c0.11,0.12,0.25,0.19,0.4,0.2l0.16,0.01c0.15,0.01,0.28-0.03,0.37-0.13
			c0.1-0.11,0.13-0.25,0.12-0.42c-0.01-0.17-0.07-0.32-0.18-0.44C170.25,173.12,170.12,173.06,169.96,173.05z"/>
		<path class="st26" d="M174.03,173.73c-0.21-0.02-0.32-0.14-0.34-0.37l-0.13-1.82l1.29,0.11l-0.05-0.76l-1.3-0.1l-0.07-1
			l-0.77-0.06l0.07,1l-0.92-0.07l0.05,0.75l0.92,0.07l0.13,1.81c0.02,0.35,0.13,0.63,0.33,0.84c0.2,0.2,0.45,0.32,0.78,0.35
			l0.97,0.08l-0.05-0.76L174.03,173.73z"/>
		<path class="st26" d="M181.13,172.88l-0.44-0.11c-0.16-0.03-0.28-0.08-0.35-0.15c-0.08-0.07-0.12-0.16-0.13-0.29
			c-0.01-0.13,0.03-0.23,0.1-0.29c0.08-0.06,0.2-0.08,0.38-0.07l0.23,0.02c0.15,0.01,0.26,0.04,0.35,0.11
			c0.09,0.07,0.15,0.15,0.17,0.26l0.76,0.06c-0.04-0.31-0.18-0.56-0.42-0.77c-0.24-0.2-0.55-0.31-0.91-0.34l-0.23-0.02
			c-0.41-0.03-0.71,0.04-0.91,0.21c-0.21,0.17-0.3,0.43-0.27,0.77c0.02,0.33,0.14,0.58,0.32,0.76c0.19,0.19,0.48,0.32,0.87,0.4
			l0.42,0.1c0.18,0.04,0.3,0.1,0.39,0.18c0.09,0.07,0.14,0.18,0.15,0.31c0.01,0.13-0.03,0.24-0.12,0.31
			c-0.09,0.07-0.23,0.11-0.41,0.09l-0.27-0.02c-0.16-0.01-0.28-0.06-0.39-0.14c-0.1-0.08-0.16-0.18-0.17-0.3l-0.76-0.06
			c0.03,0.33,0.17,0.6,0.42,0.81c0.26,0.21,0.57,0.34,0.95,0.36l0.26,0.02c0.43,0.03,0.75-0.04,0.95-0.21
			c0.21-0.18,0.31-0.46,0.28-0.81c-0.02-0.33-0.13-0.59-0.33-0.77C181.84,173.12,181.54,172.98,181.13,172.88z"/>
		<path class="st26" d="M185.95,174.67l-0.92-0.07c-0.21-0.01-0.32-0.14-0.33-0.37l-0.12-1.81l1.28,0.1l-0.06-0.75l-1.28-0.1
			l-0.08-0.99l-0.76-0.06l0.07,0.99l-0.91-0.08l0.05,0.75l0.91,0.07l0.12,1.81c0.03,0.35,0.14,0.63,0.33,0.84
			c0.2,0.2,0.46,0.32,0.78,0.35l0.97,0.07L185.95,174.67z"/>
	</g>
	<linearGradient id="SVGID_19_" gradientUnits="userSpaceOnUse" x1="141.2142" y1="258.7599" x2="191.3864" y2="179.9949">
		<stop  offset="0" style="stop-color:#FFFFFF;stop-opacity:0"/>
		<stop  offset="1" style="stop-color:#CDCFD3"/>
	</linearGradient>
	<path class="st30" d="M236.58,210.16l-80.18-65.11l-54.38-4.56c-9.87-0.83-17.32,6.99-16.55,17.43l0.87,11.59l157.35,123.48
		L236.58,210.16z"/>
	<linearGradient id="SVGID_20_" gradientUnits="userSpaceOnUse" x1="149.4527" y1="391.6725" x2="190.6558" y2="315.1525">
		<stop  offset="0" style="stop-color:#FFFFFF;stop-opacity:0"/>
		<stop  offset="1" style="stop-color:#CDCFD3"/>
	</linearGradient>
	<path class="st31" d="M101.07,367.09l124.06,89.59l16.18-0.8c8.99-0.45,15.55-9.15,14.67-19.39l-5.85-68.19l-157.93-120
		L101.07,367.09z"/>
</g>
</svg>
