<?xml version="1.0" encoding="utf-8"?>
<!-- Generator: Adobe Illustrator 23.0.1, SVG Export Plug-In . SVG Version: 6.00 Build 0)  -->
<svg version="1.1" id="Camada_1" xmlns="http://www.w3.org/2000/svg" xmlns:xlink="http://www.w3.org/1999/xlink" x="0px" y="0px"
	 viewBox="0 0 455.63 480" style="enable-background:new 0 0 455.63 480;" xml:space="preserve">
<style type="text/css">
	.st0{fill:#FFFFFF;}
	.st1{clip-path:url(#SVGID_1_);fill:#F2F9FB;}
	.st2{clip-path:url(#SVGID_1_);fill:#DFF2FB;}
	.st3{opacity:0.7;clip-path:url(#SVGID_1_);fill:#C9E7F2;}
	.st4{clip-path:url(#SVGID_1_);}
	.st5{opacity:0.7;fill:#C9E7F2;}
	.st6{clip-path:url(#SVGID_1_);fill:#EAF9FB;}
	.st7{clip-path:url(#SVGID_1_);fill:#FFFFFF;}
	.st8{fill:#B5CAD1;}
	.st9{fill:#1F2737;}
	.st10{fill:#E0EAED;}
	.st11{fill:#A6C0C7;}
	.st12{fill:#CC5D43;}
	.st13{fill:#39658B;}
	.st14{fill:#C8D5D6;}
	.st15{opacity:0.3;fill:#FFFFFF;}
	.st16{opacity:0.3;fill:#4D4D4D;}
	.st17{opacity:0.38;fill:#FFFFFF;}
	.st18{fill:#5B626F;}
	.st19{fill:#C2E1E8;}
	.st20{fill:#DBDBDB;}
	.st21{fill:#333D4F;}
	.st22{fill:#E6B5AE;}
	.st23{fill:#973D2C;}
	.st24{fill:#559692;}
	.st25{fill:#141414;}
	.st26{fill:#335955;}
	.st27{opacity:0.3;}
	.st28{fill:#4D4D4D;}
	.st29{clip-path:url(#SVGID_2_);fill:#437671;}
	.st30{opacity:0.35;fill:#559692;}
	.st31{opacity:0.4;}
</style>
<g>
	<path class="st0" d="M3.5,472.07h448.63c1.93,0,3.5-1.57,3.5-3.5V18.36c0-1.93-1.57-3.5-3.5-3.5H3.5c-1.93,0-3.5,1.57-3.5,3.5
		v450.21C0,470.5,1.57,472.07,3.5,472.07z"/>
	<g>
		<defs>
			<path id="SVGID_5_" d="M3.5,482.91h471.88c1.93,0,3.5-1.57,3.5-3.5V3.5c0-1.93-1.57-3.5-3.5-3.5H3.5C1.57,0,0,1.57,0,3.5v475.91
				C0,481.34,1.57,482.91,3.5,482.91z"/>
		</defs>
		<clipPath id="SVGID_1_">
			<use xlink:href="#SVGID_5_"  style="overflow:visible;"/>
		</clipPath>
		<path class="st1" d="M275.33-160.12c18.62,5.68,90.39,27.56,136.23,98.04c9.75,14.99,55.58,85.47,33.76,153.92
			c-28.88,90.58-145.35,80.85-189.73,167.8c-38.16,74.76,62.22,134.62,30.28,222.37c-16.67,45.81-61.45,87.11-105.91,94.92
			C41.2,601.31-239.79,325.04-161.15,78.67C-103.9-100.67,125.29-205.87,275.33-160.12z"/>
		<path class="st2" d="M-225.99,308.45c-10.67-16.29-51.77-79.06-41.83-162.54c2.11-17.76,12.05-101.24,72.66-139.83
			c80.19-51.07,163.41,31,253.18-7.35c77.19-32.98,38.44-143.24,119.17-190.17c42.14-24.5,102.98-27.54,142.13-5.06
			c122.18,70.15,161.03,462.29-57.16,601.13C103.33,505.69-140.06,439.69-225.99,308.45z"/>
		
			<ellipse transform="matrix(0.7071 -0.7071 0.7071 0.7071 -6.9158 62.3726)" class="st3" cx="71.83" cy="39.53" rx="204.39" ry="204.39"/>
		<g class="st4">
			<path class="st5" d="M346.85,294c5.79,0,11.53,0.25,17.2,0.73c-24.5,43.76-57.99,81.96-101.9,109.9
				c-34.62,22.03-73.26,36.12-113.41,43.33C171.2,359.46,251.38,294,346.85,294z"/>
		</g>
		<path class="st6" d="M279.57,540.68c55.87,0,102.46-13.36,127.01-38.51c25.42-26.04,36.26-75.26,25.21-114.49
			c-10.45-37.08-39.41-53.42-67.41-69.22c-27.7-15.63-53.86-30.39-59-63.99c-5.75-37.6,10.07-68.6,25.37-98.58
			c17.04-33.38,33.13-64.92,20.47-103.77c-11.83-36.3-46.1-67.07-96.49-86.66c-29.39-11.42-77.18-20.7-137.95-0.04h0
			C57.44-14.42,0.65,39.64-35.12,110.02c-37.72,74.2-46.66,155.76-24.53,223.75c30.5,93.74,122.17,166.85,245.23,195.58
			C218.22,536.98,250.18,540.68,279.57,540.68z M187.75-45.24c27.38,0,49.84,5.75,66.4,12.18c49.94,19.4,83.87,49.83,95.55,85.66
			c12.45,38.23-3.49,69.47-20.38,102.55c-15.41,30.2-31.35,61.43-25.53,99.54c5.25,34.37,31.75,49.32,59.79,65.14
			c27.73,15.64,56.39,31.82,66.66,68.27c10.91,38.72,0.24,87.27-24.81,112.94c-37.09,37.99-125.3,48.74-219.51,26.75
			C63.43,499.2-27.81,426.48-58.14,333.28c-22-67.6-13.09-148.71,24.44-222.54C1.89,40.72,58.34-13.04,117.29-33.08l-0.26-0.76
			l0.26,0.76C143.33-41.92,166.96-45.24,187.75-45.24z"/>
		<path class="st7" d="M225.09,91.48c12.1,4.48,10.73,9.42-2.07,6.59c-12.79-2.83-39.92-5.44-26.76,1.11
			c13.16,6.55,39.72,17.72,68.57,13.78c28.85-3.94,37.77-6.93,54.09-4.08c42.96,7.49,44.07-15.58,0.91-24.57
			C277.43,75.48,193.59,79.81,225.09,91.48z"/>
		<path class="st7" d="M67.83,99.99c24.74,0.95,44.41,5.13,42.24,24.95c-2.17,19.82,20.32,12.76,47.94,17.16
			c27.62,4.4,39.32,20.84,18.66,32.82c-20.66,11.98,34.59,11.41,58.82,10.68c24.23-0.74,74.45,3.85,48.27,11.22
			c-26.18,7.38-111.32,15.72-162.41-1.35c-51.1-17.08-66.72-31.21-96.93-26.02c-30.2,5.19-64.81,12.66-78.56,4.81
			c-13.76-7.85-8.21-22.26,34.86-21.41c43.07,0.85,69.81-16.44,50.5-28.38C11.91,112.53,33.73,98.67,67.83,99.99z"/>
	</g>
	<g>
		<ellipse class="st8" cx="101.94" cy="310.59" rx="55.98" ry="3.19"/>
		<g>
			<path class="st9" d="M45.96,156.88v145.2c0,4.71,3.82,8.51,8.51,8.51h94.95c4.69,0,8.51-3.8,8.51-8.51v-145.2
				c0-4.69-3.82-8.51-8.51-8.51H54.47C49.77,148.37,45.96,152.19,45.96,156.88z"/>
			<path class="st10" d="M147.85,156.88H56.03c-0.86,0-1.55,0.7-1.55,1.55v142.09c0,0.86,0.7,1.55,1.55,1.55h91.83
				c0.86,0,1.55-0.7,1.55-1.55V158.44C149.41,157.58,148.71,156.88,147.85,156.88z"/>
			
				<rect x="92.49" y="191.43" transform="matrix(6.123234e-17 -1 1 6.123234e-17 -129.5088 333.3893)" class="st11" width="18.9" height="80.03"/>
			<g>
				
					<rect x="116.69" y="194.76" transform="matrix(6.123234e-17 -1 1 6.123234e-17 -78.065 336.7144)" class="st11" width="25.26" height="25.26"/>
				
					<rect x="89.31" y="194.76" transform="matrix(6.123234e-17 -1 1 6.123234e-17 -105.4495 309.33)" class="st11" width="25.26" height="25.26"/>
				
					<rect x="61.92" y="194.76" transform="matrix(6.123234e-17 -1 1 6.123234e-17 -132.834 281.9455)" class="st11" width="25.26" height="25.26"/>
			</g>
			<g>
				
					<rect x="116.69" y="167.52" transform="matrix(6.123234e-17 -1 1 6.123234e-17 -50.8257 309.4751)" class="st12" width="25.26" height="25.26"/>
				
					<rect x="89.31" y="167.52" transform="matrix(6.123234e-17 -1 1 6.123234e-17 -78.2102 282.0906)" class="st11" width="25.26" height="25.26"/>
				
					<rect x="61.92" y="167.52" transform="matrix(6.123234e-17 -1 1 6.123234e-17 -105.5946 254.7061)" class="st11" width="25.26" height="25.26"/>
			</g>
			<g>
				<path class="st11" d="M112.43,253.26c2.98-1.92,6.54-3.04,10.35-3.04c7.9,0,14.68,4.77,17.62,11.6l-17.62,7.58L112.43,253.26z"
					/>
				<path class="st13" d="M104.62,263.24l18.16,6.16l19.16-0.64c0.01,0.21,0.02,0.42,0.02,0.64c0,10.59-8.58,19.18-19.18,19.18
					c-10.59,0-19.18-8.59-19.18-19.18C103.6,267.25,103.96,265.17,104.62,263.24z"/>
				<path class="st12" d="M104.62,263.24c1.4-4.16,4.19-7.67,7.81-9.98l10.35,16.14L104.62,263.24z"/>
				<path class="st14" d="M140.39,261.82c0.93,2.14,1.47,4.48,1.54,6.94l-19.16,0.64L140.39,261.82z"/>
			</g>
			
				<rect x="61.92" y="282.74" transform="matrix(-1 -1.224647e-16 1.224647e-16 -1 157.736 571.3151)" class="st14" width="33.89" height="5.84"/>
			
				<rect x="61.92" y="272.99" transform="matrix(-1 -1.224647e-16 1.224647e-16 -1 157.736 551.821)" class="st14" width="33.89" height="5.84"/>
		</g>
		<polygon class="st15" points="84.28,148.37 157.92,232.72 157.92,183.36 127.37,148.37 		"/>
		<polygon class="st15" points="74.99,148.37 157.92,243.37 157.92,262.59 58.22,148.37 		"/>
	</g>
	<path class="st16" d="M45.96,156.88v31.1h33.43v-39.6H54.47C49.77,148.37,45.96,152.19,45.96,156.88z"/>
	<path class="st17" d="M152.11,199.78c-13.94,0.54-25.02,2.89-23.8,14.06c1.22,11.17-11.45,7.19-27.01,9.67
		c-15.56,2.48-22.15,11.74-10.51,18.49c11.64,6.75-19.49,6.43-33.14,6.02c-13.65-0.42-41.95,2.17-27.2,6.32s62.72,8.86,91.51-0.76
		c28.79-9.62,37.6-17.59,54.61-14.66c17.02,2.92,36.51,7.13,44.26,2.71s4.63-12.54-19.64-12.07c-24.27,0.48-39.34-9.26-28.46-15.99
		C183.61,206.85,171.32,199.04,152.11,199.78z"/>
	<g>
		<path class="st8" d="M387.63,357.33c0,1.76-55.14,3.19-123.17,3.19c-68.02,0-123.17-1.43-123.17-3.19
			c0-1.76,55.14-3.19,123.17-3.19C332.49,354.14,387.63,355.57,387.63,357.33z"/>
		<g>
			<path class="st18" d="M140.82,352.97c0.98,2.55,3.45,4.36,6.35,4.36h233.38c2.9,0,5.38-1.81,6.36-4.36
				c0.45-1.17-0.43-2.43-1.68-2.43H142.51C141.25,350.54,140.38,351.79,140.82,352.97z"/>
			<path class="st9" d="M140.38,206.4v131.18c0,7.15,5.79,12.96,12.96,12.96h221.05c2.49,0,4.8-0.7,6.78-1.92
				c2.7-1.68,4.76-4.31,5.65-7.42c0.35-1.15,0.53-2.36,0.53-3.62V206.4c0-7.15-5.81-12.95-12.96-12.95H153.34
				C146.17,193.45,140.38,199.25,140.38,206.4z"/>
			<path class="st10" d="M374.39,335.21V208.77c0-1.31-1.06-2.37-2.37-2.37H155.7c-1.31,0-2.37,1.06-2.37,2.37v126.44
				c0,1.31,1.06,2.37,2.37,2.37h216.32C373.33,337.58,374.39,336.52,374.39,335.21z"/>
			<g>
				
					<rect x="297.94" y="222.06" transform="matrix(-1 -1.224647e-16 1.224647e-16 -1 660.3838 508.6276)" class="st11" width="64.51" height="64.51"/>
				
					<rect x="264.47" y="222.06" transform="matrix(-1 -1.224647e-16 1.224647e-16 -1 559.9759 475.1584)" class="st13" width="31.04" height="31.04"/>
				
					<rect x="231" y="222.06" transform="matrix(-1 -1.224647e-16 1.224647e-16 -1 493.0374 475.1584)" class="st11" width="31.04" height="31.04"/>
				
					<rect x="165.27" y="222.06" transform="matrix(-1 -1.224647e-16 1.224647e-16 -1 390.4703 451.5409)" class="st12" width="59.92" height="7.42"/>
				
					<rect x="165.27" y="232.99" transform="matrix(-1 -1.224647e-16 1.224647e-16 -1 390.4703 473.404)" class="st19" width="59.92" height="7.42"/>
				
					<rect x="165.27" y="243.92" transform="matrix(-1 -1.224647e-16 1.224647e-16 -1 390.4703 495.2669)" class="st19" width="59.92" height="7.42"/>
				
					<rect x="192.6" y="254.85" transform="matrix(-1 -1.224647e-16 1.224647e-16 -1 417.799 517.1299)" class="st19" width="32.59" height="7.42"/>
				
					<rect x="264.47" y="255.53" transform="matrix(-1 -1.224647e-16 1.224647e-16 -1 559.9759 542.0969)" class="st11" width="31.04" height="31.04"/>
				
					<rect x="231" y="255.53" transform="matrix(-1 -1.224647e-16 1.224647e-16 -1 493.0374 542.0969)" class="st11" width="31.04" height="31.04"/>
				
					<rect x="165.27" y="312.89" transform="matrix(-1 -1.224647e-16 1.224647e-16 -1 527.7214 639.1307)" class="st14" width="197.17" height="13.36"/>
			</g>
			<path class="st20" d="M241.72,350.54v1.1c0,1.26,1.04,2.3,2.3,2.3h39.68c1.26,0,2.29-1.04,2.29-2.3v-1.1H241.72z"/>
		</g>
		<path class="st15" d="M257.86,193.45L386.83,341.2c0.35-1.15,0.53-2.36,0.53-3.62v-60.15l-73.3-83.98H257.86z"/>
		<path class="st15" d="M223.86,193.45l137.12,157.09h13.41c2.49,0,4.8-0.7,6.78-1.92L245.73,193.45H223.86z"/>
	</g>
	<g>
		<ellipse class="st8" cx="51.78" cy="378.68" rx="30.38" ry="1.7"/>
		<g>
			<path class="st9" d="M22.72,279.62v93.25c0,3.02,2.44,5.48,5.46,5.48h47.19c3.03,0,5.48-2.46,5.48-5.48v-93.25
				c0-3.02-2.44-5.48-5.48-5.48H28.17c-0.59,0-1.17,0.1-1.69,0.26C24.3,275.13,22.72,277.19,22.72,279.62z"/>
			<path class="st10" d="M74.37,279.62H29.17c-0.55,0-1,0.45-1,1v86.37c0,0.55,0.45,1,1,1h45.19c0.55,0,1-0.45,1-1v-86.37
				C75.37,280.06,74.92,279.62,74.37,279.62z"/>
			<g>
				
					<rect x="44" y="282.02" transform="matrix(-1 -1.224647e-16 1.224647e-16 -1 115.1435 591.1666)" class="st12" width="27.13" height="27.13"/>
				<path class="st11" d="M57.57,338.56L57.57,338.56c7.49,0,13.57-6.07,13.57-13.57l0,0c0-7.49-6.07-13.57-13.57-13.57l0,0
					C50.08,311.43,44,317.5,44,325l0,0C44,332.49,50.08,338.56,57.57,338.56z"/>
				<path class="st21" d="M51.77,375.81L51.77,375.81c1.53,0,2.77-1.24,2.77-2.77v0c0-1.53-1.24-2.77-2.77-2.77l0,0
					c-1.53,0-2.77,1.24-2.77,2.77v0C49,374.56,50.24,375.81,51.77,375.81z"/>
				
					<rect x="59.46" y="340.84" transform="matrix(-1 -1.224647e-16 1.224647e-16 -1 130.599 703.9247)" class="st11" width="11.68" height="22.24"/>
				
					<rect x="45.93" y="340.84" transform="matrix(-1 -1.224647e-16 1.224647e-16 -1 103.5424 703.9247)" class="st11" width="11.68" height="22.24"/>
				
					<rect x="32.4" y="340.84" transform="matrix(-1 -1.224647e-16 1.224647e-16 -1 76.4861 703.9247)" class="st14" width="11.68" height="22.24"/>
			</g>
			
				<rect x="32.4" y="282.02" transform="matrix(-1 -1.224647e-16 1.224647e-16 -1 74.3041 573.5291)" class="st13" width="9.5" height="9.5"/>
		</g>
		<polygon class="st15" points="42.88,274.14 47.66,279.62 49.76,282.01 71.15,306.53 75.36,311.35 80.84,317.63 80.84,286.13 
			70.36,274.14 		"/>
		<path class="st15" d="M26.48,274.4l4.57,5.22l2.09,2.39l8.28,9.5l2.59,2.97l12.8,14.67l2.04,2.33v0.02l12.28,14.05l4.23,4.85
			l5.48,6.27v-12.26l-5.48-6.27l-7.85-8.99l-23.5-26.93l-2.27-2.6l-4.79-5.48h-8.78C27.58,274.14,27.01,274.24,26.48,274.4z"/>
	</g>
	<g>
		
			<rect x="29.94" y="138.53" transform="matrix(6.123234e-17 -1 1 6.123234e-17 -108.5877 210.0885)" class="st12" width="41.62" height="41.62"/>
		<polygon class="st0" points="54.47,149.47 54.47,169.21 44.6,159.34 		"/>
	</g>
	
		<rect x="161.99" y="262.85" transform="matrix(-0.7071 -0.7071 0.7071 -0.7071 101.8636 590.2674)" class="st13" width="22.37" height="22.37"/>
	<g>
		<path class="st8" d="M152.47,376.97c0,0.94-9.65,1.7-21.55,1.7c-11.9,0-21.55-0.76-21.55-1.7s9.65-1.71,21.55-1.71
			C142.82,375.27,152.47,376.03,152.47,376.97z"/>
		<path class="st22" d="M161.21,265.76c-0.11,0.45-0.48,0.93-0.48,0.93s1.83,0.78,2.73,0.93c0.9,0.15,1.24-0.42,2.25-0.59
			c1.02-0.17,1.34-0.23,1.41-1.61c0.06-1.12-1.04-1.57-1.8-1.34c-0.76,0.23-1.8,1.39-2.44,1.31c-0.64-0.08-1.58-0.36-1.58-0.36
			S161.32,265.34,161.21,265.76z"/>
		<path class="st22" d="M137.59,253.12c1.75,0.66,3.13-0.05,3.6-0.41c0.47-0.37-0.59-1.09-0.9-1.65c-0.13-0.24-0.13-0.57-0.04-0.97
			c0.12-0.54,0.4-1.21,0.73-1.94l-3.49-1.49c0,0-0.3,1.82-0.46,2.48c-0.03,0.12-0.07,0.22-0.12,0.3c-0.23,0.39-0.71,0.46-1.53,0.84
			C134.37,250.76,135.84,252.46,137.59,253.12z"/>
		<g>
			<path class="st22" d="M137.08,245.03c0.02,2.48,0.06,3.69,0.93,4.77c0.86,1.09,1.8,1.64,2.58,1.71c0.97,0.08,2.56-1.55,2.9-2.58
				c0.35-1.06,0.93-3.81,0.84-6.53c-0.05-1.38-1.39-3.16-2.92-3.28C139.87,238.99,137.04,238.97,137.08,245.03z"/>
			<path class="st22" d="M144.48,246.32c-0.27,0.88-0.87,1.48-1.33,1.34c-0.46-0.14-0.62-0.97-0.34-1.86
				c0.27-0.88,0.87-1.48,1.33-1.34C144.6,244.61,144.76,245.44,144.48,246.32z"/>
			<path class="st22" d="M137.84,244.95c0.28,0.88,0.13,1.71-0.33,1.86c-0.46,0.15-1.06-0.45-1.34-1.33
				c-0.28-0.88-0.13-1.71,0.33-1.86C136.96,243.48,137.56,244.07,137.84,244.95z"/>
		</g>
		<path class="st23" d="M132.99,323.51c-2.5-0.3-4.64-1.13-4.64,0.42c0,1.31,0.12,1.21,4.41,1.52c2.51,0.18,4.58,0.12,4.64-0.42
			C137.47,324.5,135.49,323.82,132.99,323.51z"/>
		<path class="st12" d="M130.76,250.9c-3.1,2.87-8.19,9.55-8.94,13.12c-0.17,0.8,0.32,1.58,1.1,1.79l11.14,3.02
			c0.26,0.07,0.54-0.05,0.66-0.3l0.4-0.82c0.14-0.28,0.02-0.63-0.27-0.76l-8.35-4.42c2.4-4.54,4.1-5.49,4.1-5.49
			c-0.29,5.63-5.29,18.29-5.62,19.8c-0.41,1.86-0.71,3.39-0.07,3.52c2.06,0.43,6.93,0.71,11.23,1.41c3.08,0.5,3.1-0.65,2.67-5.7
			c-0.64-7.62,1.4-10.75,2.97-13.37c1.35-2.26,1.07-4.46,1.07-4.46l4.82,6.4c0.45,0.55,1.09,0.92,1.8,1.02l12.11,1.34
			c0.51,0.07,0.96-0.33,0.95-0.84l-0.01-0.4c-0.01-0.38-0.26-0.7-0.63-0.8l-11.41-3.01c0,0-3.22-5.19-4.74-7.33
			c-0.64-0.9-1.84-3.53-4.23-3.97C134.02,249.27,132.97,248.86,130.76,250.9z"/>
		<path class="st24" d="M139.08,279.78c0,0-0.09,1.24-0.25,3.14c-0.02,0.17-0.03,0.35-0.04,0.54c-0.47,5.78-1.36,16.61-1.71,19.08
			c-0.48,3.33-4.05,14.86-6.07,20.87c-0.1,0.3-0.38,0.49-0.68,0.49l-1.19-0.03c-0.41-0.01-0.73-0.37-0.69-0.79
			c0.35-4.02,2.9-17.05,3.5-19.89c0.55-2.61,0.93-12.13-0.47-16.44c-0.23-0.72-1.27-0.67-1.47,0.05c-0.97,3.51-3.13,11.16-4.43,14.5
			c-1.51,3.86-18.56-0.88-21.62-1.77c-0.2-0.06-0.33-0.23-0.35-0.43l-0.06-0.86c-0.03-0.3,0.21-0.55,0.5-0.53
			c2.93,0.25,16.76,1.27,17.4-1.38c0.59-2.43,1.77-9.51,2.49-13.9v-0.01c0.04-0.22,0.08-0.43,0.11-0.63
			c0.29-1.81,0.48-3.02,0.48-3.02s0.06-0.62,0.59-0.64h0.07c0.11-0.01,0.25-0.02,0.43-0.02c0.72-0.01,2.24,0.04,6.65,0.5
			c2.52,0.26,4.15,0.45,5.18,0.61c0.15,0.02,0.3,0.04,0.43,0.06C138.85,279.43,139.09,279.57,139.08,279.78z"/>
		<path class="st23" d="M105.7,301.73c-0.57-2.45-1.45-4.34-1.98-4.22c-0.53,0.12-1.1,0.53,0.07,4.66c0.68,2.42,1.45,4.34,1.98,4.22
			C106.3,306.28,106.27,304.19,105.7,301.73z"/>
		<g>
			<g>
				<path class="st23" d="M129.2,263.97l-1.68-0.89l-2.08,3.42l2.77,0.75C128.56,266.16,128.9,265.05,129.2,263.97z"/>
			</g>
		</g>
		<path class="st25" d="M143.41,247c-1,2.53-0.39,7.15-1.25,11.24c-0.86,4.09-7.36,10.64-12.96,5.99
			c-6.43-5.35,1.82-11.29,3.32-15.07c1.69-4.25,1.64-7.57,3.89-9.9c2.14-2.23,5.33-1.29,6.66-0.17
			C145.84,241.44,144.24,244.9,143.41,247z"/>
		<g>
			<g>
				<g>
					<path class="st13" d="M141.7,325.54c-0.31,0.04-0.53,0.32-0.49,0.63l0.13,1.04c-0.04,0.01-0.08,0.03-0.13,0.03H120.7
						c-0.04,0-0.08-0.02-0.13-0.03l0.13-1.04c0.04-0.31-0.18-0.6-0.49-0.63c-0.28-0.04-0.55,0.16-0.61,0.43c0.07-0.56,0.53-1,1.11-1
						h20.51c0.58,0,1.04,0.44,1.1,1C142.24,325.69,141.98,325.49,141.7,325.54z"/>
				</g>
				<path class="st13" d="M119.57,326.03c0-0.02,0.02-0.04,0.02-0.06c0.07-0.28,0.33-0.47,0.61-0.43c0.31,0.04,0.53,0.32,0.49,0.63
					l-0.13,1.04l-2.15,17.46h25.07l-2.15-17.46l-0.13-1.04c-0.04-0.31,0.18-0.6,0.49-0.63c0.28-0.04,0.54,0.15,0.61,0.43
					c0.01,0.02,0.02,0.04,0.02,0.06l4.44,36.01c0.05,0.08,0.08,0.17,0.08,0.28c0,0.05-0.02,0.1-0.03,0.15l1.76,14.25
					c0.04,0.31-0.18,0.59-0.49,0.63c-0.02,0-0.05,0-0.07,0c-0.28,0-0.53-0.21-0.56-0.5l-1.72-13.96h-29.56l-1.72,13.96
					c-0.04,0.29-0.28,0.5-0.56,0.5c-0.02,0-0.05,0-0.07,0c-0.31-0.04-0.53-0.32-0.49-0.63L119.57,326.03z M145.59,361.75
					l-1.97-15.95h-25.35l-1.97,15.95H145.59z"/>
			</g>
		</g>
		<path class="st26" d="M137.72,280.29c0-0.36,0.05-0.71,0.15-1.03c-0.13-0.02-0.27-0.04-0.43-0.06c-0.1,0.35-0.15,0.72-0.15,1.09
			c0,1.27,0.58,2.41,1.49,3.16c0.02-0.19,0.03-0.37,0.04-0.54C138.15,282.25,137.72,281.31,137.72,280.29z"/>
		<path class="st26" d="M125.62,278.09c-0.19,0-0.32,0.01-0.43,0.02c0.08,0.29,0.12,0.59,0.12,0.9c0,1.1-0.49,2.09-1.25,2.75
			c-0.03,0.2-0.07,0.41-0.11,0.63c1.08-0.73,1.79-1.98,1.79-3.39C125.73,278.7,125.7,278.38,125.62,278.09z"/>
	</g>
	<g class="st27">
		<g>
			<polygon class="st28" points="297.98,215.56 292.73,228.22 300.31,231.36 305.56,218.71 316.24,229.38 316.24,193.45 
				304.87,193.45 282.76,215.56 			"/>
			<polygon class="st28" points="316.23,229.39 316.23,229.38 316.23,229.39 			"/>
		</g>
	</g>
	<g>
		<g>
			<g>
				<polygon class="st0" points="274.78,207.59 284.61,197.76 300.74,181.62 308.25,174.12 308.25,184.94 308.25,201.86 
					308.25,201.86 308.25,201.86 308.25,221.4 297.57,210.72 292.33,223.38 284.75,220.24 289.99,207.59 				"/>
			</g>
			<polygon class="st0" points="308.25,221.4 308.25,221.4 308.25,221.4 			"/>
		</g>
	</g>
	<g>
		<g>
			<ellipse class="st8" cx="83.16" cy="400.77" rx="12.05" ry="1.2"/>
			<g>
				<path class="st24" d="M77.58,379.13c-0.23-2.1-0.9-5.78-3.31-8.41c-6.84-7.45-15.45-2.16-16.4-5.62
					c-0.45-1.65,2.35-4.47,5.49-5.41c7.94-2.36,8.01,3.47,10.18,1.72c2.66-2.14-8.4-12.88-3.69-22.47
					c2.42-4.92,9.38-8.23,12.98-6.32c2.9,1.54,3.42,6.36,3.5,7.32c0.4,4.86-3.87,10.26-1.86,13.24c3.75,5.57,2.98-8.3,12.99-5.89
					c5.22,1.25,5.73,4.73,5.12,6.02c-1.02,2.17-4.66,0.14-9.42,3.11c-3.33,2.08-5.2,5.88-4.41,6.91c0.92,1.21,5.07-2.43,9.17-0.71
					c2.38,1,4.07,3.77,3.56,4.95c-0.36,0.84-1.71,0.62-4.16,1.08c-1.37,0.26-7.81,1.47-9.24,5.16c-0.26,0.68-0.74,2.44,0.75,5.33
					H77.58z"/>
				<g>
					<defs>
						<path id="SVGID_7_" d="M77.58,379.13c-0.23-2.1-0.9-5.78-3.31-8.41c-6.84-7.45-15.45-2.16-16.4-5.62
							c-0.45-1.65,2.35-4.47,5.49-5.41c7.94-2.36,8.01,3.47,10.18,1.72c2.66-2.14-8.4-12.88-3.69-22.47
							c2.42-4.92,9.38-8.23,12.98-6.32c2.9,1.54,3.42,6.36,3.5,7.32c0.4,4.86-3.87,10.26-1.86,13.24c3.75,5.57,2.98-8.3,12.99-5.89
							c5.22,1.25,5.73,4.73,5.12,6.02c-1.02,2.17-4.66,0.14-9.42,3.11c-3.33,2.08-5.2,5.88-4.41,6.91c0.92,1.21,5.07-2.43,9.17-0.71
							c2.38,1,4.07,3.77,3.56,4.95c-0.36,0.84-1.71,0.62-4.16,1.08c-1.37,0.26-7.81,1.47-9.24,5.16c-0.26,0.68-0.74,2.44,0.75,5.33
							H77.58z"/>
					</defs>
					<clipPath id="SVGID_2_">
						<use xlink:href="#SVGID_7_"  style="overflow:visible;"/>
					</clipPath>
					<path class="st29" d="M61.31,423.37c-0.54-4.88-2.09-13.42-7.68-19.5c-15.87-17.27-35.84-5.01-38.05-13.05
						c-1.05-3.83,5.46-10.38,12.74-12.55c18.41-5.48,18.57,8.05,23.63,3.98c6.17-4.97-19.49-29.89-8.55-52.14
						c5.61-11.41,21.76-19.1,30.12-14.67c6.73,3.57,7.92,14.74,8.11,16.99c0.93,11.27-8.97,23.8-4.32,30.71
						c8.7,12.92,6.9-19.25,30.13-13.67c12.11,2.91,13.28,10.97,11.87,13.97c-2.36,5.02-10.82,0.33-21.85,7.22
						c-7.72,4.82-12.06,13.63-10.23,16.02c2.14,2.8,11.76-5.63,21.27-1.64c5.52,2.32,9.44,8.74,8.27,11.49
						c-0.83,1.94-3.98,1.44-9.65,2.51c-3.18,0.6-18.12,3.41-21.43,11.97c-0.61,1.58-1.72,5.66,1.74,12.36H61.31z"/>
				</g>
				<path class="st11" d="M68.4,386c0,8.24,6.76,14.91,15.04,14.76c8.13-0.15,14.48-7.12,14.48-15.25v-8.44
					c0-1.96-1.59-3.55-3.55-3.55H71.95c-1.96,0-3.55,1.59-3.55,3.55V386z"/>
			</g>
		</g>
		<path class="st30" d="M89.15,372.94c0.16,0,0.31-0.1,0.37-0.25c0.87-2.24,4.04-3.99,8.94-4.91c0.77-0.14,1.42-0.22,1.99-0.29
			c1.29-0.15,2.14-0.25,2.47-1.03c0.2-0.47,0.15-1.11-0.14-1.83c-0.52-1.27-1.84-2.89-3.63-3.64c-2.56-1.07-5.08-0.2-6.92,0.44
			c-0.93,0.32-1.89,0.65-2.09,0.39c-0.1-0.14-0.13-0.43-0.06-0.79c0.28-1.56,2-4.06,4.37-5.54c2.42-1.51,4.51-1.68,6.19-1.82
			c1.56-0.13,2.8-0.23,3.38-1.46c0.29-0.61,0.41-1.78-0.19-3.03c-0.57-1.19-1.93-2.77-5.19-3.55c-5.89-1.41-8.24,2.56-9.8,5.19
			c-0.61,1.03-1.19,2.01-1.67,2.02c-0.25,0-0.62-0.19-1.27-1.16c-0.99-1.47-0.25-3.69,0.61-6.25c0.71-2.12,1.51-4.52,1.32-6.8
			c-0.11-1.39-0.72-6.06-3.71-7.64c-1.44-0.76-3.43-0.79-5.61-0.08c-3.38,1.1-6.49,3.68-7.91,6.58c-2.98,6.06,0.09,12.42,2.33,17.06
			c1.21,2.49,2.24,4.65,1.47,5.28c-0.56,0.45-0.82,0.27-1.64-0.44c-1.24-1.07-3.32-2.86-8.41-1.34c-3.38,1.01-6.29,3.98-5.76,5.9
			c0.06,0.21,0.27,0.34,0.49,0.28c0.21-0.06,0.34-0.28,0.28-0.49c-0.37-1.33,2.15-4.01,5.22-4.92c4.66-1.39,6.47,0.16,7.66,1.19
			c0.77,0.66,1.56,1.35,2.66,0.46c1.27-1.02,0.22-3.21-1.25-6.24c-2.17-4.49-5.14-10.65-2.33-16.36c1.34-2.72,4.26-5.14,7.44-6.18
			c1.98-0.64,3.75-0.63,4.99,0.03c2.7,1.43,3.21,6.08,3.28,7c0.17,2.11-0.57,4.33-1.28,6.48c-0.89,2.65-1.72,5.15-0.51,6.95
			c0.69,1.03,1.3,1.51,1.92,1.51c0.01,0,0.02,0,0.04,0c0.93-0.03,1.55-1.08,2.34-2.42c1.52-2.57,3.61-6.1,8.93-4.82
			c2.95,0.71,4.16,2.09,4.66,3.12c0.45,0.94,0.42,1.86,0.19,2.35c-0.37,0.78-1.14,0.88-2.72,1.01c-1.67,0.14-3.96,0.32-6.55,1.94
			c-2.65,1.66-4.42,4.36-4.73,6.07c-0.11,0.61-0.04,1.09,0.21,1.42c0.55,0.73,1.62,0.35,2.99-0.12c1.72-0.6,4.07-1.41,6.34-0.46
			c1.57,0.66,2.76,2.12,3.2,3.21c0.21,0.51,0.26,0.96,0.15,1.22c-0.14,0.34-0.69,0.42-1.83,0.55c-0.55,0.07-1.25,0.15-2.04,0.29
			c-5.25,0.99-8.55,2.86-9.54,5.41c-0.08,0.21,0.02,0.44,0.23,0.52C89.05,372.93,89.1,372.94,89.15,372.94z"/>
	</g>
	<g class="st31">
		<g>
			<path class="st11" d="M197.74,154.03c1.32,0,2.39-1.07,2.39-2.39c0.01-12.32-4.79-23.9-13.5-32.61
				c-8.71-8.71-20.28-13.5-32.59-13.5c-0.01,0-0.02,0-0.03,0c-1.32,0-2.39,1.07-2.39,2.4c0,1.32,1.07,2.39,2.39,2.39h0
				c0.01,0,0.02,0,0.02,0c11.03,0,21.4,4.3,29.2,12.1c7.81,7.81,12.1,18.19,12.1,29.23C195.34,152.96,196.41,154.03,197.74,154.03
				L197.74,154.03z"/>
			<path class="st11" d="M197.74,154.03c1.32,0,2.39-1.07,2.39-2.39c0.01-12.32-4.79-23.9-13.5-32.61
				c-8.71-8.71-20.28-13.5-32.59-13.5c-0.01,0-0.02,0-0.03,0c-1.32,0-2.39,1.07-2.39,2.4c0,1.32,1.07,2.39,2.39,2.39h0
				c0.01,0,0.02,0,0.02,0c11.03,0,21.4,4.3,29.2,12.1c7.81,7.81,12.1,18.19,12.1,29.23C195.34,152.96,196.41,154.03,197.74,154.03
				L197.74,154.03z"/>
			<path class="st11" d="M184.63,154.03c1.32,0,2.39-1.07,2.39-2.39c0-8.81-3.43-17.1-9.67-23.34c-6.23-6.23-14.52-9.67-23.34-9.67
				c-1.32,0-2.39,1.07-2.39,2.39s1.07,2.39,2.39,2.39c7.54,0,14.62,2.94,19.95,8.27c5.33,5.33,8.27,12.42,8.27,19.95
				C182.23,152.96,183.3,154.03,184.63,154.03z"/>
			<path class="st11" d="M171.5,154.03c1.32,0,2.39-1.07,2.39-2.39c0-5.31-2.07-10.31-5.82-14.06c-3.75-3.75-8.75-5.82-14.06-5.82
				c-1.32,0-2.39,1.07-2.39,2.39c0,1.32,1.07,2.39,2.39,2.39c4.03,0,7.83,1.57,10.68,4.42c2.85,2.85,4.42,6.64,4.42,10.68
				C169.11,152.96,170.18,154.03,171.5,154.03z"/>
			<path class="st11" d="M184.63,154.03c1.32,0,2.39-1.07,2.39-2.39c0-8.81-3.43-17.1-9.67-23.34c-6.23-6.23-14.52-9.67-23.34-9.67
				c-1.32,0-2.39,1.07-2.39,2.39s1.07,2.39,2.39,2.39c7.54,0,14.62,2.94,19.95,8.27c5.33,5.33,8.27,12.42,8.27,19.95
				C182.23,152.96,183.3,154.03,184.63,154.03z"/>
		</g>
	</g>
</g>
</svg>
