<?xml version="1.0" encoding="utf-8"?>
<!-- Generator: Adobe Illustrator 23.0.1, SVG Export Plug-In . SVG Version: 6.00 Build 0)  -->
<svg version="1.1" id="Camada_1" xmlns="http://www.w3.org/2000/svg" xmlns:xlink="http://www.w3.org/1999/xlink" x="0px" y="0px"
	 viewBox="0 0 479.32 480" style="enable-background:new 0 0 479.32 480;" xml:space="preserve">
<style type="text/css">
	.st0{opacity:0.5;fill:#FFFFFF;}
	.st1{fill:#FFFFFF;}
</style>
<g>
	<path class="st0" d="M17.52,234.84c-4.41-6.96-1.72-16.34,5.49-20.32l25.48-14.13c6.79-3.77,15.08-1.33,19.3,5.19
		c9.17,14.17,20.07,27.14,32.45,38.62l-29.62,51.29C49.89,278.14,31.98,257.68,17.52,234.84L17.52,234.84z M459.55,234.84
		c4.41-6.96,1.72-16.34-5.49-20.32l-25.48-14.13c-6.79-3.77-15.08-1.33-19.3,5.19c-50.12,77.55-146.22,111.57-233.97,82.83
		l-29.53,51.15c29.62,11.27,61.05,17.04,92.74,17.04C328.2,356.54,411.59,310.6,459.55,234.84z"/>
	<path class="st1" d="M421.17,320.97c-22.7,18.39-48.05,33.24-75.2,44.03l49.47,85.68l48.97,20.88c7.37,3.16,15.91-0.25,19.07-7.62
		c0.54-1.26,0.9-2.6,1.07-3.96l6.35-52.87L421.17,320.97z M315.6,138.12c23.45-42.31,8.16-95.62-34.15-119.07
		s-95.62-8.16-119.07,34.15c-14.48,26.13-14.65,57.84-0.44,84.12L6.18,407.11l6.35,52.87c0.96,7.96,8.19,13.64,16.16,12.68
		c1.37-0.16,2.7-0.52,3.97-1.06l49.01-20.88l154.4-267.54c0.97,0,1.94,0.05,2.92,0.05h2.03l45.83,79.39
		c28.36-8.18,54.18-23.44,75.02-44.34L315.6,138.12z M238.99,124.24c-15.79,0-28.59-12.8-28.59-28.59s12.8-28.59,28.59-28.59
		s28.59,12.8,28.59,28.59S254.78,124.24,238.99,124.24z"/>
</g>
</svg>
