<?xml version="1.0" encoding="utf-8"?>
<!-- Generator: Adobe Illustrator 23.0.1, SVG Export Plug-In . SVG Version: 6.00 Build 0)  -->
<svg version="1.1" id="Camada_1" xmlns="http://www.w3.org/2000/svg" xmlns:xlink="http://www.w3.org/1999/xlink" x="0px" y="0px"
	 viewBox="0 0 1031 1024" style="enable-background:new 0 0 1031 1024;" xml:space="preserve">
<style type="text/css">
	.st0{opacity:0.33;fill:#FFFFFF;}
	.st1{fill:#FFFFFF;}
</style>
<g>
	<path class="st0" d="M93.99,694.75C44,744.74,19.3,869.8,26.12,1002.86c133.61,6.88,258.31-18.08,308.1-67.88
		c77.9-77.88,82.9-181.73,12.2-252.43C275.72,611.86,171.88,616.87,93.99,694.75z M277.6,851.48
		c-20.75,20.75-72.71,31.15-128.4,28.28c-2.83-55.44,7.46-107.55,28.29-128.38c32.45-32.46,75.73-34.54,105.18-5.08
		C312.13,775.76,310.05,819.03,277.6,851.48L277.6,851.48z M125.43,312.71L29.89,503.77c-2.98,6.51-4.64,13.54-4.89,20.7
		c0.01,25.63,20.78,46.4,46.41,46.41h180.72c45.33-91.68,117.97-238.55,150.61-304.21c1-1.77,1.93-3.42,2.95-5.17H208.34
		C176.74,261.53,139.64,284.46,125.43,312.71z M762.35,626.12c-65.67,32.89-212.82,105.73-304.22,150.96V958
		c0.35,25.39,20.94,45.83,46.33,46c7.1-0.27,14.08-1.93,20.54-4.89l190.9-95.5c28.28-14.14,51.24-51.24,51.24-82.87V624.44
		c0.13-0.08,0.24-0.17,0.36-0.25v-1.02C765.75,624.18,764.12,625.11,762.35,626.12z"/>
	<path class="st1" d="M1001.77,51.74c-2.76-12.07-12.17-21.51-24.24-24.31C914.89,14,864.9,14,816.78,14
		c-172.38,0-302.95,78.53-410.9,247.15c-1.08,1.89-2.07,3.63-3.14,5.52c-32.64,65.66-105.28,212.53-150.61,304.21h20.38
		c102.52,0,185.62,83.11,185.62,185.62c0,0,0,0,0,0v20.59c91.41-45.24,238.56-118.08,304.22-150.96c1.86-1.06,3.54-2.03,5.39-3.09
		c168.68-108.4,247.23-238.82,247.23-410.46C1015.12,164.06,1015.25,114.72,1001.77,51.74z M736.56,385.25
		c-51.26,0-92.81-41.55-92.81-92.81s41.55-92.81,92.81-92.81c51.26,0,92.81,41.55,92.81,92.81
		C829.35,343.68,787.81,385.23,736.56,385.25z M177.5,751.38c-20.83,20.83-31.13,72.94-28.29,128.38
		c55.68,2.87,107.65-7.53,128.4-28.28c32.46-32.45,34.53-75.72,5.08-105.18C253.22,716.84,209.94,718.92,177.5,751.38z"/>
</g>
</svg>
